<?xml version="1.0" standalone="no"?>
<!DOCTYPE svg PUBLIC "-//W3C//DTD SVG 1.1//EN" "http://www.w3.org/Graphics/SVG/1.1/DTD/svg11.dtd" >
<svg xmlns="http://www.w3.org/2000/svg" xmlns:xlink="http://www.w3.org/1999/xlink" version="1.1">
<metadata></metadata>
<defs>
<font id="function_prolight" horiz-adv-x="1120" >
<font-face units-per-em="2048" ascent="1542" descent="-506" />
<missing-glyph horiz-adv-x="512" />
<glyph unicode="&#xfb01;" horiz-adv-x="808" d="M53 760v76h92v397q0 138 41 197q63 88 179 88q33 0 73 -13v-75q-41 10 -65 10q-77 0 -111.5 -52.5t-34.5 -170.5v-381h211v-76h-211v-760h-82v760h-92zM549 1114q0 29 22.5 51.5t51.5 22.5q32 0 53.5 -21.5t21.5 -52.5t-22 -53.5t-51 -22.5q-31 0 -53.5 22.5t-22.5 53.5z M582 0v836h82v-836h-82z" />
<glyph unicode="&#xfb02;" horiz-adv-x="808" d="M53 760v76h92v397q0 138 41 197q63 88 179 88q33 0 73 -13v-75q-41 10 -65 10q-77 0 -111.5 -52.5t-34.5 -170.5v-381h211v-76h-211v-760h-82v760h-92zM582 0v1493h82v-1493h-82z" />
<glyph horiz-adv-x="0" />
<glyph horiz-adv-x="682" />
<glyph unicode=" "  horiz-adv-x="512" />
<glyph unicode="&#x09;" horiz-adv-x="512" />
<glyph unicode="&#xa0;" horiz-adv-x="512" />
<glyph unicode="!" horiz-adv-x="530" d="M190 61q0 31 22.5 52.5t53.5 21.5t52.5 -21.5t21.5 -52.5t-22 -53t-52 -22q-31 0 -53.5 22t-22.5 53zM221 244v1122h88v-1122h-88z" />
<glyph unicode="&#x22;" horiz-adv-x="737" d="M215 1366h94l-16 -469h-64zM428 1366h92l-14 -469h-64z" />
<glyph unicode="#" horiz-adv-x="1228" d="M92 451v81h252l41 328h-242v82h252l51 430l89 -12l-52 -418h328l53 430l88 -12l-51 -418h236v-82h-244l-41 -328h233v-81h-243l-58 -457l-86 12l56 445h-332l-57 -457l-86 12l55 445h-242zM432 532h330l39 328h-328z" />
<glyph unicode="$" d="M150 274l75 35q102 -243 324 -243v626q-119 57 -160 84q-86 55 -123 116.5t-37 149.5q0 137 89.5 230.5t230.5 103.5v191h80v-193q88 -12 162 -63t114 -127l-65 -54q-86 142 -211 160v-540q165 -81 215 -119q129 -92 129 -250q0 -142 -97.5 -252.5t-246.5 -138.5v-209 h-80v203q-142 3 -243.5 76.5t-155.5 213.5zM319 1038q0 -81 46.5 -132t183.5 -120v508q-98 -8 -164 -80.5t-66 -175.5zM629 74q111 26 182.5 112t71.5 193q0 88 -55 147.5t-199 126.5v-579z" />
<glyph unicode="%" horiz-adv-x="1239" d="M68 1114q0 110 80 187t194 77q118 0 197 -77t79 -191q0 -116 -79 -192t-199 -76q-116 0 -194 78t-78 194zM150 1114q0 -82 56 -139t138 -57q78 0 135.5 57.5t57.5 136.5t-57.5 136t-137.5 57q-78 0 -135 -57t-57 -134zM182 2l809 1395l60 -31l-811 -1397zM618 260 q0 110 80.5 187t194.5 77q118 0 197 -77t79 -191q0 -115 -79.5 -191.5t-198.5 -76.5q-116 0 -194.5 78.5t-78.5 193.5zM698 258q0 -83 56.5 -140t138.5 -57q79 0 136.5 57.5t57.5 137.5q0 79 -57 136t-137 57q-79 0 -137 -57t-58 -134z" />
<glyph unicode="&#x26;" horiz-adv-x="1288" d="M129 328q0 137 95 252.5t313 242.5q-79 120 -108.5 184t-29.5 117q0 110 79 188.5t188 78.5q104 0 175.5 -74t71.5 -180q0 -95 -54 -166.5t-197 -171.5l333 -451q82 79 160 182l80 -36q-65 -84 -101.5 -127t-86.5 -91l206 -278h-114l-162 217q-156 -130 -270.5 -186 t-223.5 -56q-148 0 -251 103.5t-103 251.5zM219 336q0 -118 77.5 -199.5t190.5 -81.5q173 0 441 232l-342 467q-58 -39 -129 -82q-238 -152 -238 -336zM487 1118q0 -35 14 -69t48 -86q34 -50 61 -95q138 101 176.5 150t38.5 123q0 69 -49 117.5t-119 48.5q-69 0 -119.5 -56 t-50.5 -133z" />
<glyph unicode="'" horiz-adv-x="501" d="M199 1366h94l-17 -469h-63z" />
<glyph unicode="(" horiz-adv-x="550" d="M178 584q0 252 41 518.5t103 419.5l67 -47q-127 -446 -127 -891q0 -447 127 -893l-67 -47q-62 153 -103 419.5t-41 520.5z" />
<glyph unicode=")" horiz-adv-x="550" d="M164 -309q127 443 127 893q0 451 -127 891l67 47q62 -153 103 -419.5t41 -518.5q0 -253 -41 -519t-103 -421z" />
<glyph unicode="*" d="M238 1227l26 84l258 -90l-6 272h88l-6 -272l256 90l29 -84l-262 -78l165 -217l-71 -51l-156 225l-153 -225l-72 51l166 217z" />
<glyph unicode="+" d="M63 655v82h455v449h82v-449h455v-82h-455v-448h-82v448h-455z" />
<glyph unicode="," horiz-adv-x="415" d="M78 -281l123 414l82 -24l-152 -410z" />
<glyph unicode="-" horiz-adv-x="344" d="M0 383v82h344v-82h-344z" />
<glyph unicode="." horiz-adv-x="415" d="M133 61q0 29 22.5 51.5t53.5 22.5t52.5 -21.5t21.5 -52.5t-22.5 -53t-51.5 -22q-31 0 -53.5 22t-22.5 53z" />
<glyph unicode="/" horiz-adv-x="1114" d="M14 -324l1039 1846l63 -33l-1036 -1845z" />
<glyph unicode="0" d="M63 686q0 187 68 347.5t183.5 254.5t250.5 94q133 0 246 -93t178.5 -252.5t65.5 -346.5q0 -192 -67 -355.5t-181 -258t-248 -94.5q-135 0 -249 94t-180.5 256.5t-66.5 353.5zM154 680q0 -173 53.5 -313.5t147 -220.5t208.5 -80q108 0 201 83t148 225t55 306 q0 169 -54.5 311.5t-148 224.5t-205.5 82q-111 0 -204 -82.5t-147 -225t-54 -310.5z" />
<glyph unicode="1" d="M344 1284l39 82h262v-1366h-88v1284h-213z" />
<glyph unicode="2" d="M125 0l522 578q131 143 182.5 234.5t51.5 180.5q0 127 -94 216t-228 89q-85 0 -159.5 -39.5t-112.5 -105.5q-38 -61 -43 -174h-90q3 84 14.5 130.5t40.5 90.5q54 82 152 132t202 50q169 0 288.5 -115.5t119.5 -279.5q0 -77 -27.5 -147.5t-91.5 -155.5 q-19 -25 -33.5 -42.5t-25.5 -29.5t-47.5 -52t-71.5 -79l-357 -399h648v-82h-840z" />
<glyph unicode="3" d="M156 336h86q11 -97 45 -146q35 -54 105 -89t140 -35q127 0 219.5 92.5t92.5 220.5q0 83 -40.5 151t-109.5 103q-58 30 -157 35v82q60 4 95.5 15t72.5 36q57 38 88.5 98t31.5 129q0 117 -75.5 193.5t-190.5 76.5q-69 0 -129 -28.5t-92 -77.5q-20 -29 -29.5 -61t-17.5 -91 h-84q14 117 51 183q41 74 120.5 116.5t176.5 42.5q152 0 256 -101.5t104 -252.5q0 -211 -206 -315q107 -43 166 -130t59 -204q0 -167 -116.5 -282t-285.5 -115q-104 0 -194 48t-137 130q-42 75 -45 176z" />
<glyph unicode="4" d="M20 260l824 1151v-1069h192v-82h-192v-260h-88v260h-736zM184 342h572v803z" />
<glyph unicode="5" d="M61 207l80 33q58 -84 144 -129t186 -45q167 0 282 113.5t115 279.5q0 164 -114.5 275.5t-284.5 111.5q-55 0 -100 -13t-105 -47l178 580h519v-82h-457l-113 -369q65 15 101 15q198 0 332 -135t134 -334q0 -204 -141 -341.5t-348 -137.5q-128 0 -233.5 58t-174.5 167z" />
<glyph unicode="6" d="M74 463q0 153 88 278l452 641l70 -51l-301 -430q97 37 182 37q96 0 184.5 -38t152.5 -102t102 -152.5t38 -184.5q0 -130 -65 -240.5t-176 -174.5t-242 -64q-204 0 -344.5 140t-140.5 341zM164 461q0 -164 116.5 -279.5t280.5 -115.5q160 0 276.5 115.5t116.5 273.5 q0 167 -115 283t-280 116q-163 0 -279 -115t-116 -278z" />
<glyph unicode="7" d="M72 37l882 1247h-829v82h989l-975 -1380z" />
<glyph unicode="8" d="M164 362q0 120 53.5 204.5t167.5 144.5q-188 110 -188 313q0 152 104.5 255t259.5 103t261 -102.5t106 -253.5q0 -96 -53 -180.5t-144 -134.5q223 -107 223 -342q0 -163 -115 -275t-282 -112q-166 0 -279.5 109.5t-113.5 270.5zM252 371q0 -127 89 -216t216 -89 q126 0 215.5 88.5t89.5 214.5q0 124 -89.5 212.5t-215.5 88.5q-125 0 -215 -88t-90 -211zM287 1026q0 -116 80 -197t194 -81t194.5 81t80.5 195t-80.5 194t-194.5 80q-113 0 -193.5 -80t-80.5 -192z" />
<glyph unicode="9" d="M78 905q0 130 65 240t176.5 173.5t243.5 63.5q133 0 244.5 -63.5t175.5 -173.5t64 -242q0 -153 -89 -278l-452 -641l-70 53l301 428q-99 -35 -182 -35q-196 0 -336.5 140t-140.5 335zM166 909q0 -166 115.5 -281.5t281.5 -115.5q163 0 279 115t116 278t-116.5 278 t-280.5 115q-161 0 -278 -114.5t-117 -274.5z" />
<glyph unicode=":" horiz-adv-x="415" d="M133 61q0 29 22.5 51.5t53.5 22.5t52.5 -21.5t21.5 -52.5t-22.5 -53t-51.5 -22q-31 0 -53.5 22t-22.5 53zM133 780q0 29 22.5 51.5t53.5 22.5t52.5 -21.5t21.5 -52.5q0 -30 -22.5 -52.5t-51.5 -22.5q-31 0 -53.5 22t-22.5 53z" />
<glyph unicode=";" horiz-adv-x="415" d="M78 -281l123 414l82 -24l-152 -410zM141 780q0 29 22.5 51.5t53.5 22.5q30 0 52 -22t22 -52t-22.5 -52.5t-51.5 -22.5q-32 0 -54 22t-22 53z" />
<glyph unicode="&#x3c;" horiz-adv-x="1024" d="M68 645v82l886 395v-90l-790 -346l790 -348v-90z" />
<glyph unicode="=" d="M63 547v82h992v-82h-992zM63 764v82h992v-82h-992z" />
<glyph unicode="&#x3e;" horiz-adv-x="1024" d="M70 248v90l790 348l-790 346v90l886 -395v-82z" />
<glyph unicode="?" horiz-adv-x="952" d="M150 1073q0 130 93.5 217.5t231.5 87.5q141 0 233.5 -93.5t92.5 -235.5q0 -88 -36.5 -162.5t-98.5 -112.5q-38 -23 -96 -40.5t-105 -30t-91.5 -33t-69.5 -61t-25 -103.5q0 -84 56.5 -141.5t139.5 -57.5q89 0 139 56.5t58 162.5h84v-20q0 -123 -78.5 -201t-202.5 -78 q-123 0 -204 80t-81 201q0 207 259 276q98 26 129 38.5t61 37.5q74 61 74 182q0 109 -70 181.5t-174 72.5q-100 0 -168 -68.5t-68 -168.5q0 -39 13 -98h-84q-12 66 -12 112zM397 61q0 29 22.5 51.5t53.5 22.5t52.5 -21.5t21.5 -52.5t-22.5 -53t-51.5 -22q-31 0 -53.5 22 t-22.5 53z" />
<glyph unicode="@" horiz-adv-x="1572" d="M106 684q0 194 94 354.5t258 253t361 92.5q136 0 256.5 -46.5t206.5 -126t136 -191.5t50 -238q0 -122 -44 -227.5t-119.5 -168t-161.5 -62.5q-56 0 -95.5 35.5t-39.5 84.5v21q-68 -83 -127.5 -114.5t-141.5 -31.5q-140 0 -230.5 95t-90.5 243q0 168 103.5 281t258.5 113 q91 0 154 -36.5t123 -125.5l18 143l96 -2l-86 -563q0 -31 22 -51.5t54 -20.5q93 0 163.5 113.5t70.5 263.5q0 233 -164 386t-414 153q-174 0 -319.5 -83t-229.5 -228t-84 -318q0 -172 83 -318.5t227 -228.5q143 -82 350 -82q124 0 225.5 25.5t226.5 87.5l29 -70 q-124 -61 -235.5 -87.5t-243.5 -26.5q-228 0 -397 96q-159 91 -251 253.5t-92 352.5zM502 662q0 -116 69.5 -191.5t176.5 -75.5q118 0 205 97t87 229q0 110 -70 181t-179 71q-123 0 -206 -89.5t-83 -221.5z" />
<glyph unicode="A" horiz-adv-x="1196" d="M27 0l573 1407l569 -1407h-100l-180 449h-582l-182 -449h-98zM340 530h516l-256 648z" />
<glyph unicode="B" horiz-adv-x="1091" d="M184 0v1366h295q99 0 166.5 -24.5t118.5 -79.5q92 -103 92 -254q0 -99 -36.5 -163.5t-123.5 -119.5q100 -25 160 -74q59 -47 92 -119.5t33 -152.5q0 -85 -35.5 -160t-101.5 -129q-112 -90 -289 -90h-371zM272 82h230q122 0 181.5 16.5t113.5 65.5q94 85 94 215 q0 83 -41 151t-109 97q-88 39 -256 39h-213v-584zM272 748h174q95 0 140.5 11t87.5 46q90 70 90 205q0 146 -90 217q-41 31 -93 44t-135 13h-174v-536z" />
<glyph unicode="C" horiz-adv-x="1386" d="M109 680q0 188 96 350.5t259.5 258t352.5 95.5q251 0 459 -176v-123q-48 53 -80.5 80.5t-79.5 53.5q-144 81 -301 81q-163 0 -305 -85.5t-225.5 -229.5t-83.5 -309q0 -134 55 -251.5t158 -205.5q90 -75 194.5 -116.5t206.5 -41.5q81 0 172.5 28.5t169.5 76.5 q58 36 119 100v-119q-114 -89 -223 -129.5t-232 -40.5q-142 0 -273.5 56.5t-227.5 151.5t-153.5 225t-57.5 270z" />
<glyph unicode="D" horiz-adv-x="1263" d="M184 0v1366h271q159 0 280 -45.5t219 -142.5q97 -97 149 -225t52 -269q0 -143 -52 -271t-149 -223q-98 -98 -219 -144t-280 -46h-271zM272 82h181q258 0 426 158q89 83 136.5 198t47.5 246q0 130 -47.5 244.5t-136.5 197.5q-168 158 -426 158h-181v-1202z" />
<glyph unicode="E" horiz-adv-x="948" d="M184 0v1366h654v-82h-566v-496h553v-81h-553v-625h566v-82h-654z" />
<glyph unicode="F" horiz-adv-x="831" d="M184 0v1366h551v-82h-463v-496h451v-81h-451v-707h-88z" />
<glyph unicode="G" horiz-adv-x="1579" d="M109 678q0 143 56.5 274t152 225.5t227 150.5t276.5 56q243 0 428 -147q40 -31 74.5 -67.5t89.5 -104.5l-72 -55q-62 83 -131 145q-80 68 -184 106.5t-209 38.5q-124 0 -238 -50.5t-197.5 -134.5t-133 -199.5t-49.5 -239.5q0 -123 49.5 -236.5t132 -196.5t196 -132.5 t236.5 -49.5q149 0 290 74.5t210 188.5q56 89 61 249h-479v82h575q0 -132 -16 -210.5t-59 -151.5q-82 -141 -242 -228.5t-338 -87.5q-142 0 -273 56t-225.5 150.5t-151 224t-56.5 270.5z" />
<glyph unicode="H" horiz-adv-x="1374" d="M184 0v1366h88v-580h830v580h88v-1366h-88v705h-830v-705h-88z" />
<glyph unicode="I" horiz-adv-x="456" d="M184 0v1366h88v-1366h-88z" />
<glyph unicode="J" horiz-adv-x="542" d="M-109 -137l66 49q60 -113 170 -113q143 0 143 205v1362h88v-1362q0 -73 -10 -116.5t-35 -80.5q-29 -43 -79.5 -67.5t-110.5 -24.5q-156 0 -232 148z" />
<glyph unicode="K" horiz-adv-x="1103" d="M184 0v1366h88v-635l641 635h121l-667 -659l710 -707h-131l-641 649l-33 -33v-616h-88z" />
<glyph unicode="L" horiz-adv-x="645" d="M184 0v1366h88v-1284h346v-82h-434z" />
<glyph unicode="M" horiz-adv-x="1837" d="M170 0l154 1413l589 -1263l596 1263l156 -1413h-90l-123 1098l-539 -1147l-534 1147l-119 -1098h-90z" />
<glyph unicode="N" horiz-adv-x="1603" d="M184 0v1380l1147 -1200v1186h88v-1401l-1147 1200v-1165h-88z" />
<glyph unicode="O" horiz-adv-x="1634" d="M109 692q0 136 57.5 264t153 221.5t226 150t269.5 56.5q190 0 353.5 -95t259.5 -257t96 -350q0 -190 -96 -352.5t-260.5 -257.5t-356.5 -95q-142 0 -272 57t-224 153.5t-150 228.5t-56 276zM201 690q0 -280 198 -463q87 -78 195.5 -122t216.5 -44q168 0 311 83.5 t226.5 226.5t83.5 311q0 166 -83.5 308.5t-226 226t-307.5 83.5q-122 0 -235.5 -49.5t-196.5 -131.5t-132.5 -195t-49.5 -234z" />
<glyph unicode="P" horiz-adv-x="911" d="M184 0v1366h262q105 0 176 -24.5t123 -79.5q99 -104 99 -254q0 -167 -105.5 -263t-289.5 -96h-177v-649h-88zM272 731h179q137 0 219 75.5t82 201.5t-74 200q-76 76 -240 76h-166v-553z" />
<glyph unicode="Q" horiz-adv-x="1634" d="M109 680q0 142 56.5 272t151.5 224.5t226 151t274 56.5q190 0 353 -94.5t258.5 -256.5t95.5 -351q0 -135 -46 -249t-153 -243l178 -190h-117l-122 139q-110 -84 -219 -123t-234 -39q-142 0 -272 56t-224 150.5t-150 224.5t-56 272zM201 678q0 -166 83 -308.5t225 -225.5 t308 -83q102 0 194 34t191 108l-340 356h123l277 -303q94 110 132 204t38 214q0 127 -48.5 243t-131 200t-195.5 133.5t-238 49.5q-167 0 -309.5 -83.5t-225.5 -227t-83 -311.5z" />
<glyph unicode="R" horiz-adv-x="956" d="M184 0v1366h193q104 0 169.5 -16t119.5 -54q66 -46 101.5 -121.5t35.5 -170.5q0 -106 -45 -188t-127 -126q-67 -37 -217 -45l446 -645h-108l-439 645h-41v-645h-88zM272 727h131q147 0 228.5 73.5t81.5 205.5q0 79 -32.5 142.5t-88.5 94.5q-72 41 -207 41h-113v-557z" />
<glyph unicode="S" horiz-adv-x="1048" d="M109 270l75 37q42 -90 76 -131q43 -53 111 -84t141 -31q136 0 235 94.5t99 223.5q0 132 -133 211q-14 8 -23 13.5t-29 15.5t-37.5 18.5t-66.5 33t-98 48.5q-155 77 -213 146t-58 179q0 148 99.5 244t251.5 96q106 0 191.5 -50t139.5 -144l-65 -53q-58 89 -119 126 t-149 37q-109 0 -182.5 -74.5t-73.5 -183.5q0 -83 50.5 -137.5t190.5 -122.5q206 -98 273 -141q143 -93 143 -262q0 -166 -125.5 -284t-302.5 -118q-281 0 -401 293z" />
<glyph unicode="T" horiz-adv-x="849" d="M27 1284v82h794v-82h-356v-1284h-88v1284h-350z" />
<glyph unicode="U" horiz-adv-x="1296" d="M184 487v879h88v-854q0 -126 10.5 -187.5t39.5 -105.5q44 -69 135.5 -113.5t189.5 -44.5q100 0 192 44.5t136 113.5q29 44 39 105t10 188v854h88v-879q0 -135 -14.5 -199.5t-57.5 -123.5q-62 -86 -167.5 -136.5t-225.5 -50.5q-119 0 -224.5 50.5t-166.5 136.5 q-42 60 -57 125t-15 198z" />
<glyph unicode="V" horiz-adv-x="1040" d="M27 1366h98l399 -1153l394 1153h94l-488 -1421z" />
<glyph unicode="W" horiz-adv-x="2011" d="M27 1366h100l371 -1155l495 1229l463 -1229l426 1155h100l-526 -1417l-463 1239l-508 -1239z" />
<glyph unicode="X" horiz-adv-x="946" d="M47 0l373 698l-359 668h101l309 -575l307 575h103l-359 -668l377 -698h-100l-328 606l-324 -606h-100z" />
<glyph unicode="Y" horiz-adv-x="1052" d="M27 1366h102l389 -686l400 686h104l-461 -782v-584h-88v584z" />
<glyph unicode="Z" horiz-adv-x="1136" d="M76 0l833 1284h-753v82h907l-836 -1284h811v-82h-962z" />
<glyph unicode="[" horiz-adv-x="567" d="M178 -328v1821h307v-82h-219v-1659h219v-80h-307z" />
<glyph unicode="\" horiz-adv-x="1114" d="M-2 1489l63 33l1039 -1846l-66 -32z" />
<glyph unicode="]" horiz-adv-x="567" d="M82 -246h219v1659h-219v80h307v-1821h-307v82z" />
<glyph unicode="^" horiz-adv-x="1024" d="M74 780l379 586h118l379 -586h-102l-338 516l-336 -516h-100z" />
<glyph unicode="_" horiz-adv-x="1024" d="M0 -156h1024v-84h-1024v84z" />
<glyph unicode="`" horiz-adv-x="1024" d="M295 1190l86 55l188 -256l-61 -33z" />
<glyph unicode="a" horiz-adv-x="1054" d="M92 422q0 191 114 311.5t294 120.5q205 0 327 -164v146h82v-836h-82v150q-113 -173 -325 -173q-178 0 -294 125.5t-116 319.5zM176 426q0 -161 93.5 -267t234.5 -106q145 0 237.5 105t92.5 268q0 172 -105 264q-101 88 -225 88q-138 0 -233 -101.5t-95 -250.5z" />
<glyph unicode="b" horiz-adv-x="1054" d="M145 0v1493h82v-803q124 164 328 164q180 0 294 -120.5t114 -311.5q0 -192 -116 -318.5t-294 -126.5q-102 0 -186 44.5t-140 128.5v-150h-82zM221 426q0 -163 92.5 -268t235.5 -105q140 0 235 104.5t95 258.5q0 180 -115 280q-43 38 -99 60t-112 22q-149 0 -254 -114 q-78 -84 -78 -238z" />
<glyph unicode="c" horiz-adv-x="903" d="M92 410q0 190 123.5 317t308.5 127q84 0 151.5 -24.5t139.5 -81.5v-109q-73 75 -141 107t-152 32q-145 0 -245.5 -106t-100.5 -258q0 -151 100.5 -256t245.5 -105q169 0 303 152v-111q-140 -117 -303 -117q-183 0 -306.5 125t-123.5 308z" />
<glyph unicode="d" horiz-adv-x="1054" d="M92 422q0 191 114 311.5t294 120.5q104 0 183.5 -39.5t143.5 -124.5v803h82v-1493h-82v150q-113 -173 -325 -173q-178 0 -294 126.5t-116 318.5zM176 426q0 -161 93.5 -267t234.5 -106q145 0 237.5 105t92.5 268q0 172 -105 264q-101 88 -225 88q-138 0 -233 -101.5 t-95 -250.5z" />
<glyph unicode="e" horiz-adv-x="991" d="M92 414q0 189 116.5 314.5t291.5 125.5q177 0 286.5 -122.5t112.5 -323.5h-717q3 -117 45 -189q41 -75 118 -120.5t163 -45.5q57 0 113.5 21.5t97.5 58.5q38 35 84 113l69 -41q-129 -228 -370 -228q-177 0 -293.5 124t-116.5 313zM188 485h617q-25 133 -108.5 213 t-198.5 80q-117 0 -204 -82.5t-106 -210.5z" />
<glyph unicode="f" horiz-adv-x="436" d="M53 760v76h92v397q0 138 41 197q63 88 179 88q33 0 73 -13v-75q-41 10 -65 10q-77 0 -111.5 -52.5t-34.5 -170.5v-381h211v-76h-211v-760h-82v760h-92z" />
<glyph unicode="g" horiz-adv-x="1067" d="M92 -121h84q6 -53 16.5 -84.5t32.5 -64.5q43 -63 116.5 -98t162.5 -35q163 0 249.5 108t86.5 311v127q-138 -163 -330 -163q-172 0 -291 127t-119 311q0 186 121 311t301 125q99 0 172 -37.5t146 -126.5v146h82v-820q0 -127 -20 -203.5t-71 -140.5q-57 -72 -142.5 -111.5 t-186.5 -39.5q-115 0 -210.5 48.5t-146.5 133.5q-42 65 -53 176zM184 420q0 -158 91.5 -261.5t232.5 -103.5q73 0 141.5 32t118.5 89q78 94 78 246q0 166 -103 260q-104 96 -231 96q-137 0 -232.5 -104.5t-95.5 -253.5z" />
<glyph unicode="h" horiz-adv-x="903" d="M145 0v1493h82v-788q51 79 111 114t145 35q73 0 136.5 -31.5t95.5 -85.5q41 -66 41 -211v-526h-82v526q0 120 -31 170q-22 38 -68 60t-102 22q-135 0 -201 -114q-25 -43 -35 -93.5t-10 -136.5v-434h-82z" />
<glyph unicode="i" horiz-adv-x="374" d="M113 1114q0 29 22 51.5t51 22.5q32 0 54 -21.5t22 -52.5t-22.5 -53.5t-51.5 -22.5q-31 0 -53 22.5t-22 53.5zM145 0v836h82v-836h-82z" />
<glyph unicode="j" horiz-adv-x="374" d="M113 1114q0 29 22 51.5t51 22.5q32 0 54 -21.5t22 -52.5t-22.5 -53.5t-51.5 -22.5q-32 0 -53.5 22.5t-21.5 53.5zM145 -489v1325h82v-1325h-82z" />
<glyph unicode="k" horiz-adv-x="811" d="M145 0v1493h82v-1012l342 355h107l-350 -363l469 -473h-113l-412 414l-43 -43v-371h-82z" />
<glyph unicode="l" horiz-adv-x="374" d="M145 0v1493h82v-1493h-82z" />
<glyph unicode="m" horiz-adv-x="1327" d="M145 0v836h82v-105q40 64 91.5 93.5t123.5 29.5q161 0 234 -152q41 78 100.5 115t145.5 37q63 0 117.5 -24.5t88.5 -67.5q29 -37 40.5 -83.5t11.5 -131.5v-547h-82v557q0 66 -7.5 99t-29.5 61q-48 61 -143 61q-103 0 -157 -70.5t-54 -203.5v-504h-82v537q0 94 -31 151 q-52 90 -154 90q-56 0 -104.5 -29.5t-73.5 -78.5q-35 -72 -35 -187v-483h-82z" />
<glyph unicode="n" horiz-adv-x="901" d="M145 0v836h82v-131q51 79 110.5 114t143.5 35q74 0 137 -31.5t95 -85.5q41 -66 41 -211v-526h-82v526q0 120 -31 170q-22 38 -67.5 60t-102.5 22q-133 0 -199 -114q-25 -43 -35 -93.5t-10 -136.5v-434h-82z" />
<glyph unicode="o" horiz-adv-x="1058" d="M92 424q0 177 129 303.5t309 126.5q183 0 310 -127t127 -311q0 -185 -127.5 -312t-313.5 -127q-182 0 -308 130t-126 317zM176 422q0 -156 100.5 -262.5t247.5 -106.5q152 0 255.5 104.5t103.5 258.5q0 152 -103 257t-254 105q-145 0 -247.5 -104t-102.5 -252z" />
<glyph unicode="p" horiz-adv-x="1054" d="M145 -489v1325h82v-150q55 82 139 125t187 43q178 0 294 -125t116 -317q0 -191 -114 -313t-292 -122q-204 0 -330 168v-634h-82zM221 408q0 -176 105 -265q101 -90 225 -90q138 0 233 102t95 251q0 161 -93 266.5t-235 105.5q-145 0 -237.5 -103.5t-92.5 -266.5z" />
<glyph unicode="q" horiz-adv-x="1054" d="M92 412q0 192 116 317t294 125q211 0 325 -168v150h82v-1325h-82v634q-126 -168 -329 -168q-179 0 -292.5 121.5t-113.5 313.5zM176 418q0 -157 93 -261t233 -104q145 0 254 115q78 84 78 240q0 161 -92.5 265.5t-235.5 104.5q-140 0 -235 -103.5t-95 -256.5z" />
<glyph unicode="r" horiz-adv-x="532" d="M145 0v836h82v-109q34 66 78 96.5t107 30.5q41 0 90 -20l-45 -72q-32 18 -58 18q-34 0 -68 -18.5t-59 -50.5q-28 -35 -36.5 -86t-8.5 -176v-449h-82z" />
<glyph unicode="s" horiz-adv-x="700" d="M78 199l80 24q59 -170 207 -170q79 0 133.5 54.5t54.5 132.5q0 63 -35 99.5t-127 70.5q-137 50 -191.5 100.5t-54.5 128.5q0 89 66 152t160 63q145 0 217 -135l-70 -37q-53 96 -143 96q-60 0 -103 -40t-43 -95q0 -49 35 -80.5t129 -66.5q83 -31 108 -43t54 -33 q82 -63 82 -178t-76.5 -190t-195.5 -75q-105 0 -180 58t-107 164z" />
<glyph unicode="t" horiz-adv-x="397" d="M61 760v76h93v299h82v-299h147v-76h-147v-760h-82v760h-93z" />
<glyph unicode="u" horiz-adv-x="892" d="M145 309v527h82v-498q0 -126 27 -184q23 -45 76 -73t114 -28q63 0 116.5 28t76.5 73q27 59 27 184v498h81v-527q0 -89 -13 -138.5t-48 -90.5q-40 -48 -104 -75.5t-136 -27.5q-70 0 -133.5 27.5t-103.5 75.5q-35 41 -48.5 91t-13.5 138z" />
<glyph unicode="v" horiz-adv-x="798" d="M16 836h97l288 -676l289 676h92l-381 -887z" />
<glyph unicode="w" horiz-adv-x="1376" d="M16 836h95l282 -672l291 723l289 -723l291 672h96l-387 -887l-289 725l-289 -725z" />
<glyph unicode="x" horiz-adv-x="821" d="M16 0l340 438l-309 398h107l258 -334l254 334h106l-303 -398l336 -438h-107l-286 375l-287 -375h-109z" />
<glyph unicode="y" horiz-adv-x="876" d="M16 836h97l342 -742l311 742h94l-561 -1325h-92l205 475z" />
<glyph unicode="z" horiz-adv-x="927" d="M37 0l682 760h-574v76h746l-678 -760h674v-76h-850z" />
<glyph unicode="{" horiz-adv-x="491" d="M74 553v61q47 13 76 39q26 26 34.5 72t8.5 168v354q0 108 26 164q22 41 66.5 65.5t99.5 24.5h47v-74q-14 -2 -31 -2q-52 -3 -69 -12q-51 -31 -51 -162v-360q0 -155 -16 -209t-75 -98q51 -40 71 -85.5t20 -123.5v-461q0 -153 71 -170q14 -4 80 -4v-76h-47q-55 0 -98.5 24 t-67.5 66q-26 53 -26 164v455q0 80 -26.5 120t-92.5 60z" />
<glyph unicode="|" horiz-adv-x="1024" d="M467 -342v1708h88v-1708h-88z" />
<glyph unicode="}" horiz-adv-x="491" d="M59 -260q64 0 88 6q64 22 64 168v362q0 107 6.5 159.5t24.5 84.5t59 64q-51 38 -70.5 83.5t-19.5 123.5v460q0 131 -51 162q-16 9 -70 12q-19 0 -31 2v74h47q55 0 99.5 -24.5t66.5 -65.5q27 -59 27 -164v-454q0 -80 26.5 -120t92.5 -59v-61q-52 -17 -76 -41 q-27 -27 -35 -72t-8 -168v-354q0 -108 -27 -164q-24 -42 -67.5 -66t-98.5 -24h-47v76z" />
<glyph unicode="~" horiz-adv-x="1366" d="M193 1253q60 114 121.5 162.5t144.5 48.5q87 0 237 -78q85 -43 128.5 -58t84.5 -15q69 0 119 47q54 54 70 86q11 24 20 24q17 0 53 -36q-60 -108 -123.5 -158.5t-140.5 -50.5q-54 0 -105.5 17.5t-166.5 76.5q-114 57 -186 57q-28 0 -60.5 -13.5t-52.5 -33.5 q-17 -17 -41.5 -47.5t-30.5 -42.5q-10 -25 -18 -25q-19 0 -53 39z" />
<glyph unicode="&#xa1;" horiz-adv-x="530" d="M190 979q0 31 22.5 52.5t53.5 21.5t52.5 -22t21.5 -54q0 -29 -22.5 -51.5t-51.5 -22.5q-31 0 -53.5 22.5t-22.5 53.5zM221 -328v1121h88v-1121h-88z" />
<glyph unicode="&#xa2;" d="M193 690q0 177 103.5 297t274.5 143v211h80v-208q148 -6 264 -107v-106q-117 123 -264 137v-721q74 5 149 44.5t126 102.5v-108q-55 -50 -130.5 -82t-144.5 -35v-231h-80v233q-169 22 -273.5 141t-104.5 289zM276 692q0 -135 85.5 -238t209.5 -116v715 q-133 -23 -214 -122t-81 -239z" />
<glyph unicode="&#xa3;" d="M139 45q44 53 114 86.5t130 30.5q60 57 87.5 109t27.5 110q0 5 -4 51h-226v82h203q-43 84 -64.5 120.5t-82.5 131.5q-55 83 -77 142t-22 124q0 146 105.5 247t259.5 101q151 0 249.5 -102t98.5 -260h-86q-5 91 -35 147q-34 61 -97 96t-138 35q-110 0 -188.5 -79 t-78.5 -191q0 -57 20.5 -101t117.5 -202q80 -131 112 -209h246v-82h-231q6 -34 6 -57q0 -123 -103 -232l131 -45q105 -37 148 -37q58 0 104.5 34.5t89.5 109.5l74 -45q-111 -187 -258 -187q-60 0 -223 58q-122 43 -168 43q-47 0 -90 -21t-103 -73z" />
<glyph unicode="&#xa4;" horiz-adv-x="1366" d="M143 1196l54 53l184 -184q141 115 301 115q162 0 299 -113l186 182l54 -53l-185 -184q109 -136 109 -295q0 -156 -111 -293l187 -186l-52 -54l-188 187q-137 -113 -297 -113q-156 0 -297 109l-184 -185l-53 56l184 182q-113 137 -113 299q0 157 107 293zM305 719 q0 -158 111 -269.5t268 -111.5t267 112.5t110 272.5q0 154 -111.5 265.5t-265.5 111.5q-157 0 -268 -111.5t-111 -269.5z" />
<glyph unicode="&#xa5;" d="M61 1366h105l387 -686l399 686h107l-285 -483h248v-82h-297l-125 -211h422v-82h-426v-508h-88v508h-410v82h406l-121 211h-285v82h238z" />
<glyph unicode="&#xa6;" horiz-adv-x="1024" d="M467 313h88v-655h-88v655zM467 698v668h88v-668h-88z" />
<glyph unicode="&#xa7;" d="M205 582q0 227 221 331q-101 53 -144.5 118.5t-43.5 168.5q0 143 92.5 228t247.5 85q100 0 174.5 -38t109.5 -107q30 -59 41 -207h-92q0 271 -236 271q-112 0 -178.5 -65t-66.5 -173q0 -106 84 -172q33 -27 63 -39.5t131 -42.5q169 -53 238 -135t69 -219 q0 -111 -53.5 -191.5t-167.5 -138.5q103 -46 151 -117.5t48 -181.5q0 -144 -88.5 -224.5t-245.5 -80.5q-103 0 -178 35.5t-109 101.5q-18 33 -25.5 78t-10.5 139h90q0 -153 53.5 -212.5t179.5 -59.5q112 0 177 61t65 166q0 134 -115 199q-29 18 -55.5 28.5t-102.5 37.5 q-30 10 -47 16q-142 51 -209 133t-67 207zM297 588q0 -112 77 -190.5t187 -78.5q107 0 184.5 78t77.5 187t-77.5 186.5t-186.5 77.5q-107 0 -184.5 -77t-77.5 -183z" />
<glyph unicode="&#xa8;" horiz-adv-x="1024" d="M268 1085q0 31 22.5 52.5t53.5 21.5t52.5 -21.5t21.5 -52.5t-22 -53t-52 -22q-31 0 -53.5 22t-22.5 53zM608 1085q0 29 22.5 51.5t53.5 22.5q30 0 52 -22t22 -52q0 -31 -22 -53t-52 -22q-32 0 -54 22t-22 53z" />
<glyph unicode="&#xa9;" horiz-adv-x="1515" d="M55 688q0 143 56.5 272t152 222.5t228 148.5t278.5 55q139 0 267 -56.5t221 -150.5t148.5 -224t55.5 -271q0 -143 -55.5 -273.5t-150 -225t-224 -150t-272.5 -55.5q-192 0 -354.5 94.5t-256.5 257.5t-94 356zM154 688q0 -166 80.5 -306.5t220 -222t305.5 -81.5 q122 0 234 48t193 129.5t129 193.5t48 235q0 161 -81 300.5t-218.5 221.5t-296.5 82q-276 0 -459 -201q-74 -84 -114.5 -187.5t-40.5 -211.5zM383 674q0 164 119.5 282.5t283.5 118.5q146 0 267 -104v-109q-119 139 -267 139q-132 0 -228.5 -98.5t-96.5 -232.5 q0 -129 97.5 -226.5t227.5 -97.5q150 0 267 135v-106q-127 -101 -265 -101q-164 0 -284.5 119.5t-120.5 280.5z" />
<glyph unicode="&#xaa;" horiz-adv-x="690" d="M59 1083q0 124 75 203.5t192 79.5q134 0 215 -106v94h53v-549h-53v98q-74 -112 -213 -112q-117 0 -193 82.5t-76 209.5zM115 1085q0 -106 60.5 -175.5t154.5 -69.5t154.5 69t60.5 176q0 113 -68 172q-66 60 -147 60q-91 0 -153 -67t-62 -165z" />
<glyph unicode="&#xab;" horiz-adv-x="710" d="M68 424l264 305l51 -49l-217 -256l217 -258l-51 -49zM285 424l264 305l53 -49l-219 -256l219 -258l-53 -49z" />
<glyph unicode="&#xac;" horiz-adv-x="1024" d="M68 465v82h886v-547h-88v465h-798z" />
<glyph unicode="&#xad;" horiz-adv-x="344" d="M0 383v82h344v-82h-344z" />
<glyph unicode="&#xae;" horiz-adv-x="1515" d="M55 688q0 143 56.5 272t152 222.5t228 148.5t278.5 55q139 0 267 -56.5t221 -150.5t148.5 -224t55.5 -271q0 -143 -55.5 -273.5t-150 -225t-224 -150t-272.5 -55.5q-192 0 -354.5 94.5t-256.5 257.5t-94 356zM154 688q0 -167 80.5 -307.5t220 -221.5t305.5 -81 q164 0 303.5 81.5t220 221t80.5 303.5q0 161 -81 300.5t-218.5 221.5t-296.5 82q-276 0 -459 -201q-74 -82 -114.5 -186.5t-40.5 -212.5zM600 287v778h119q250 0 250 -213q0 -95 -64 -156q-26 -25 -56 -36t-85 -15l248 -358h-94l-242 356v-356h-76zM676 715h57 q77 0 117.5 36t40.5 103q0 71 -41 105t-127 34h-47v-278z" />
<glyph unicode="&#xaf;" horiz-adv-x="1024" d="M256 1036v78h510v-78h-510z" />
<glyph unicode="&#xb0;" d="M287 1092q0 115 80 194.5t196 79.5q110 0 190.5 -81t80.5 -191q0 -114 -80 -194.5t-193 -80.5q-114 0 -194 80t-80 193zM369 1094q0 -80 56.5 -136.5t135.5 -56.5q78 0 134.5 57t56.5 136q0 77 -56.5 133.5t-132.5 56.5q-82 0 -138 -55t-56 -135z" />
<glyph unicode="&#xb1;" d="M63 0v82h992v-82h-992zM63 655v82h455v449h82v-449h455v-82h-455v-448h-82v448h-455z" />
<glyph unicode="&#xb2;" horiz-adv-x="792" d="M106 547l343 352q82 85 113.5 137.5t31.5 104.5q0 72 -57.5 123t-139.5 51q-51 0 -96 -23t-70 -61q-23 -40 -26 -107h-70q2 56 9.5 85t27.5 57q34 49 97.5 79.5t131.5 30.5q109 0 186 -69.5t77 -169.5q0 -68 -36.5 -126.5t-152.5 -179.5l-215 -223h399v-61h-553z" />
<glyph unicode="&#xb3;" horiz-adv-x="792" d="M139 758h68q8 -62 29 -88q23 -31 65.5 -51.5t83.5 -20.5q78 0 134 53t56 125q0 75 -50 117t-144 47v61q86 4 134 46.5t48 111.5q0 66 -45.5 110t-114.5 44q-75 0 -114.5 -38t-48.5 -116h-68q7 74 35 119q28 46 78.5 72t113.5 26q99 0 166.5 -62.5t67.5 -154.5 q0 -60 -31 -108.5t-88 -77.5q60 -25 95.5 -78t35.5 -119q0 -101 -75.5 -171t-184.5 -70q-68 0 -126 29.5t-89 78.5q-28 47 -31 115z" />
<glyph unicode="&#xb4;" horiz-adv-x="1024" d="M457 989l186 256l88 -55l-215 -234z" />
<glyph unicode="&#xb5;" horiz-adv-x="892" d="M145 -489v1325h82v-498q0 -126 27 -184q23 -45 76 -73t114 -28q63 0 116.5 28t76.5 73q27 59 27 184v498h81v-527q0 -89 -13 -138.5t-48 -90.5q-40 -47 -103 -75t-132 -28q-126 0 -222 89v-555h-82z" />
<glyph unicode="&#xb6;" d="M117 1024q0 73 25.5 140t70.5 112q87 90 276 90h498l-37 -76h-90v-1499h-82v1499h-235v-1499h-82v901q-125 0 -205 49q-64 41 -101.5 117.5t-37.5 165.5z" />
<glyph unicode="&#xb7;" horiz-adv-x="421" d="M137 424q0 29 22.5 51.5t53.5 22.5t52.5 -21.5t21.5 -52.5t-22.5 -53.5t-51.5 -22.5q-31 0 -53.5 22.5t-22.5 53.5z" />
<glyph unicode="&#xb8;" horiz-adv-x="1024" d="M377 -358l168 262l92 -43l-197 -252z" />
<glyph unicode="&#xb9;" horiz-adv-x="792" d="M248 1305l33 61h176v-819h-70v758h-139z" />
<glyph unicode="&#xba;" horiz-adv-x="694" d="M59 1083q0 117 85 200t202 83q121 0 204 -83.5t83 -203.5q0 -121 -83.5 -203.5t-205.5 -82.5q-120 0 -202.5 84t-82.5 206zM115 1083q0 -101 66 -171t161 -70q100 0 168 68.5t68 168.5t-68 169t-166 69q-95 0 -162 -68.5t-67 -165.5z" />
<glyph unicode="&#xbb;" horiz-adv-x="710" d="M109 166l219 258l-219 256l51 49l264 -305l-264 -307zM326 166l219 258l-219 256l51 49l266 -305l-266 -307z" />
<glyph unicode="&#xbc;" horiz-adv-x="1851" d="M248 1305l33 61h176v-819h-70v758h-139zM492 2l811 1395l57 -31l-809 -1397zM1104 154l538 706v-645h121v-61h-121v-154h-69v154h-469zM1233 215h340v447z" />
<glyph unicode="&#xbd;" horiz-adv-x="1851" d="M248 1305l33 61h176v-819h-70v758h-139zM492 2l811 1395l57 -31l-809 -1397zM1165 0l342 352q83 84 114.5 136.5t31.5 103.5q0 72 -57.5 123t-139.5 51q-51 0 -97 -22.5t-69 -59.5q-23 -38 -26 -106h-70q1 55 9 84t28 57q34 49 97.5 79.5t131.5 30.5q109 0 185.5 -69.5 t76.5 -169.5q0 -69 -36 -127.5t-152 -177.5l-215 -224h399v-61h-553z" />
<glyph unicode="&#xbe;" horiz-adv-x="1851" d="M139 758h68q8 -62 29 -88q23 -31 65.5 -51.5t83.5 -20.5q78 0 134 53t56 125q0 75 -50 117t-144 47v61q86 4 134 46.5t48 111.5q0 66 -45.5 110t-114.5 44q-75 0 -114.5 -38t-48.5 -116h-68q7 74 35 119q28 46 78.5 72t113.5 26q99 0 166.5 -62.5t67.5 -154.5 q0 -60 -31 -108.5t-88 -77.5q60 -25 95.5 -78t35.5 -119q0 -101 -75.5 -171t-184.5 -70q-68 0 -126 29.5t-89 78.5q-28 47 -31 115zM492 2l808 1395l60 -31l-809 -1397zM1102 154l538 706v-645h123v-61h-123v-154h-69v154h-469zM1231 215h340v447z" />
<glyph unicode="&#xbf;" horiz-adv-x="952" d="M150 -12q0 88 36.5 163t98.5 113q37 22 66.5 32.5t152.5 43.5q166 43 166 192q0 83 -57 141t-140 58q-56 0 -102.5 -29.5t-69.5 -78.5q-17 -35 -25 -111h-81q0 65 8 98q25 93 98 147t174 54q122 0 202.5 -80t80.5 -201q0 -107 -62.5 -175t-193.5 -103 q-104 -29 -134 -40.5t-57 -35.5q-73 -61 -73 -182q0 -109 69 -181.5t172 -72.5q100 0 168 69.5t68 170.5q0 38 -13 96h84q15 -82 15 -113q0 -129 -94 -216t-232 -87q-141 0 -233 93t-92 235zM401 977q0 29 22.5 51.5t53.5 22.5t52.5 -22t21.5 -54q0 -29 -22.5 -51.5 t-51.5 -22.5q-31 0 -53.5 22.5t-22.5 53.5z" />
<glyph unicode="&#xc0;" horiz-adv-x="1196" d="M27 0l573 1407l569 -1407h-100l-180 449h-582l-182 -449h-98zM328 1671l94 64l250 -222l-72 -53zM340 530h516l-256 648z" />
<glyph unicode="&#xc1;" horiz-adv-x="1196" d="M27 0l573 1407l569 -1407h-100l-180 449h-582l-182 -449h-98zM340 530h516l-256 648zM539 1513l249 222l95 -64l-273 -211z" />
<glyph unicode="&#xc2;" horiz-adv-x="1196" d="M27 0l573 1407l569 -1407h-100l-180 449h-582l-182 -449h-98zM340 530h516l-256 648zM350 1520l256 215l254 -215l-74 -58l-180 154l-182 -154z" />
<glyph unicode="&#xc3;" horiz-adv-x="1196" d="M27 0l573 1407l569 -1407h-100l-180 449h-582l-182 -449h-98zM340 530h516l-256 648zM358 1548q31 68 64 95.5t82 27.5q47 0 127 -35q81 -37 117 -37q29 0 45.5 16.5t37.5 61.5l58 -45q-40 -123 -146 -123q-42 0 -120 33q-96 39 -125 39t-46 -16.5t-34 -61.5z" />
<glyph unicode="&#xc4;" horiz-adv-x="1196" d="M27 0l573 1407l569 -1407h-100l-180 449h-582l-182 -449h-98zM336 1591q0 32 24 55t56 23t55 -23t23 -55q0 -34 -23 -57t-55 -23q-34 0 -57 23t-23 57zM340 530h516l-256 648zM717 1591q0 32 24 55t56 23t54.5 -23t22.5 -55q0 -34 -22.5 -57t-54.5 -23q-34 0 -57 23 t-23 57z" />
<glyph unicode="&#xc5;" horiz-adv-x="1196" d="M27 0l573 1407l569 -1407h-100l-180 449h-582l-182 -449h-98zM340 530h516l-256 648zM440 1614q0 66 49 114t115 48q68 0 116 -48t48 -116t-48 -116t-116 -48t-116 48.5t-48 117.5zM520 1614q0 -35 24.5 -60.5t59.5 -25.5t59.5 25t24.5 59q0 35 -24.5 59.5t-59.5 24.5 q-34 0 -59 -25t-25 -57z" />
<glyph unicode="&#xc6;" horiz-adv-x="1742" d="M27 0l551 1366h593l33 -82h-563l203 -496h549l32 -81h-546l251 -625h566l33 -82h-662l-180 449h-586l-176 -449h-98zM336 530h516l-260 644z" />
<glyph unicode="&#xc7;" horiz-adv-x="1386" d="M109 680q0 188 96 350.5t259.5 258t352.5 95.5q251 0 459 -176v-123q-48 53 -80.5 80.5t-79.5 53.5q-144 81 -301 81q-163 0 -305 -85.5t-225.5 -229.5t-83.5 -309q0 -134 55 -251.5t158 -205.5q90 -75 194.5 -116.5t206.5 -41.5q81 0 172.5 28.5t169.5 76.5 q58 36 119 100v-119q-114 -89 -223 -129.5t-232 -40.5q-142 0 -273.5 56.5t-227.5 151.5t-153.5 225t-57.5 270zM571 -369l181 273l102 -51l-209 -259z" />
<glyph unicode="&#xc8;" horiz-adv-x="948" d="M184 0v1366h654v-82h-566v-496h553v-81h-553v-625h566v-82h-654zM279 1671l94 64l250 -222l-72 -53z" />
<glyph unicode="&#xc9;" horiz-adv-x="948" d="M184 0v1366h654v-82h-566v-496h553v-81h-553v-625h566v-82h-654zM440 1513l250 222l94 -64l-272 -211z" />
<glyph unicode="&#xca;" horiz-adv-x="948" d="M184 0v1366h654v-82h-566v-496h553v-81h-553v-625h566v-82h-654zM272 1520l256 215l254 -215l-73 -58l-181 154l-182 -154z" />
<glyph unicode="&#xcb;" horiz-adv-x="948" d="M184 0v1366h654v-82h-566v-496h553v-81h-553v-625h566v-82h-654zM252 1591q0 32 24 55t56 23t55 -23t23 -55q0 -34 -23 -57t-55 -23q-34 0 -57 23t-23 57zM633 1591q0 32 24 55t56 23t55 -23t23 -55q0 -34 -23 -57t-55 -23q-34 0 -57 23t-23 57z" />
<glyph unicode="&#xcc;" horiz-adv-x="456" d="M-27 1671l93 64l223 -222l-72 -53zM186 0v1366h88v-1366h-88z" />
<glyph unicode="&#xcd;" horiz-adv-x="456" d="M176 1513l225 222l91 -64l-244 -211zM184 0v1366h88v-1366h-88z" />
<glyph unicode="&#xce;" horiz-adv-x="456" d="M-6 1520l235 215l234 -215l-70 -58l-164 154l-166 -154zM184 0v1366h88v-1366h-88z" />
<glyph unicode="&#xcf;" horiz-adv-x="456" d="M29 1591q0 32 24 55t56 23t54.5 -23t22.5 -55q0 -34 -22.5 -57t-54.5 -23q-34 0 -57 23t-23 57zM184 0v1366h88v-1366h-88zM287 1591q0 32 24 55t56 23t54.5 -23t22.5 -55t-23 -56t-54 -24q-33 0 -56.5 23.5t-23.5 56.5z" />
<glyph unicode="&#xd0;" horiz-adv-x="1263" d="M47 702v82h137v582h271q159 0 280 -45.5t219 -142.5q97 -97 149 -225.5t52 -270.5q0 -141 -52 -269t-149 -223q-98 -98 -219 -144t-280 -46h-271v702h-137zM272 82h181q258 0 426 158q89 83 136.5 197.5t47.5 244.5q0 264 -171 433t-439 169h-181v-500h342v-82h-342v-620 z" />
<glyph unicode="&#xd1;" horiz-adv-x="1603" d="M184 0v1380l1147 -1200v1186h88v-1401l-1147 1200v-1165h-88zM563 1548q31 68 64 95.5t82 27.5q47 0 127 -35q81 -37 116 -37q29 0 46 16.5t38 61.5l58 -45q-40 -123 -146 -123q-43 0 -121 33q-96 39 -125 39t-45 -16.5t-34 -61.5z" />
<glyph unicode="&#xd2;" horiz-adv-x="1634" d="M109 692q0 136 57.5 264t153 221.5t226 150t269.5 56.5q190 0 353.5 -95t259.5 -257t96 -350q0 -190 -96 -352.5t-260.5 -257.5t-356.5 -95q-142 0 -272 57t-224 153.5t-150 228.5t-56 276zM201 690q0 -280 198 -463q87 -78 195.5 -122t216.5 -44q168 0 311 83.5 t226.5 226.5t83.5 311q0 166 -83.5 308.5t-226 226t-307.5 83.5q-122 0 -235.5 -49.5t-196.5 -131.5t-132.5 -195t-49.5 -234zM571 1671l95 64l249 -222l-71 -53z" />
<glyph unicode="&#xd3;" horiz-adv-x="1634" d="M109 692q0 136 57.5 264t153 221.5t226 150t269.5 56.5q190 0 353.5 -95t259.5 -257t96 -350q0 -190 -96 -352.5t-260.5 -257.5t-356.5 -95q-142 0 -272 57t-224 153.5t-150 228.5t-56 276zM201 690q0 -280 198 -463q87 -78 195.5 -122t216.5 -44q168 0 311 83.5 t226.5 226.5t83.5 311q0 166 -83.5 308.5t-226 226t-307.5 83.5q-122 0 -235.5 -49.5t-196.5 -131.5t-132.5 -195t-49.5 -234zM756 1513l250 222l94 -64l-273 -211z" />
<glyph unicode="&#xd4;" horiz-adv-x="1634" d="M109 692q0 136 57.5 264t153 221.5t226 150t269.5 56.5q190 0 353.5 -95t259.5 -257t96 -350q0 -190 -96 -352.5t-260.5 -257.5t-356.5 -95q-142 0 -272 57t-224 153.5t-150 228.5t-56 276zM201 690q0 -280 198 -463q87 -78 195.5 -122t216.5 -44q168 0 311 83.5 t226.5 226.5t83.5 311q0 166 -83.5 308.5t-226 226t-307.5 83.5q-122 0 -235.5 -49.5t-196.5 -131.5t-132.5 -195t-49.5 -234zM567 1520l256 215l254 -215l-73 -58l-181 154l-182 -154z" />
<glyph unicode="&#xd5;" horiz-adv-x="1634" d="M109 692q0 136 57.5 264t153 221.5t226 150t269.5 56.5q190 0 353.5 -95t259.5 -257t96 -350q0 -190 -96 -352.5t-260.5 -257.5t-356.5 -95q-142 0 -272 57t-224 153.5t-150 228.5t-56 276zM201 690q0 -280 198 -463q87 -78 195.5 -122t216.5 -44q168 0 311 83.5 t226.5 226.5t83.5 311q0 166 -83.5 308.5t-226 226t-307.5 83.5q-122 0 -235.5 -49.5t-196.5 -131.5t-132.5 -195t-49.5 -234zM586 1548q31 68 63.5 95.5t81.5 27.5q47 0 127 -35q81 -37 117 -37q29 0 46 16.5t38 61.5l57 -45q-40 -123 -145 -123q-43 0 -121 33 q-96 39 -125 39t-46 -16.5t-34 -61.5z" />
<glyph unicode="&#xd6;" horiz-adv-x="1634" d="M109 692q0 136 57.5 264t153 221.5t226 150t269.5 56.5q190 0 353.5 -95t259.5 -257t96 -350q0 -190 -96 -352.5t-260.5 -257.5t-356.5 -95q-142 0 -272 57t-224 153.5t-150 228.5t-56 276zM201 690q0 -280 198 -463q87 -78 195.5 -122t216.5 -44q168 0 311 83.5 t226.5 226.5t83.5 311q0 166 -83.5 308.5t-226 226t-307.5 83.5q-122 0 -235.5 -49.5t-196.5 -131.5t-132.5 -195t-49.5 -234zM547 1591q0 32 24 55t56 23t55 -23t23 -55q0 -34 -23 -57t-55 -23q-34 0 -57 23t-23 57zM928 1591q0 32 24 55t56 23t54.5 -23t22.5 -55 q0 -34 -22.5 -57t-54.5 -23q-34 0 -57 23t-23 57z" />
<glyph unicode="&#xd7;" d="M158 350l346 346l-346 346l55 58l346 -348l348 348l56 -58l-347 -346l347 -346l-56 -55l-348 346l-346 -346z" />
<glyph unicode="&#xd8;" horiz-adv-x="1634" d="M109 684q0 139 57 268.5t152 224t225.5 151t271.5 56.5q256 0 461 -172l166 166l55 -53l-164 -166q191 -209 191 -479q0 -140 -57 -270t-152.5 -225t-226 -151.5t-271.5 -56.5q-256 0 -477 187l-166 -172l-51 55l162 170q-176 204 -176 467zM201 682q0 -232 149 -406 l862 877q-176 147 -397 147q-164 0 -306 -84t-225 -226.5t-83 -307.5zM403 221q186 -160 414 -160q164 0 306 84t225.5 227t83.5 308q0 243 -164 422z" />
<glyph unicode="&#xd9;" horiz-adv-x="1296" d="M184 487v879h88v-854q0 -126 10.5 -187.5t39.5 -105.5q44 -69 135.5 -113.5t189.5 -44.5q100 0 192 44.5t136 113.5q29 44 39 105t10 188v854h88v-879q0 -135 -14.5 -199.5t-57.5 -123.5q-62 -86 -167.5 -136.5t-225.5 -50.5q-119 0 -224.5 50.5t-166.5 136.5 q-42 60 -57 125t-15 198zM406 1671l94 64l250 -222l-72 -53z" />
<glyph unicode="&#xda;" horiz-adv-x="1296" d="M184 487v879h88v-854q0 -126 10.5 -187.5t39.5 -105.5q44 -69 135.5 -113.5t189.5 -44.5q100 0 192 44.5t136 113.5q29 44 39 105t10 188v854h88v-879q0 -135 -14.5 -199.5t-57.5 -123.5q-62 -86 -167.5 -136.5t-225.5 -50.5q-119 0 -224.5 50.5t-166.5 136.5 q-42 60 -57 125t-15 198zM596 1513l250 222l94 -64l-272 -211z" />
<glyph unicode="&#xdb;" horiz-adv-x="1296" d="M184 487v879h88v-854q0 -126 10.5 -187.5t39.5 -105.5q44 -69 135.5 -113.5t189.5 -44.5q100 0 192 44.5t136 113.5q29 44 39 105t10 188v854h88v-879q0 -135 -14.5 -199.5t-57.5 -123.5q-62 -86 -167.5 -136.5t-225.5 -50.5q-119 0 -224.5 50.5t-166.5 136.5 q-42 60 -57 125t-15 198zM408 1520l256 215l254 -215l-74 -58l-180 154l-183 -154z" />
<glyph unicode="&#xdc;" horiz-adv-x="1296" d="M184 487v879h88v-854q0 -126 10.5 -187.5t39.5 -105.5q44 -69 135.5 -113.5t189.5 -44.5q100 0 192 44.5t136 113.5q29 44 39 105t10 188v854h88v-879q0 -135 -14.5 -199.5t-57.5 -123.5q-62 -86 -167.5 -136.5t-225.5 -50.5q-119 0 -224.5 50.5t-166.5 136.5 q-42 60 -57 125t-15 198zM393 1591q0 32 24 55t56 23t55 -23t23 -55q0 -34 -23 -57t-55 -23q-34 0 -57 23t-23 57zM774 1591q0 32 24 55t56 23t55 -23t23 -55q0 -34 -23 -57t-55 -23q-34 0 -57 23t-23 57z" />
<glyph unicode="&#xdd;" horiz-adv-x="1052" d="M27 1366h102l389 -686l400 686h104l-461 -782v-584h-88v584zM459 1513l250 222l94 -64l-273 -211z" />
<glyph unicode="&#xde;" horiz-adv-x="911" d="M184 0v1366h88v-205h174q105 0 176 -24.5t123 -79.5q99 -104 99 -254q0 -167 -105.5 -263t-289.5 -96h-177v-444h-88zM272 526h179q137 0 219 75.5t82 201.5q0 127 -74 201q-75 75 -240 75h-166v-553z" />
<glyph unicode="&#xdf;" horiz-adv-x="1007" d="M57 760v76h88v362q0 156 78 234q38 40 97 63t122 23q127 0 210 -82.5t83 -208.5q0 -178 -160 -252q66 -24 103.5 -44.5t71.5 -51.5q73 -64 118 -169t45 -210q0 -120 -57 -228.5t-160 -181.5q-62 -43 -123 -65.5t-149 -34.5v84q184 26 294.5 143.5t110.5 286.5 q0 106 -49 200.5t-133 149.5q-82 57 -223 78v72q53 5 82 13t55 27q41 28 65.5 78.5t24.5 106.5q0 94 -59.5 153.5t-153.5 59.5q-56 0 -102.5 -21.5t-69.5 -58.5q-39 -56 -39 -193v-1169h-82v760h-88z" />
<glyph unicode="&#xe0;" horiz-adv-x="1054" d="M92 422q0 191 114 311.5t294 120.5q205 0 327 -164v146h82v-836h-82v150q-113 -173 -325 -173q-178 0 -294 125.5t-116 319.5zM176 426q0 -161 93.5 -267t234.5 -106q145 0 237.5 105t92.5 268q0 172 -105 264q-101 88 -225 88q-138 0 -233 -101.5t-95 -250.5zM336 1190 l86 55l188 -256l-61 -33z" />
<glyph unicode="&#xe1;" horiz-adv-x="1054" d="M92 422q0 191 114 311.5t294 120.5q205 0 327 -164v146h82v-836h-82v150q-113 -173 -325 -173q-178 0 -294 125.5t-116 319.5zM176 426q0 -161 93.5 -267t234.5 -106q145 0 237.5 105t92.5 268q0 172 -105 264q-101 88 -225 88q-138 0 -233 -101.5t-95 -250.5zM463 989 l186 256l88 -55l-215 -234z" />
<glyph unicode="&#xe2;" horiz-adv-x="1054" d="M92 422q0 191 114 311.5t294 120.5q205 0 327 -164v146h82v-836h-82v150q-113 -173 -325 -173q-178 0 -294 125.5t-116 319.5zM176 426q0 -161 93.5 -267t234.5 -106q145 0 237.5 105t92.5 268q0 172 -105 264q-101 88 -225 88q-138 0 -233 -101.5t-95 -250.5zM264 1008 l250 233l248 -233l-66 -52l-182 179l-182 -179z" />
<glyph unicode="&#xe3;" horiz-adv-x="1054" d="M92 422q0 191 114 311.5t294 120.5q205 0 327 -164v146h82v-836h-82v150q-113 -173 -325 -173q-178 0 -294 125.5t-116 319.5zM176 426q0 -161 93.5 -267t234.5 -106q145 0 237.5 105t92.5 268q0 172 -105 264q-101 88 -225 88q-138 0 -233 -101.5t-95 -250.5zM305 1042 q52 119 141 119q32 0 59 -9.5t120 -51.5q30 -15 57 -15q26 0 46 18t40 60l51 -39q-38 -118 -143 -118q-38 0 -111 32q-100 45 -129 45q-52 0 -78 -79z" />
<glyph unicode="&#xe4;" horiz-adv-x="1054" d="M92 422q0 191 114 311.5t294 120.5q205 0 327 -164v146h82v-836h-82v150q-113 -173 -325 -173q-178 0 -294 125.5t-116 319.5zM176 426q0 -161 93.5 -267t234.5 -106q145 0 237.5 105t92.5 268q0 172 -105 264q-101 88 -225 88q-138 0 -233 -101.5t-95 -250.5zM287 1085 q0 31 22 52.5t53 21.5t52.5 -21.5t21.5 -52.5t-22 -53t-52 -22q-31 0 -53 22t-22 53zM627 1085q0 29 22.5 51.5t52.5 22.5t52 -22t22 -52q0 -31 -22 -53t-52 -22q-32 0 -53.5 22t-21.5 53z" />
<glyph unicode="&#xe5;" horiz-adv-x="1054" d="M92 422q0 191 114 311.5t294 120.5q205 0 327 -164v146h82v-836h-82v150q-113 -173 -325 -173q-178 0 -294 125.5t-116 319.5zM176 426q0 -161 93.5 -267t234.5 -106q145 0 237.5 105t92.5 268q0 172 -105 264q-101 88 -225 88q-138 0 -233 -101.5t-95 -250.5zM377 1114 q0 63 46 109.5t109 46.5q66 0 112 -45.5t46 -110.5t-45.5 -111.5t-109.5 -46.5q-66 0 -112 46.5t-46 111.5zM449 1114q0 -35 25.5 -60.5t60.5 -25.5q34 0 58.5 25t24.5 59q0 35 -25.5 59.5t-60.5 24.5q-34 0 -58.5 -25t-24.5 -57z" />
<glyph unicode="&#xe6;" horiz-adv-x="1624" d="M92 238q0 119 101.5 191.5t267.5 72.5q84 0 144.5 -20t117.5 -66q0 177 -75 269.5t-216 92.5q-65 0 -126 -17t-156 -61v84q146 70 290 70q244 0 334 -233q24 47 41 72.5t43 49.5q51 51 125.5 81t149.5 30q111 0 206 -59t142 -158q45 -91 53 -231h-719q3 -106 41 -181 q40 -78 115.5 -125t163.5 -47q57 0 114.5 21.5t100.5 58.5q39 37 86 111l69 -49q-147 -218 -370 -218q-114 0 -205.5 55.5t-138.5 153.5q-32 -100 -123.5 -154.5t-225.5 -54.5q-152 0 -251 73.5t-99 187.5zM176 240q0 -86 70.5 -136.5t193.5 -50.5q126 0 202.5 52.5 t76.5 140.5q0 82 -72.5 131t-193.5 49q-126 0 -201.5 -50.5t-75.5 -135.5zM821 483h619q-13 85 -49 144q-41 68 -113.5 109.5t-149.5 41.5q-119 0 -203 -81t-104 -214z" />
<glyph unicode="&#xe7;" horiz-adv-x="903" d="M92 410q0 190 123.5 317t308.5 127q84 0 151.5 -24.5t139.5 -81.5v-109q-73 75 -141 107t-152 32q-145 0 -245.5 -106t-100.5 -258q0 -151 100.5 -256t245.5 -105q169 0 303 152v-111q-140 -117 -303 -117q-183 0 -306.5 125t-123.5 308zM295 -358l168 262l92 -43 l-197 -252z" />
<glyph unicode="&#xe8;" horiz-adv-x="991" d="M92 414q0 189 116.5 314.5t291.5 125.5q177 0 286.5 -122.5t112.5 -323.5h-717q3 -117 45 -189q41 -75 118 -120.5t163 -45.5q57 0 113.5 21.5t97.5 58.5q38 35 84 113l69 -41q-129 -228 -370 -228q-177 0 -293.5 124t-116.5 313zM188 485h617q-25 133 -108.5 213 t-198.5 80q-117 0 -204 -82.5t-106 -210.5zM307 1190l86 55l189 -256l-62 -33z" />
<glyph unicode="&#xe9;" horiz-adv-x="991" d="M92 414q0 189 116.5 314.5t291.5 125.5q177 0 286.5 -122.5t112.5 -323.5h-717q3 -117 45 -189q41 -75 118 -120.5t163 -45.5q57 0 113.5 21.5t97.5 58.5q38 35 84 113l69 -41q-129 -228 -370 -228q-177 0 -293.5 124t-116.5 313zM188 485h617q-25 133 -108.5 213 t-198.5 80q-117 0 -204 -82.5t-106 -210.5zM451 989l186 256l88 -55l-215 -234z" />
<glyph unicode="&#xea;" horiz-adv-x="991" d="M92 414q0 189 116.5 314.5t291.5 125.5q177 0 286.5 -122.5t112.5 -323.5h-717q3 -117 45 -189q41 -75 118 -120.5t163 -45.5q57 0 113.5 21.5t97.5 58.5q38 35 84 113l69 -41q-129 -228 -370 -228q-177 0 -293.5 124t-116.5 313zM188 485h617q-25 133 -108.5 213 t-198.5 80q-117 0 -204 -82.5t-106 -210.5zM262 1008l250 233l248 -233l-66 -52l-182 179l-182 -179z" />
<glyph unicode="&#xeb;" horiz-adv-x="991" d="M92 414q0 189 116.5 314.5t291.5 125.5q177 0 286.5 -122.5t112.5 -323.5h-717q3 -117 45 -189q41 -75 118 -120.5t163 -45.5q57 0 113.5 21.5t97.5 58.5q38 35 84 113l69 -41q-129 -228 -370 -228q-177 0 -293.5 124t-116.5 313zM188 485h617q-25 133 -108.5 213 t-198.5 80q-117 0 -204 -82.5t-106 -210.5zM264 1085q0 31 22.5 52.5t53.5 21.5t52.5 -21.5t21.5 -52.5t-22 -53t-52 -22q-31 0 -53.5 22t-22.5 53zM604 1085q0 29 22.5 51.5t53.5 22.5q30 0 52 -22t22 -52q0 -31 -22 -53t-52 -22q-32 0 -54 22t-22 53z" />
<glyph unicode="&#xec;" horiz-adv-x="374" d="M-39 1190l86 55l189 -256l-62 -33zM145 0v836h82v-836h-82z" />
<glyph unicode="&#xed;" horiz-adv-x="374" d="M145 0v836h82v-836h-82zM145 989l187 256l88 -55l-215 -234z" />
<glyph unicode="&#xee;" horiz-adv-x="374" d="M-25 1008l211 233l211 -233l-65 -52l-146 170l-145 -170zM145 0v836h82v-836h-82z" />
<glyph unicode="&#xef;" horiz-adv-x="374" d="M2 1085q0 31 22.5 52.5t53.5 21.5t52.5 -21.5t21.5 -52.5t-22 -53t-52 -22q-31 0 -53.5 22t-22.5 53zM147 0v836h82v-836h-82zM238 1085q0 31 22 52.5t53 21.5t52.5 -21.5t21.5 -52.5t-22.5 -53t-51.5 -22q-31 0 -53 22t-22 53z" />
<glyph unicode="&#xf0;" horiz-adv-x="1058" d="M92 414q0 183 127 310.5t309 127.5q177 0 314 -131q-52 185 -130 310t-212 239l-217 -121l-37 65l182 103q-91 64 -274 125l36 57q184 -47 318 -137l219 113l39 -64l-186 -100q181 -150 285 -382.5t104 -484.5q0 -207 -121 -337t-313 -130q-187 0 -315 126t-128 311z M176 420q0 -155 100 -261t248 -106q152 0 255.5 104.5t103.5 258.5q0 152 -103 256t-254 104q-145 0 -247.5 -104t-102.5 -252z" />
<glyph unicode="&#xf1;" horiz-adv-x="901" d="M145 0v836h82v-131q51 79 110.5 114t143.5 35q74 0 137 -31.5t95 -85.5q41 -66 41 -211v-526h-82v526q0 120 -31 170q-22 38 -67.5 60t-102.5 22q-133 0 -199 -114q-25 -43 -35 -93.5t-10 -136.5v-434h-82zM219 1042q52 119 141 119q32 0 59 -9.5t120 -51.5 q30 -15 57 -15q26 0 46 18t40 60l51 -39q-38 -118 -143 -118q-38 0 -111 32q-100 45 -129 45q-52 0 -78 -79z" />
<glyph unicode="&#xf2;" horiz-adv-x="1058" d="M92 424q0 177 129 303.5t309 126.5q183 0 310 -127t127 -311q0 -185 -127.5 -312t-313.5 -127q-182 0 -308 130t-126 317zM176 422q0 -156 100.5 -262.5t247.5 -106.5q152 0 255.5 104.5t103.5 258.5q0 152 -103 257t-254 105q-145 0 -247.5 -104t-102.5 -252zM330 1190 l86 55l188 -256l-61 -33z" />
<glyph unicode="&#xf3;" horiz-adv-x="1058" d="M92 424q0 177 129 303.5t309 126.5q183 0 310 -127t127 -311q0 -185 -127.5 -312t-313.5 -127q-182 0 -308 130t-126 317zM176 422q0 -156 100.5 -262.5t247.5 -106.5q152 0 255.5 104.5t103.5 258.5q0 152 -103 257t-254 105q-145 0 -247.5 -104t-102.5 -252zM483 989 l187 256l88 -55l-215 -234z" />
<glyph unicode="&#xf4;" horiz-adv-x="1058" d="M92 424q0 177 129 303.5t309 126.5q183 0 310 -127t127 -311q0 -185 -127.5 -312t-313.5 -127q-182 0 -308 130t-126 317zM176 422q0 -156 100.5 -262.5t247.5 -106.5q152 0 255.5 104.5t103.5 258.5q0 152 -103 257t-254 105q-145 0 -247.5 -104t-102.5 -252zM287 1008 l250 233l247 -233l-65 -52l-182 179l-183 -179z" />
<glyph unicode="&#xf5;" horiz-adv-x="1058" d="M92 424q0 177 129 303.5t309 126.5q183 0 310 -127t127 -311q0 -185 -127.5 -312t-313.5 -127q-182 0 -308 130t-126 317zM176 422q0 -156 100.5 -262.5t247.5 -106.5q152 0 255.5 104.5t103.5 258.5q0 152 -103 257t-254 105q-145 0 -247.5 -104t-102.5 -252zM313 1042 q52 119 142 119q31 0 58 -9.5t120 -51.5q30 -15 57 -15q26 0 46 18t40 60l51 -39q-38 -118 -143 -118q-38 0 -111 32q-100 45 -129 45q-51 0 -77 -79z" />
<glyph unicode="&#xf6;" horiz-adv-x="1058" d="M92 424q0 177 129 303.5t309 126.5q183 0 310 -127t127 -311q0 -185 -127.5 -312t-313.5 -127q-182 0 -308 130t-126 317zM176 422q0 -156 100.5 -262.5t247.5 -106.5q152 0 255.5 104.5t103.5 258.5q0 152 -103 257t-254 105q-145 0 -247.5 -104t-102.5 -252zM299 1085 q0 31 22.5 52.5t53.5 21.5t52.5 -21.5t21.5 -52.5t-22.5 -53t-51.5 -22q-31 0 -53.5 22t-22.5 53zM639 1085q0 29 22.5 51.5t53.5 22.5q29 0 51 -21.5t22 -52.5t-22 -53t-51 -22q-32 0 -54 22t-22 53z" />
<glyph unicode="&#xf7;" d="M63 655v82h992v-82h-992zM483 473q0 29 22.5 51.5t53.5 22.5t52.5 -21.5t21.5 -52.5t-22.5 -53.5t-51.5 -22.5q-31 0 -53.5 22.5t-22.5 53.5zM483 909q0 29 22.5 51.5t53.5 22.5t52.5 -21.5t21.5 -52.5t-22.5 -53t-51.5 -22q-31 0 -53.5 22t-22.5 53z" />
<glyph unicode="&#xf8;" horiz-adv-x="1058" d="M84 27l106 110q-98 119 -98 281q0 119 58 219.5t158.5 158.5t219.5 58q157 0 279 -98l111 110l51 -49l-111 -110q109 -121 109 -293q0 -183 -126.5 -310t-308.5 -127q-161 0 -292 111l-111 -113zM176 418q0 -129 74 -225l498 507q-103 78 -222 78q-146 0 -248 -104.5 t-102 -255.5zM297 141q104 -88 231 -88q149 0 252 105.5t103 257.5q0 134 -84 237z" />
<glyph unicode="&#xf9;" horiz-adv-x="892" d="M145 309v527h82v-498q0 -126 27 -184q23 -45 76 -73t114 -28q63 0 116.5 28t76.5 73q27 59 27 184v498h81v-527q0 -89 -13 -138.5t-48 -90.5q-40 -48 -104 -75.5t-136 -27.5q-70 0 -133.5 27.5t-103.5 75.5q-35 41 -48.5 91t-13.5 138zM248 1190l86 55l188 -256l-61 -33z " />
<glyph unicode="&#xfa;" horiz-adv-x="892" d="M145 309v527h82v-498q0 -126 27 -184q23 -45 76 -73t114 -28q63 0 116.5 28t76.5 73q27 59 27 184v498h81v-527q0 -89 -13 -138.5t-48 -90.5q-40 -48 -104 -75.5t-136 -27.5q-70 0 -133.5 27.5t-103.5 75.5q-35 41 -48.5 91t-13.5 138zM406 989l186 256l88 -55l-215 -234 z" />
<glyph unicode="&#xfb;" horiz-adv-x="892" d="M145 309v527h82v-498q0 -126 27 -184q23 -45 76 -73t114 -28q63 0 116.5 28t76.5 73q27 59 27 184v498h81v-527q0 -89 -13 -138.5t-48 -90.5q-40 -48 -104 -75.5t-136 -27.5q-70 0 -133.5 27.5t-103.5 75.5q-35 41 -48.5 91t-13.5 138zM203 1008l250 233l247 -233 l-65 -52l-182 179l-183 -179z" />
<glyph unicode="&#xfc;" horiz-adv-x="892" d="M145 309v527h82v-498q0 -126 27 -184q23 -45 76 -73t114 -28q63 0 116.5 28t76.5 73q27 59 27 184v498h81v-527q0 -89 -13 -138.5t-48 -90.5q-40 -48 -104 -75.5t-136 -27.5q-70 0 -133.5 27.5t-103.5 75.5q-35 41 -48.5 91t-13.5 138zM209 1085q0 31 22.5 52.5 t53.5 21.5t52 -21.5t21 -52.5t-22 -53t-51 -22q-31 0 -53.5 22t-22.5 53zM549 1085q0 29 22.5 51.5t53.5 22.5q29 0 51 -21.5t22 -52.5t-22 -53t-51 -22q-32 0 -54 22t-22 53z" />
<glyph unicode="&#xfd;" horiz-adv-x="876" d="M16 836h97l342 -742l311 742h94l-561 -1325h-92l205 475zM403 989l187 256l88 -55l-215 -234z" />
<glyph unicode="&#xfe;" horiz-adv-x="1054" d="M145 -489v1982h82v-807q117 168 326 168q178 0 294 -125t116 -317q0 -191 -114 -313t-292 -122q-204 0 -330 168v-634h-82zM221 408q0 -176 105 -265q101 -90 225 -90q138 0 233 102t95 251q0 161 -93 266.5t-235 105.5q-145 0 -237.5 -103.5t-92.5 -266.5z" />
<glyph unicode="&#xff;" horiz-adv-x="876" d="M16 836h97l342 -742l311 742h94l-561 -1325h-92l205 475zM207 1085q0 31 22.5 52.5t53.5 21.5t52 -21.5t21 -52.5t-22 -53t-51 -22q-31 0 -53.5 22t-22.5 53zM547 1085q0 29 22.5 51.5t53.5 22.5q29 0 51 -21.5t22 -52.5t-22 -53t-51 -22q-32 0 -54 22t-22 53z" />
<glyph unicode="&#x152;" horiz-adv-x="2193" d="M109 682q0 141 56.5 271t152 224t227 150.5t274.5 56.5q194 0 358 -99.5t255 -272.5v354h653v-82h-565v-496h551v-81h-551v-625h565v-82h-653v352q-91 -173 -255 -274t-356 -101q-142 0 -274 57t-227.5 152t-153 225.5t-57.5 270.5zM201 688q0 -278 205 -465 q86 -76 193.5 -119t211.5 -43q125 0 239.5 49.5t197.5 133t132.5 198.5t49.5 240q0 167 -82 309.5t-223 225.5t-306 83q-162 0 -305 -84t-228 -225.5t-85 -302.5z" />
<glyph unicode="&#x153;" horiz-adv-x="1777" d="M92 414q0 183 128 311.5t312 128.5q130 0 231 -63t161 -183q46 117 140.5 181.5t221.5 64.5q180 0 289.5 -120t112.5 -322h-717q3 -110 39 -181q41 -82 119 -130t169 -48q96 0 166.5 47.5t124.5 147.5l68 -41q-121 -230 -367 -230q-125 0 -219.5 64t-146.5 184 q-64 -121 -165.5 -184.5t-230.5 -63.5q-181 0 -308.5 127.5t-127.5 309.5zM176 418q0 -151 101.5 -258t246.5 -107q151 0 256 103.5t105 251.5q0 155 -104 262.5t-253 107.5q-145 0 -248.5 -105.5t-103.5 -254.5zM977 489h620q-25 138 -105.5 213.5t-203.5 75.5 q-124 0 -204.5 -74.5t-106.5 -214.5z" />
<glyph unicode="&#x178;" horiz-adv-x="1052" d="M27 1366h102l389 -686l400 686h104l-461 -782v-584h-88v584zM270 1591q0 32 24 55t56 23t55 -23t23 -55q0 -34 -23 -57t-55 -23q-34 0 -57 23t-23 57zM651 1591q0 32 24 55t56 23t55 -23t23 -55q0 -34 -23 -57t-55 -23q-34 0 -57 23t-23 57z" />
<glyph unicode="&#x2c6;" horiz-adv-x="1024" d="M262 1008l250 233l248 -233l-66 -52l-182 179l-182 -179z" />
<glyph unicode="&#x2dc;" horiz-adv-x="1024" d="M254 1042q52 119 141 119q31 0 58 -9.5t120 -51.5q30 -15 58 -15q26 0 46 18t40 60l51 -39q-38 -118 -143 -118q-38 0 -111 32q-100 45 -129 45q-52 0 -78 -79z" />
<glyph unicode="&#x2000;" horiz-adv-x="888" />
<glyph unicode="&#x2001;" horiz-adv-x="1776" />
<glyph unicode="&#x2002;" horiz-adv-x="888" />
<glyph unicode="&#x2003;" horiz-adv-x="1776" />
<glyph unicode="&#x2004;" horiz-adv-x="592" />
<glyph unicode="&#x2005;" horiz-adv-x="444" />
<glyph unicode="&#x2006;" horiz-adv-x="296" />
<glyph unicode="&#x2007;" horiz-adv-x="296" />
<glyph unicode="&#x2008;" horiz-adv-x="222" />
<glyph unicode="&#x2009;" horiz-adv-x="355" />
<glyph unicode="&#x200a;" horiz-adv-x="98" />
<glyph unicode="&#x2010;" horiz-adv-x="344" d="M0 383v82h344v-82h-344z" />
<glyph unicode="&#x2011;" horiz-adv-x="344" d="M0 383v82h344v-82h-344z" />
<glyph unicode="&#x2012;" horiz-adv-x="344" d="M0 383v82h344v-82h-344z" />
<glyph unicode="&#x2013;" d="M256 383v82h608v-82h-608z" />
<glyph unicode="&#x2014;" horiz-adv-x="1034" d="M0 383v82h1034v-82h-1034z" />
<glyph unicode="&#x2018;" horiz-adv-x="464" d="M129 1034l152 410l53 -21l-123 -413z" />
<glyph unicode="&#x2019;" horiz-adv-x="464" d="M129 1028l123 416l82 -25l-152 -409z" />
<glyph unicode="&#x201a;" horiz-adv-x="464" d="M129 -281l123 414l82 -24l-152 -410z" />
<glyph unicode="&#x201c;" horiz-adv-x="702" d="M129 1034l152 410l53 -21l-123 -413zM367 1034l151 410l53 -21l-122 -413z" />
<glyph unicode="&#x201d;" horiz-adv-x="702" d="M129 1028l123 416l82 -25l-152 -409zM367 1028l122 416l82 -25l-151 -409z" />
<glyph unicode="&#x201e;" horiz-adv-x="702" d="M129 -281l123 414l82 -24l-152 -410zM367 -281l122 414l82 -24l-151 -410z" />
<glyph unicode="&#x2022;" horiz-adv-x="1366" d="M401 692q0 120 83.5 202.5t205.5 82.5q114 0 196.5 -83.5t82.5 -199.5q0 -118 -83 -201t-200 -83t-201 83t-84 199z" />
<glyph unicode="&#x2026;" horiz-adv-x="1312" d="M143 61q0 31 22.5 52.5t53.5 21.5t52.5 -21.5t21.5 -52.5t-22.5 -53t-51.5 -22q-31 0 -53.5 22t-22.5 53zM580 61q0 31 22 52.5t53 21.5t52.5 -21.5t21.5 -52.5t-22.5 -53t-51.5 -22q-31 0 -53 22t-22 53zM1018 61q0 29 22.5 51.5t53.5 22.5t52 -21.5t21 -52.5t-22 -53 t-51 -22q-31 0 -53.5 22t-22.5 53z" />
<glyph unicode="&#x202f;" horiz-adv-x="355" />
<glyph unicode="&#x2039;" horiz-adv-x="493" d="M68 424l264 305l51 -49l-217 -256l217 -258l-51 -49z" />
<glyph unicode="&#x203a;" horiz-adv-x="493" d="M109 166l219 258l-219 256l51 49l264 -305l-264 -307z" />
<glyph unicode="&#x205f;" horiz-adv-x="444" />
<glyph unicode="&#x20ac;" horiz-adv-x="1478" d="M63 563l35 84h101q-2 20 -2 37q0 27 2 47h-136l35 84h113q33 162 133.5 292t248 203.5t312.5 73.5q141 0 272.5 -56t237.5 -161l-39 -88q-91 104 -215 162.5t-256 58.5q-141 0 -267.5 -62t-215 -173t-119.5 -250h961l-35 -84h-938q-2 -18 -2 -51q0 -21 2 -33h901l-35 -84 h-856q25 -140 113 -255t218 -181t273 -66q132 0 256 58.5t215 163.5v-125q-209 -181 -471 -181q-255 0 -453.5 167t-244.5 419h-144z" />
<glyph unicode="&#x2122;" horiz-adv-x="1476" d="M2 1294v72h465v-72h-197v-706h-75v706h-193zM547 588l92 842l332 -713l336 710l92 -839h-76l-63 567l-289 -612l-287 612l-61 -567h-76z" />
<glyph unicode="&#x25fc;" horiz-adv-x="839" d="M0 0v840h840v-840h-840z" />
</font>
</defs>
</svg>
