<?xml version="1.0" standalone="no"?>
<!DOCTYPE svg PUBLIC "-//W3C//DTD SVG 1.1//EN" "http://www.w3.org/Graphics/SVG/1.1/DTD/svg11.dtd" >
<svg xmlns="http://www.w3.org/2000/svg">
<metadata>
This is a custom SVG webfont generated by Fontspring.
</metadata>
<defs>
<font id="SanchezBold" horiz-adv-x="1263" >
<font-face units-per-em="2048" ascent="1536" descent="-512" />
<missing-glyph horiz-adv-x="491" />
<glyph unicode=" "  horiz-adv-x="491" />
<glyph unicode="&#x09;" horiz-adv-x="491" />
<glyph unicode="&#xa0;" horiz-adv-x="491" />
<glyph unicode="!" horiz-adv-x="440" d="M63 -40.5q0 65.5 45.5 111.5t111 46t111.5 -46t46 -111.5t-46 -112t-111.5 -46.5t-111 46.5t-45.5 112zM82 332v1196q0 29 29 28h215q29 0 28 -28v-1196q0 -29 -28 -29h-215q-29 0 -29 29z" />
<glyph unicode="&#x22;" horiz-adv-x="677" d="M63 1503q0 33 33 33h152q14 0 24.5 -9t8.5 -24l-17 -360q-4 -33 -33 -33h-120q-33 0 -33 33zM397 1503q0 33 33 33h154q33 0 32 -33l-18 -360q0 -33 -33 -33h-119q-33 0 -32 33z" />
<glyph unicode="#" horiz-adv-x="1265" d="M63 233v127q0 29 27 29h184l58 197h-135q-29 0 -29 28v127q0 29 29 29h188l55 188q6 29 37 29h170q29 0 21 -29l-56 -188h207l55 188q6 29 35 29h172q29 0 21 -29l-55 -188h129q29 0 28 -29v-127q0 -29 -28 -28h-183l-57 -197h135q29 0 29 -29v-127q0 -29 -29 -28h-186 l-56 -191q-10 -29 -36 -28h-170q-31 0 -21 28l53 191h-204l-56 -191q-6 -29 -35 -28h-172q-31 0 -20 28l55 191h-133q-27 -1 -27 28zM502 389h207l57 197h-207z" />
<glyph unicode="$" horiz-adv-x="1339" d="M63 92v418q0 29 27 29h234q29 0 28 -29v-21q0 -10 10.5 -33.5t36 -59.5t61.5 -67.5t98.5 -54t135.5 -22.5q104 0 166 45t62 121q0 74 -85 121t-206 77.5t-242 71.5t-206 133t-85 234q0 178 121 295.5t330 130.5v141q0 29 29 29h190q29 0 29 -29v-180q104 -25 168 -99 l-7 56q-4 29 29 28h203q27 0 27 -28v-416q0 -29 -27 -29h-234q-29 0 -28 29v12q-2 78 -77 146.5t-222 68.5q-96 0 -153.5 -43t-57.5 -112q0 -61 47 -105.5t123 -71t168 -50t184 -54.5t168 -73t123 -116.5t47 -174.5q0 -168 -113.5 -288t-341.5 -134v-135q0 -29 -28 -29h-191 q-29 0 -29 29v163q-100 25 -165.5 71t-87.5 83h-5l5 -78q4 -29 -29 -29h-203q-27 0 -27 29z" />
<glyph unicode="%" horiz-adv-x="1652" d="M63 1114q0 174 88.5 271.5t225.5 97.5q139 0 225 -97.5t86 -271.5q0 -180 -84 -279.5t-227.5 -99.5t-228.5 99.5t-85 279.5zM242 1110q0 -98 35.5 -152.5t99.5 -54.5q131 0 131 207t-131 207q-135 0 -135 -207zM428 -123l483 1651q6 29 35 28h217q27 0 21 -28l-484 -1651 q-10 -29 -36 -29h-215q-23 0 -24 17q0 5 3 12zM967 365q0 174 88 271t225 97q139 0 225 -97t86 -271q0 -180 -84 -279.5t-227 -99.5t-228 99.5t-85 279.5zM1145 360q0 -98 36 -152t99 -54q131 0 131 206.5t-131 206.5q-135 0 -135 -207z" />
<glyph unicode="&#x26;" horiz-adv-x="1398" d="M57 406q0 279 326 421q-127 150 -127 297q0 160 102.5 259.5t274.5 99.5t276.5 -93.5t104.5 -254.5q0 -219 -291 -381l188 -262q25 74 25 235q0 29 29 29h340q29 0 28 -29v-127q0 -29 -28 -29h-150q-14 -158 -90 -290l43 -62h145q29 0 29 -29v-161q0 -29 -29 -29h-225 q-47 2 -96 76l-19 26q-143 -117 -338 -116q-242 0 -380 122t-138 298zM350 422q0 -94 63.5 -148.5t166.5 -54.5q117 0 198 68l-258 356q-170 -92 -170 -221zM514 1114q0 -90 90 -199q82 41 125 87.5t43 119.5q0 55 -33.5 93t-91.5 38q-61 0 -97 -38t-36 -101z" />
<glyph unicode="'" horiz-adv-x="344" d="M63 1503q0 33 33 33h152q33 0 33 -33l-17 -360q-4 -33 -33 -33h-120q-33 0 -33 33z" />
<glyph unicode="(" horiz-adv-x="849" d="M63 719q0 174 42 319.5t112 241.5t161 161.5t185 95.5t191 30q33 0 32 -33v-188q0 -33 -32 -33q-162 0 -295 -160t-133 -440.5t134 -440t294 -159.5q33 0 32 -33v-189q0 -35 -32 -34q-121 0 -239 51t-221.5 150.5t-167 271.5t-63.5 389z" />
<glyph unicode=")" horiz-adv-x="849" d="M63 80q0 33 33 33q160 0 293 158.5t133 441.5q0 279 -132 438.5t-294 159.5q-33 0 -33 32v191q0 33 33 33q96 0 190.5 -30t185.5 -95.5t160.5 -161.5t111.5 -241.5t42 -319.5q0 -217 -63.5 -389t-166.5 -271.5t-221 -150.5t-239 -51q-33 0 -33 32v191z" />
<glyph unicode="*" horiz-adv-x="841" d="M63 1145v110q0 16 9.5 26.5t23.5 6.5l217 -47l-186 127q-10 8 -10 22.5t10 24.5l80 78q10 10 23.5 11t21.5 -11l127 -182l-47 217q-2 12 8 22.5t25 10.5h110q14 0 25.5 -10.5t7.5 -22.5l-39 -219l119 184q8 12 22.5 11t24.5 -11l80 -78q10 -8 10 -23.5t-12 -23.5 l-181 -127l213 49q14 2 24.5 -8t10.5 -25v-112q0 -14 -10 -24.5t-25 -8.5l-213 37l181 -115q27 -16 0 -47l-78 -78q-8 -12 -23.5 -12t-23.5 12l-123 178l43 -210q4 -12 -7.5 -22.5t-25.5 -10.5h-110q-14 0 -24.5 10t-8.5 23l39 215l-117 -183q-8 -12 -23.5 -12t-23.5 10 l-78 80q-10 10 -11 24.5t11 22.5l186 119l-219 -41q-12 -2 -22.5 8.5t-10.5 24.5z" />
<glyph unicode="+" horiz-adv-x="800" d="M63 420v188q0 33 33 33h174v182q0 29 29 29h215q29 0 29 -29v-182h162q33 0 32 -33v-188q0 -33 -32 -33h-162v-160q0 -29 -29 -28h-215q-29 0 -29 28v160h-174q-33 0 -33 33z" />
<glyph unicode="," horiz-adv-x="380" d="M53 110.5q0 53.5 38 91.5t91 38q68 0 107 -50.5t39 -138.5q0 -260 -193 -260q-16 0 -16 12v58q0 12 16 12q33 0 58.5 23.5t25.5 66.5l-4 29q-12 -8 -37 -8q-53 0 -89 36.5t-36 90z" />
<glyph unicode="-" horiz-adv-x="862" d="M63 446v189q0 33 33 33h670q33 0 33 -33v-189q0 -33 -33 -32h-670q-33 -1 -33 32z" />
<glyph unicode="." horiz-adv-x="364" d="M53 112.5q0 53.5 38 91.5t91.5 38t91 -38t37.5 -91.5t-37.5 -91t-91 -37.5t-91.5 37.5t-38 91z" />
<glyph unicode="/" horiz-adv-x="884" d="M66 -123l481 1651q10 29 37 28h215q23 0 23 -16q0 -5 -3 -12l-481 -1651q-10 -29 -37 -29h-215q-23 0 -23 17q0 5 3 12z" />
<glyph unicode="0" horiz-adv-x="1374" d="M63 743q0 350 175.5 545t453.5 195q276 0 447.5 -194.5t171.5 -545.5q0 -360 -167 -558.5t-452 -198.5q-287 0 -458 198.5t-171 558.5zM369 737q0 -233 86 -359t237 -126q150 0 231 123t81 362q0 238 -80 363t-233.5 125t-237.5 -128.5t-84 -359.5z" />
<glyph unicode="1" horiz-adv-x="1118" d="M70 1149q-6 9 -6 18q0 12 12 23l389 270q12 10 29 10h221q29 0 28 -28v-1198h285q29 0 29 -29v-186q0 -29 -29 -29h-889q-29 0 -28 29v186q0 29 28 29h318v913l-240 -168q-23 -16 -41 6z" />
<glyph unicode="2" horiz-adv-x="1277" d="M63 29v106q0 150 60.5 261.5t151 172t195.5 112.5t195.5 88t151 93.5t60.5 132.5q0 98 -71 163t-183 65q-123 0 -194 -69t-71 -173q0 -29 -28 -29h-234q-29 0 -28 29q0 217 144 359.5t411 142.5q270 0 415.5 -135.5t145.5 -323.5q0 -143 -76 -246.5t-186.5 -162 t-223 -107.5t-200.5 -114.5t-105 -149.5h533v137q0 29 28 29h232q29 0 28 -29v-352q0 -29 -28 -29h-1096q-27 0 -27 29z" />
<glyph unicode="3" horiz-adv-x="1247" d="M74 238q-9 11 -9 20q0 11 11 21l162 149q23 20 38 -2q55 -55 81 -78.5t100.5 -59.5t154.5 -36q117 0 191 55t74 146q0 174 -258 174h-107q-29 0 -29 26v170q0 27 29 27h74q102 0 179 42t77 144q0 80 -57.5 133.5t-165.5 53.5q-100 0 -159 -55.5t-59 -137.5q0 -29 -28 -29 h-221q-29 0 -29 29q0 215 127 334t371 119q137 0 242.5 -39t164.5 -101.5t89 -130t30 -135t-20.5 -126t-50 -93.5t-62.5 -60.5t-55.5 -35.5t-30.5 -10v-4q12 0 37.5 -8.5t63.5 -32t72 -59.5t58.5 -100.5t24.5 -144.5q0 -186 -157 -301.5t-413 -115.5q-72 0 -136 9 t-115.5 30.5t-88 38t-74.5 49t-53.5 46t-44.5 46.5z" />
<glyph unicode="4" horiz-adv-x="1253" d="M63 471v139q0 41 33 82l615 754q20 25 47 24h213q29 0 28 -28v-770h156q29 0 29 -29v-172q0 -29 -29 -29h-156v-198h162q29 0 29 -29v-186q0 -29 -29 -29h-723q-29 0 -28 29v186q0 29 28 29h277v198h-623q-29 0 -29 29zM356 672h359v434z" />
<glyph unicode="5" horiz-adv-x="1265" d="M74 238q-9 11 -9 20q0 11 11 21l162 149q23 20 38 -2l23 -23l26 -25q7 -7 26.5 -24.5t32.5 -26t34.5 -23.5t41 -22.5t44 -15.5t52.5 -11t56 -3q135 0 210 66.5t75 183.5q0 106 -74.5 172.5t-218.5 66.5q-109 0 -238.5 -37.5t-134.5 -37.5q-3 0 -6 -1q-51 0 -51 66v719 q0 29 29 29h891q27 0 26 -29v-330q0 -29 -26 -28h-234q-29 0 -29 28v115h-368v-299q152 29 219 29q256 0 389 -131.5t133 -350.5q0 -215 -160.5 -356t-429.5 -141q-55 0 -105 6t-93 19.5t-79 25.5t-70 33.5t-55.5 35t-48 39t-36.5 35.5t-30.5 33t-22.5 25z" />
<glyph unicode="6" horiz-adv-x="1288" d="M63 735q0 358 172.5 553t456.5 195q240 0 369 -117t129 -303q0 -29 -29 -29h-221q-29 0 -29 29q0 57 -60 109.5t-161 52.5q-262 0 -307 -338q164 78 330 78q256 0 384 -130t128 -352q0 -215 -150.5 -356t-417.5 -141q-272 0 -433 196.5t-161 552.5zM371 672 q10 -209 85.5 -314.5t198.5 -105.5q125 0 195 68.5t70 181.5q0 109 -71 174t-214 65q-135 1 -264 -69z" />
<glyph unicode="7" horiz-adv-x="1257" d="M63 1102v352q0 29 27 29h1077q29 0 29 -29v-113q-2 -143 -51 -261.5t-119 -212t-138.5 -198t-116.5 -267t-48 -371.5q0 -31 -29 -31h-231q-29 0 -29 29q0 197 31 352.5t76 247.5t100 175t103.5 138t83 133t40.5 164h-516v-137q0 -29 -28 -29h-234q-27 0 -27 29z" />
<glyph unicode="8" horiz-adv-x="1259" d="M63 430q0 80 23 145.5t53.5 103.5t65.5 63.5t59.5 34.5t34.5 9v7q-8 0 -27.5 7t-49 28.5t-55.5 53t-44.5 86t-18.5 122t29 133t87.5 126t165 97.5t245.5 37q264 0 395 -122t131 -271q0 -68 -18.5 -122.5t-44 -86t-55 -53t-49 -28.5t-27.5 -7v-7q10 0 33.5 -9t59.5 -34.5 t66.5 -63.5t53 -103.5t22.5 -145.5q0 -188 -157.5 -316t-407.5 -128q-254 0 -412 128t-158 316zM369 452.5q0 -90.5 73.5 -145.5t190.5 -55q115 2 186.5 56t71.5 144.5t-59.5 148.5t-176.5 58h-45q-121 0 -181 -58t-60 -148.5zM406 1044q0 -102 65.5 -145t157.5 -43 q227 0 227 188q0 78 -58.5 128.5t-168.5 50.5q-109 0 -166 -50.5t-57 -128.5z" />
<glyph unicode="9" horiz-adv-x="1286" d="M63 985q0 215 151 356.5t415 141.5q274 0 435 -196.5t161 -553t-174 -552t-455 -195.5q-240 0 -369 116.5t-129 303.5q0 29 29 28h221q29 0 29 -28q0 -57 60.5 -109.5t160.5 -52.5q129 0 207 87t100 251q-160 -78 -330 -78q-256 0 -384 130t-128 351zM369 967 q0 -109 70.5 -174.5t211.5 -65.5q131 0 267 70q-10 209 -86 314.5t-201 105.5t-193.5 -68.5t-68.5 -181.5z" />
<glyph unicode=":" horiz-adv-x="380" d="M63 112.5q0 53.5 37 91.5t90.5 38t91 -38t37.5 -91.5t-37.5 -91t-91 -37.5t-90.5 37.5t-37 91zM63 870.5q0 53.5 37 91t90.5 37.5t91 -37.5t37.5 -91t-37.5 -90.5t-91 -37t-90.5 37t-37 90.5z" />
<glyph unicode=";" horiz-adv-x="399" d="M63 110.5q0 53.5 37 91.5t90 38q68 0 107 -50.5t39 -138.5q0 -260 -193 -260q-16 0 -16 12v58q0 12 16 12q33 0 58.5 23.5t25.5 66.5l-4 29q-12 -8 -37 -8q-51 0 -87 36.5t-36 90zM63 870.5q0 53.5 37 91t90.5 37.5t91 -37.5t37.5 -91t-37.5 -90.5t-91 -37t-90.5 37 t-37 90.5z" />
<glyph unicode="&#x3c;" horiz-adv-x="903" d="M63 502v47q0 35 33 51l711 336q11 5 19 4q16 0 16 -20v-150q0 -37 -35 -51l-410 -195l410 -192q35 -14 35 -51v-150q0 -21 -16 -21q-8 0 -19 5l-711 336q-33 16 -33 51z" />
<glyph unicode="=" horiz-adv-x="899" d="M63 195v188q0 33 33 33h709q33 0 33 -33v-188q0 -33 -33 -33h-709q-33 0 -33 33zM63 674v188q0 33 33 33h709q33 0 33 -33v-188q0 -33 -33 -33h-709q-33 0 -33 33z" />
<glyph unicode="&#x3e;" horiz-adv-x="903" d="M63 131v150q0 39 33 51l410 192l-410 195q-33 12 -33 51v150q0 20 17 20q7 0 16 -4l711 -336q35 -18 35 -51v-47q0 -35 -35 -51l-711 -336q-10 -4 -16 -4q-17 0 -17 20z" />
<glyph unicode="?" horiz-adv-x="1239" d="M63 981q0 219 140.5 360.5t406.5 141.5q272 0 419 -131t147 -320q0 -98 -27 -176t-69 -126t-92 -88t-100 -73.5t-92 -69.5t-69 -90.5t-27 -123.5q0 -29 -28 -29h-266q-29 0 -29 29q0 100 26.5 180t70.5 130t96.5 92t104.5 74t96 64.5t70.5 77.5t26.5 101 q0 100 -69.5 159.5t-188.5 59.5q-123 0 -190.5 -68t-67.5 -174q0 -29 -28 -29h-234q-27 0 -27 29zM381 -40.5q0 65.5 46 111.5t111.5 46t111.5 -46t46 -111.5t-46 -112t-111.5 -46.5t-111.5 46.5t-46 112z" />
<glyph unicode="@" horiz-adv-x="1591" d="M63 471q0 338 240 573.5t565 235.5q303 0 482.5 -164t179.5 -405q0 -260 -150.5 -405.5t-345.5 -145.5h-41q-45 0 -65.5 18.5t-14.5 59.5l5 32q-6 -12 -22.5 -33.5t-69 -52t-111.5 -30.5q-113 0 -196 86t-83 262q0 190 118 309t282 119q115 0 163 -74l5 31q4 23 26 22h98 q25 0 21 -28l-68 -541h39q88 0 152.5 102.5t64.5 259.5q0 168 -125 269.5t-344 101.5q-264 0 -428 -179t-164 -423q0 -242 153 -381t370 -139q123 0 221 19.5t135 37.5l35 19q27 16 41 -13l57 -129q14 -27 -12 -37q-20 -12 -59 -29.5t-164 -47t-254 -29.5q-311 0 -523.5 205 t-212.5 524zM616 506q0 -88 45.5 -130t110.5 -42q51 0 105.5 44t60.5 95l25 201q-2 14 -9.5 32.5t-36 43t-73.5 24.5q-92 0 -160 -72.5t-68 -195.5z" />
<glyph unicode="A" horiz-adv-x="1685" d="M59 29v186q0 29 29 29h135l377 983h-137q-29 0 -29 28v187q0 29 29 28h395q61 0 92 -25.5t58 -90.5l434 -1110h135q29 0 29 -29v-186q0 -29 -29 -29h-557q-29 0 -29 29v186q0 29 29 29h133l-84 223h-475l-84 -223h135q29 0 29 -29v-186q0 -29 -29 -29h-557q-29 0 -29 29z M676 686h311l-149 408h-11z" />
<glyph unicode="B" horiz-adv-x="1388" d="M72 29v186q0 29 28 29h142v983h-142q-29 0 -28 28v187q0 29 28 28h691q201 0 324.5 -112.5t123.5 -294.5q0 -190 -162 -305q242 -84 242 -334q0 -424 -522 -424h-697q-28 0 -28 29zM526 244h238q127 0 196.5 52t69.5 153q0 94 -67.5 144t-192.5 50h-244v-399zM526 852 h207q94 2 155.5 48t61.5 134q0 100 -64.5 146.5t-166.5 46.5h-193v-375z" />
<glyph unicode="C" horiz-adv-x="1540" d="M72 743q0 176 58 319.5t156.5 233.5t224.5 138.5t263 48.5q281 0 408 -180l-4 139q-4 29 28 28h203q29 0 29 -28v-488q0 -29 -29 -28h-231q-29 0 -29 28v19q0 78 -101.5 157.5t-254.5 79.5q-176 0 -295 -124.5t-119 -348.5q0 -215 128 -343t300 -128q311 0 453 240 q14 27 40 10l156 -106q14 -10 14 -24q0 -9 -6 -19q-199 -381 -669 -381q-307 0 -515 205.5t-208 551.5z" />
<glyph unicode="D" horiz-adv-x="1490" d="M66 29v186q0 29 28 29h144v983h-144q-29 0 -28 28v187q0 29 28 28h568q326 0 539.5 -199.5t213.5 -547.5q0 -330 -192.5 -526.5t-479.5 -196.5h-649q-28 0 -28 29zM522 244h117q233 4 353 115.5t120 359.5q0 250 -126 379t-365 129h-99v-983z" />
<glyph unicode="E" horiz-adv-x="1335" d="M72 29v186q0 29 28 29h142v983h-142q-29 0 -28 28v187q0 29 28 28h1137q29 0 29 -28v-414q0 -29 -29 -29h-195q-29 0 -28 29v199h-488v-371h404q29 0 28 -29v-188q0 -29 -28 -29h-404v-366h488v196q0 29 28 29h195q29 0 29 -29v-411q0 -29 -29 -29h-1137q-28 0 -28 29z " />
<glyph unicode="F" horiz-adv-x="1320" d="M72 29v186q0 29 28 29h142v983h-142q-29 0 -28 28v187q0 29 28 28h1121q29 0 28 -28v-414q0 -29 -28 -29h-193q-29 0 -29 29v199h-473v-371h387q29 0 29 -29v-188q0 -29 -29 -29h-387v-366h248q29 0 29 -29v-186q0 -29 -29 -29h-674q-28 0 -28 29z" />
<glyph unicode="G" horiz-adv-x="1531" d="M72 743q0 178 59 321.5t158.5 232.5t225.5 137.5t263 48.5q287 0 404 -170l-4 129q-4 29 28 28h203q29 0 29 -28v-477q0 -29 -29 -29h-231q-29 0 -29 29v20q0 76 -100.5 150.5t-251.5 74.5q-178 0 -298 -128t-120 -345q0 -213 128 -342t302 -129q268 0 377 170v70h-363 q-29 0 -28 29v172q0 29 28 28h611q29 0 28 -28v-678q0 -29 -28 -29h-189q-29 0 -28 29v110q-154 -154 -420 -153q-311 0 -518 205.5t-207 551.5z" />
<glyph unicode="H" horiz-adv-x="1652" d="M72 29v186q0 29 28 29h142v983h-142q-29 0 -28 28v187q0 29 28 28h570q29 0 28 -28v-187q0 -29 -28 -28h-144v-379h600v379h-141q-29 0 -29 28v187q0 29 29 28h569q29 0 29 -28v-187q0 -29 -29 -28h-143v-983h143q29 0 29 -29v-186q0 -29 -29 -29h-569q-29 0 -29 29v186 q0 29 29 29h141v366h-600v-366h144q29 0 28 -29v-186q0 -29 -28 -29h-570q-28 0 -28 29z" />
<glyph unicode="I" horiz-adv-x="768" d="M72 29v186q0 29 28 29h142v983h-142q-29 0 -28 28v187q0 29 28 28h570q29 0 28 -28v-187q0 -29 -28 -28h-144v-983h144q29 0 28 -29v-186q0 -29 -28 -29h-570q-28 0 -28 29z" />
<glyph unicode="J" horiz-adv-x="987" d="M72 29v188q0 29 28 29q199 0 279 86t80 258v637h-142q-29 0 -28 28v187q0 29 28 28h570q29 0 28 -28v-187q0 -29 -28 -28h-142v-619q0 -326 -158.5 -467t-486.5 -141q-28 0 -28 29z" />
<glyph unicode="K" horiz-adv-x="1554" d="M72 29v186q0 29 28 29h142v983h-142q-29 0 -28 28v187q0 29 28 28h527q29 0 28 -28v-187q0 -29 -28 -28h-101v-453h133q195 0 281 104.5t86 348.5h-133q-29 0 -29 28v187q0 29 29 28h553q29 0 29 -28v-187q0 -29 -29 -28h-135q0 -406 -234 -570q39 -20 63.5 -54t57.5 -99 l123 -260h131q29 0 29 -29v-186q0 -29 -29 -29h-248q-90 0 -147 123l-162 342q-12 25 -25.5 41t-44 29.5t-75.5 13.5h-224v-305h187q29 0 28 -29v-186q0 -29 -28 -29h-613q-28 0 -28 29z" />
<glyph unicode="L" horiz-adv-x="1314" d="M72 29v186q0 29 28 29h142v983h-142q-29 0 -28 28v187q0 29 28 28h564q33 0 32 -32v-178q0 -33 -32 -33h-138v-983h465v196q0 29 29 29h194q29 0 29 -29v-407q0 -33 -33 -33h-1110q-28 0 -28 29z" />
<glyph unicode="M" horiz-adv-x="1878" d="M72 29v186q0 29 28 29h142v983h-142q-29 0 -28 28v187q0 29 28 28h389q92 0 127 -96l226 -557l92 -256h10q49 135 96 254l226 559q37 96 127 96h387q29 0 28 -28v-187q0 -29 -28 -28h-142v-983h142q29 0 28 -29v-186q0 -29 -28 -29h-527q-29 0 -28 29v186q0 29 28 29h99 v721h-4l-285 -756q-31 -84 -123 -84t-123 84l-285 756h-6v-721h99q29 0 28 -29v-186q0 -29 -28 -29h-525q-28 0 -28 29z" />
<glyph unicode="N" horiz-adv-x="1652" d="M72 29v186q0 29 28 29h142v983h-142q-29 0 -28 28v187q0 29 28 28h359q33 0 58.5 -15t39.5 -32.5t33 -48.5l420 -672q25 -41 52.5 -93t43.5 -83l14 -30h6v731h-141q-29 0 -29 28v187q0 29 29 28h569q29 0 29 -28v-187q0 -29 -29 -28h-143v-1198q0 -29 -29 -29h-192 q-74 0 -129 84l-447 698l-82 148h-6v-686h144q29 0 28 -29v-186q0 -29 -28 -29h-570q-28 0 -28 29z" />
<glyph unicode="O" horiz-adv-x="1605" d="M72 743q0 176 62.5 319.5t167 233.5t233.5 138.5t268 48.5t269 -48.5t233.5 -138.5t166 -233t62.5 -320q0 -344 -207 -550.5t-524 -206.5q-311 0 -521 212.5t-210 544.5zM379 737q0 -215 124 -350t300 -135t300 135t124 350q0 223 -125 355.5t-299 132.5t-299 -132.5 t-125 -355.5z" />
<glyph unicode="P" horiz-adv-x="1349" d="M72 29v186q0 29 28 29h142v983h-142q-29 0 -28 28v187q0 29 28 28h674q221 0 363.5 -140t142.5 -357t-144.5 -343t-387.5 -126h-222v-260h181q29 0 28 -29v-186q0 -29 -28 -29h-607q-28 0 -28 29zM526 731h191q274 0 274 240q0 125 -75.5 190.5t-194.5 65.5h-195v-496z " />
<glyph unicode="Q" horiz-adv-x="1593" d="M72 743q0 176 62.5 319.5t167 233.5t233.5 138.5t268 48.5t269 -48.5t233.5 -138.5t166 -233t62.5 -320q0 -319 -179 -519.5t-466 -231.5l4 -4q6 -4 16.5 -10.5t25.5 -14.5t39.5 -16t53.5 -14.5t71 -10.5t87 -4q125 0 205 35q29 14 34 -10l54 -150q10 -25 -15 -35 q-123 -57 -293 -57q-121 0 -227 34t-172.5 82t-117 97t-70.5 82l-21 35q-221 70 -356 260t-135 452zM379 737q0 -213 123 -342t301 -129t301 128t123 343q0 223 -124 348t-300 125t-300 -125t-124 -348z" />
<glyph unicode="R" horiz-adv-x="1474" d="M72 29v186q0 29 28 29h142v983h-142q-29 0 -28 28v187q0 29 28 28h674q223 0 364.5 -129t141.5 -344q0 -291 -254 -393q43 -39 80 -110l135 -250h133q29 0 29 -29v-186q0 -29 -29 -29h-248q-88 0 -147 123l-162 332q-45 90 -125 92h-166v-303h174q29 0 29 -29v-186 q0 -29 -29 -29h-600q-28 0 -28 29zM526 774h181q143 0 213.5 50t70.5 165q0 238 -284 238h-181v-453z" />
<glyph unicode="S" horiz-adv-x="1355" d="M72 29v501q0 29 28 29h232q29 0 28 -29v-38q0 -6 8.5 -30t34 -60.5t61.5 -69.5t98.5 -56.5t139.5 -23.5q104 0 166 45t62 121q0 47 -36 82t-93.5 54t-131 40.5t-151.5 40t-151.5 53.5t-131 79t-93.5 117.5t-36 170.5q0 188 133.5 308t358.5 120q250 0 375 -140l-6 101 q-4 29 28 29h203q29 0 29 -29v-490q0 -29 -29 -28h-231q-29 0 -29 28v43q0 76 -77 144.5t-224 68.5q-96 0 -153.5 -43t-57.5 -112q0 -76 89 -124t215 -81t252 -76t215 -135t89 -229q0 -178 -127 -301t-381 -123q-125 0 -233.5 42t-152.5 77.5t-64 64.5l2 -141q4 -29 -29 -29 h-201q-28 0 -28 29z" />
<glyph unicode="T" horiz-adv-x="1474" d="M72 993v445q0 33 32 32h1266q33 0 33 -32v-445q0 -33 -33 -32h-205q-33 0 -32 32v234h-248v-983h133q33 0 33 -33v-178q0 -33 -33 -33h-557q-33 0 -33 33v178q0 33 33 33h137v983h-256v-234q0 -33 -33 -32h-205q-32 -1 -32 32z" />
<glyph unicode="U" horiz-adv-x="1636" d="M72 1255v187q0 29 28 28h570q29 0 28 -28v-187q0 -29 -28 -28h-144v-684q0 -291 295 -291q141 0 214 78t73 202v695h-141q-29 0 -29 28v187q0 29 29 28h569q29 0 29 -28v-187q0 -29 -29 -28h-141v-676q0 -274 -154 -419.5t-420 -145.5q-268 0 -423.5 145t-155.5 420v676 h-142q-28 -1 -28 28z" />
<glyph unicode="V" horiz-adv-x="1712" d="M72 1255v187q0 29 28 28h555q29 0 29 -28v-187q0 -29 -29 -28h-127l320 -842h16l318 842h-125q-29 0 -29 28v187q0 29 29 28h557q29 0 28 -28v-187q0 -29 -28 -28h-129l-434 -1112q-25 -66 -52.5 -90.5t-85.5 -24.5h-112q-57 0 -86 25.5t-53 89.5l-437 1112h-125 q-28 -1 -28 28z" />
<glyph unicode="W" horiz-adv-x="2246" d="M63 1255v187q0 29 27 28h557q29 0 29 -28v-187q0 -29 -29 -28h-135l209 -842h16l254 1085h256l258 -1085h17l207 842h-136q-29 0 -28 28v187q0 29 28 28h557q29 0 29 -28v-187q0 -29 -29 -28h-120l-322 -1112q-16 -63 -48 -89t-91 -26h-111q-61 0 -93 25.5t-46 89.5 l-195 835h-12l-188 -835q-14 -63 -47 -89t-93 -26h-110q-59 0 -91 25.5t-51 89.5l-321 1112h-121q-27 -1 -27 28z" />
<glyph unicode="X" horiz-adv-x="1642" d="M72 29v186q0 29 28 29h152l397 493l-397 490h-152q-29 0 -28 28v187q0 29 28 28h570q29 0 28 -28v-187q0 -29 -28 -28h-111l258 -332l258 332h-102q-29 0 -29 28v187q0 29 29 28h569q29 0 29 -28v-187q0 -29 -29 -28h-160l-395 -490l393 -493h156q29 0 29 -29v-186 q0 -29 -29 -29h-569q-29 0 -29 29v186q0 29 29 29h106l-254 336l-260 -336h111q29 0 28 -29v-186q0 -29 -28 -29h-570q-28 0 -28 29z" />
<glyph unicode="Y" horiz-adv-x="1591" d="M72 1255v187q0 29 28 28h555q29 0 29 -28v-187q0 -29 -29 -28h-114l243 -412h19l246 412h-115q-29 0 -29 28v187q0 29 29 28h557q29 0 29 -28v-187q0 -29 -29 -28h-139q-119 -172 -220.5 -331t-146.5 -235.5t-47 -78.5v-338h141q29 0 29 -29v-186q0 -29 -29 -29h-569 q-29 0 -29 29v186q0 29 29 29h141v334q-2 4 -48 79.5t-146.5 235.5t-216.5 334h-140q-28 -1 -28 28z" />
<glyph unicode="Z" horiz-adv-x="1327" d="M72 33v157q0 29 55 103l739 934h-524v-180q0 -33 -33 -33h-205q-33 0 -32 33v391q0 33 32 32h1119q33 0 32 -32v-138q0 -55 -53 -118l-741 -938h524v180q0 33 33 33h205q33 0 32 -33v-391q0 -33 -32 -33h-1119q-32 0 -32 33z" />
<glyph unicode="[" horiz-adv-x="706" d="M63 -117v1657q0 29 27 29l520 -2q33 0 33 -33v-191q0 -33 -33 -32h-276v-1200h276q33 0 33 -33v-191q0 -33 -33 -32h-520q-27 -1 -27 28z" />
<glyph unicode="\" horiz-adv-x="884" d="M66 1528q-3 8 -3 13q0 16 21 15h217q27 0 37 -28l481 -1651q3 -7 3 -12q0 -16 -23 -17h-215q-27 0 -37 29z" />
<glyph unicode="]" horiz-adv-x="706" d="M63 78q0 33 33 33h277v1200h-277q-33 0 -33 32v191q0 33 33 33l518 2q29 0 29 -29v-1657q0 -29 -29 -28h-518q-33 0 -33 32v191z" />
<glyph unicode="_" horiz-adv-x="1157" d="M63 -78q0 33 33 33h965q33 0 33 -33v-188q0 -33 -33 -33h-965q-33 0 -33 33v188z" />
<glyph unicode="`" horiz-adv-x="671" d="M68 1493l114 135q13 15 26 15q10 0 21 -9l369 -331q14 -12 14 -25q0 -11 -10 -23l-90 -108q-13 -13 -26 -14q-11 0 -21 10l-393 303q-13 11 -14 24q1 11 10 23z" />
<glyph unicode="a" horiz-adv-x="1193" d="M63 276q0 162 137.5 246t385.5 84h143v8q0 168 -199 168q-84 0 -148.5 -19.5t-96 -38.5t-33.5 -19q-20 -4 -31 12l-102 129q-14 20 2 35q8 8 18.5 17t50 33.5t84.5 42t119 33t156 15.5q453 0 452 -424v-381h101q29 0 28 -29v-159q0 -29 -28 -29h-240q-96 0 -96 94v80h-2 l-10 -14q-10 -12 -19.5 -24.5t-28 -31t-38 -34t-49 -33t-61.5 -28.5t-73 -19t-86 -8q-152 0 -244 80.5t-92 213.5zM346 326q0 -53 44 -84t118 -31q131 0 221 117v118h-123q-260 1 -260 -120z" />
<glyph unicode="b" d="M63 1282v160q0 29 27 28h334q29 0 29 -28v-475l-9 -95h9q18 47 94 98.5t196 51.5q209 0 333 -142.5t124 -371.5q0 -246 -127 -384t-334 -138q-125 0 -203.5 51t-97.5 98h-4v-106q0 -29 -28 -29h-185q-29 0 -28 29v1224h-103q-27 0 -27 29zM453 508q0 -139 66.5 -216 t170.5 -77q111 0 176.5 81t65.5 212t-68.5 208t-173.5 77q-100 0 -168.5 -74t-68.5 -211z" />
<glyph unicode="c" horiz-adv-x="1122" d="M63 508q0 236 147.5 375t346.5 139q209 0 303 -137h2l-2 94q-2 29 29 29h139q29 0 29 -29v-377q0 -29 -29 -29h-172q-29 0 -29 29v29q-2 63 -64.5 111.5t-160.5 48.5q-102 0 -183 -75t-81 -208q0 -135 82 -214t196 -79q70 0 137.5 32t99.5 60.5t42 44.5q20 25 43 2 l104 -110q18 -23 5 -45q-12 -20 -41 -48t-83.5 -69t-142.5 -68.5t-188 -27.5q-225 0 -377 141t-152 381z" />
<glyph unicode="d" horiz-adv-x="1261" d="M63 508q0 227 127 370.5t338 143.5q121 0 193 -50t90 -100h4q-4 43 -4 89v292h-100q-29 0 -29 29v160q0 29 29 28h331q29 0 29 -28v-1225h100q29 0 29 -29v-159q0 -29 -29 -29h-239q-96 0 -96 94v58h-5q-20 -49 -101 -107.5t-206 -58.5q-207 0 -334 138t-127 384z M332 508q0 -131 65.5 -212t175.5 -81q104 0 171 77t67 216q0 137 -68.5 211t-169.5 74q-106 0 -173.5 -77t-67.5 -208z" />
<glyph unicode="e" horiz-adv-x="1116" d="M63 508q0 236 154 375t352 139q233 0 358 -136q122 -134 122 -376q0 -41 -35 -41h-672q14 -125 92 -189.5t182 -64.5q70 0 138.5 29.5t102.5 58.5t42 43q23 27 43 4l98 -106q12 -12 12 -26q0 -9 -5 -19q-12 -20 -41 -48t-83.5 -69t-142.5 -68.5t-188 -27.5 q-225 0 -377 141t-152 381zM348 637h430q-4 78 -54 126t-144 48q-84 0 -149 -41t-83 -133z" />
<glyph unicode="f" horiz-adv-x="888" d="M63 29v159q0 29 29 29h101v574h-103q-27 0 -27 28v160q0 29 27 29h103v90q0 190 98 289.5t282 99.5q72 0 136.5 -25.5t85 -42t57.5 -49.5q16 -13 16 -25q0 -8 -8 -16l-92 -121q-18 -20 -41 -4q-49 45 -125 45q-137 0 -137 -153v-88h262q29 0 29 -29v-160q0 -29 -29 -28 h-262v-574h170q29 0 29 -29v-159q0 -29 -29 -29h-543q-29 0 -29 29z" />
<glyph unicode="g" horiz-adv-x="1255" d="M63 502q0 246 127 384t334 138q123 0 201 -51t100 -99h4v105q0 29 29 29h305q29 0 29 -29v-160q0 -29 -29 -28h-92v-807q0 -229 -148.5 -348t-381.5 -119q-39 0 -75 4t-65.5 9t-59.5 14.5t-51.5 17.5t-44 20t-36.5 20.5t-31.5 20.5t-25 18.5t-18.5 15.5t-13 11 q-25 25 -10 43l96 137q12 20 41 2q37 -29 53 -41t82 -32.5t147 -20.5q281 0 281 228v153q-23 -49 -96.5 -101t-194.5 -52q-211 0 -334 143.5t-123 374.5zM332 498q0 -129 67.5 -207t173.5 -78q100 0 169 74.5t69 212.5q0 139 -67.5 215t-170.5 76q-109 0 -175 -80t-66 -213z " />
<glyph unicode="h" horiz-adv-x="1273" d="M63 29v159q0 29 27 29h100v1036h-100q-27 0 -27 29v160q0 29 27 28h344q29 0 29 -28v-410q0 -41 -14 -141h4q90 131 280 131q162 0 253 -99.5t93 -260.5l2 -445h103q29 0 28 -29v-159q0 -29 -28 -29h-279q-94 0 -94 94v481q0 207 -168 207q-25 0 -46.5 -4t-36.5 -12 t-29.5 -18.5t-23.5 -20.5t-17.5 -21.5t-13.5 -21.5t-8 -17.5t-5 -11.5v-4v-434h88q29 0 29 -29v-159q0 -29 -29 -29h-461q-27 0 -27 29z" />
<glyph unicode="i" horiz-adv-x="641" d="M63 29v159q0 29 27 29h100v574h-100q-27 0 -27 28v160q0 29 27 29h344q29 0 29 -29v-762h88q29 0 29 -29v-159q0 -29 -29 -29h-461q-27 0 -27 29zM158 1266q0 66 47 112.5t112 46.5q68 0 115 -47t47 -112q0 -68 -47 -114t-115 -46q-66 0 -112.5 46t-46.5 114z" />
<glyph unicode="j" horiz-adv-x="772" d="M18 -322l88 117q20 23 48 6q53 -47 118 -47q137 0 138 154v883h-101q-29 0 -28 28v160q0 29 28 29h344q29 0 29 -29v-1073q0 -190 -98.5 -289.5t-282.5 -99.5q-150 0 -270 108l-6 6q-15 15 -15 28q-1 10 8 19zM389 1266q0 68 47 114.5t112.5 46.5t113 -47t47.5 -114 q0 -66 -47.5 -113t-113 -47t-112.5 47t-47 113z" />
<glyph unicode="k" horiz-adv-x="1275" d="M63 29v159q0 29 27 29h100v1036h-100q-27 0 -27 29v160q0 29 27 28h344q29 0 29 -28v-885l266 234h-67q-29 0 -29 28v160q0 29 29 29h458q29 0 29 -29v-160q0 -29 -29 -28h-119l-221 -185l291 -389h119q29 0 29 -29v-159q0 -29 -29 -29h-176q-72 0 -129 78l-281 385 l-141 -123v-123h88q29 0 29 -29v-159q0 -29 -29 -29h-461q-27 0 -27 29z" />
<glyph unicode="l" horiz-adv-x="641" d="M63 29v159q0 29 27 29h100v1038h-100q-27 0 -27 27v162q0 29 27 29h332q41 0 41 -39v-1217h88q29 0 29 -29v-159q0 -29 -29 -29h-461q-27 0 -27 29z" />
<glyph unicode="m" horiz-adv-x="1878" d="M63 29v159q0 29 27 29h100v574h-100q-27 0 -27 28v160q0 29 27 29h291q45 0 45 -43l-2 -119h8q98 176 309 176t295 -170q90 170 307 170q162 0 250 -98.5t88 -261.5l5 -445h102q27 0 27 -29v-159q0 -29 -27 -29h-279q-96 0 -96 94v481q0 100 -37 153.5t-129 53.5 q-129 0 -174 -114q6 -16 6 -39l2 -412h101q29 0 28 -29v-159q0 -29 -28 -29h-459q-29 0 -29 29v159q0 29 29 29h88v358q0 207 -168 207q-25 0 -46.5 -4t-36.5 -12t-29.5 -18.5t-23.5 -20.5t-17.5 -21.5t-13.5 -21.5t-8 -17.5t-5 -11.5v-4v-434h67q29 0 29 -29v-159 q0 -29 -29 -29h-440q-27 0 -27 29z" />
<glyph unicode="n" horiz-adv-x="1273" d="M63 29v159q0 29 27 29h100v574h-100q-27 0 -27 28v160q0 29 27 29h307q29 0 29 -29l-2 -131h8l6 10q4 10 10.5 18.5t16.5 23.5t23.5 27.5t31 27t39 25.5t48 21.5t59 15.5t69.5 5q162 0 252 -99.5t92 -260.5l2 -445h103q29 0 28 -29v-159q0 -29 -28 -29h-279q-94 0 -94 94 v481q0 207 -168 207q-41 0 -73.5 -13t-51 -29.5t-32 -38t-17.5 -32t-6 -16.5v-436h88q29 0 29 -29v-159q0 -29 -29 -29h-461q-27 0 -27 29z" />
<glyph unicode="o" horiz-adv-x="1185" d="M63 508q0 236 147.5 375t383 139t382 -140.5t146.5 -373.5q0 -238 -144 -380t-386 -142q-240 0 -384.5 141t-144.5 381zM338 508q0 -133 70.5 -213t183.5 -80t184.5 80t71.5 213q0 129 -73 206t-181 77q-111 0 -183.5 -77t-72.5 -206z" />
<glyph unicode="p" d="M63 -272q0 27 27 26h103v1037h-93q-29 0 -28 28v160q0 29 28 29h306q29 0 28 -29l-2 -105h6q18 45 97 96.5t204 51.5q207 0 334 -137t127 -383q0 -231 -123 -373.5t-334 -142.5q-121 0 -195.5 46t-94.5 91h-7q6 -63 7 -88v-281h141q29 0 29 -26v-162q0 -29 -29 -29h-504 q-27 0 -27 29v162zM453 494q0 -135 70.5 -208t166.5 -73q106 0 174 78t68 207q0 133 -66.5 213t-175.5 80q-100 0 -168.5 -76t-68.5 -221z" />
<glyph unicode="q" d="M63 502q0 246 127 383t334 137q123 0 201 -50t100 -95h4v102q0 29 29 29h184q29 0 29 -29v-1225h103q27 0 26 -26v-162q0 -29 -26 -29h-504q-29 0 -29 29v162q0 27 29 26h141v285l4 100h-4q-20 -49 -95 -101t-196 -52q-211 0 -334 143.5t-123 372.5zM332 500 q0 -131 67.5 -208t173.5 -77q100 0 169 75t69 212q0 139 -67.5 215t-170.5 76q-109 0 -175 -80t-66 -213z" />
<glyph unicode="r" horiz-adv-x="901" d="M63 29v159q0 29 27 29h100v574h-100q-27 0 -27 28v160q0 29 27 29h307q29 0 29 -29v-227h8q4 10 11.5 28.5t39 64.5t73.5 81t119 63.5t171 28.5q33 0 33 -33v-205q0 -33 -33 -32h-72q-131 0 -222 -85t-91 -196v-250h88q29 0 29 -29v-159q0 -29 -29 -29h-461q-27 0 -27 29 z" />
<glyph unicode="s" horiz-adv-x="1017" d="M66 33l2 313q0 33 32 33h146q33 0 33 -31v-22q2 -6 6 -14.5t21.5 -31t41 -40t67.5 -31.5t95 -14q152 0 152 102q0 41 -58.5 64.5t-141.5 42t-166 47t-141.5 95t-58.5 167.5q0 137 97.5 223t265.5 86q193 0 280 -111h4q-4 55 -4 60q0 33 33 33h115q33 0 33 -33l-2 -307 q0 -33 -33 -33h-146q-33 0 -32 33v18q0 49 -55.5 89t-149.5 40q-59 0 -98 -28.5t-39 -77.5q0 -41 44 -69t108.5 -40t141 -34.5t141 -50.5t108.5 -87t44 -143q0 -123 -96 -210t-299 -87q-86 0 -159.5 29.5t-103.5 55t-38 40.5h-4q4 -63 4 -76q0 -33 -33 -33h-125 q-32 0 -32 33z" />
<glyph unicode="t" horiz-adv-x="915" d="M63 823v152q0 33 33 33h97v229q0 33 32 33h207q33 0 33 -33v-229h256q35 0 35 -33v-152q0 -33 -35 -32h-256v-414q0 -154 137 -154q66 0 119 47q27 16 47 -6l88 -117q8 -9 8 -19q0 -14 -14 -30l-14 -12q-14 -12 -19 -15l-20 -16q-16 -12 -26.5 -17t-29 -15.5t-35 -15.5 t-38 -11t-46 -8t-49.5 -2q-184 0 -282 99t-98 290v416h-97q-33 -1 -33 32z" />
<glyph unicode="u" d="M51 819v160q0 29 29 29h276q96 0 97 -95v-481q0 -100 37.5 -153.5t130.5 -53.5q63 0 108 32t58.5 58.5t13.5 38.5v437h-88q-29 0 -29 28v160q0 29 29 29h329q29 0 29 -29v-762h100q29 0 29 -29v-159q0 -29 -29 -29h-239q-96 0 -96 94v66h-7q-70 -174 -288 -174 q-164 0 -259.5 99t-97.5 261l-2 445h-102q-29 -1 -29 28z" />
<glyph unicode="v" d="M20 819v160q0 29 29 29h461q29 0 29 -29v-160q0 -29 -29 -28h-74l193 -549h4l194 549h-75q-29 0 -29 28v160q0 29 29 29h462q29 0 29 -29v-160q0 -29 -29 -28h-108l-268 -738q-12 -33 -25.5 -43t-44.5 -10h-274q-31 0 -44.5 10t-23.5 43l-270 738h-107q-29 -1 -29 28z " />
<glyph unicode="w" horiz-adv-x="1765" d="M27 819v160q0 29 28 29h463q29 0 29 -29v-160q0 -29 -29 -28h-78l148 -549h4l141 549h-41q-29 0 -28 28v160q0 29 28 29h389q27 0 27 -29v-160q0 -29 -27 -28h-43l144 -549h4l145 549h-78q-29 0 -28 28v160q0 29 28 29h463q29 0 29 -29v-160q0 -29 -29 -28h-106 l-226 -728q-18 -63 -77 -63h-232q-68 0 -80 63l-106 525h-4l-109 -525q-8 -63 -78 -63h-233q-57 0 -78 63l-225 728h-107q-28 -1 -28 28z" />
<glyph unicode="x" horiz-adv-x="1177" d="M49 29v159q0 29 29 29h94l248 301l-264 273h-78q-29 0 -29 28v160q0 29 29 29h448q29 0 29 -29v-160q0 -29 -29 -28h-71l184 -195l141 195h-45q-27 0 -26 28v160q0 29 26 29h367q27 0 26 -29v-160q0 -29 -26 -28h-101l-237 -308l264 -266h72q29 0 28 -29v-159 q0 -29 -28 -29h-449q-29 0 -28 29v159q0 29 28 29h70l-180 193l-148 -193h49q29 0 29 -29v-159q0 -29 -29 -29h-364q-29 0 -29 29z" />
<glyph unicode="y" horiz-adv-x="1284" d="M43 819v160q0 29 29 29h440q27 0 27 -29v-160q0 -29 -27 -28h-59l180 -551h4l186 551h-75q-29 0 -29 28v160q0 29 29 29h462q29 0 29 -29v-160q0 -29 -29 -28h-108l-309 -885q-72 -207 -149 -298t-230 -91q-55 0 -102.5 11t-85.5 34.5t-51 34t-40 34.5q-27 27 -10 43 l98 125q16 18 41 2q53 -47 119 -47q59 0 90 37t59 117l37 100h-53q-33 0 -49 15.5t-31 52.5l-260 715h-104q-29 -1 -29 28z" />
<glyph unicode="z" horiz-adv-x="1073" d="M63 29v133q0 55 43 94l566 535h-402v-134q0 -29 -28 -28h-152q-27 0 -27 28v322q0 29 27 29h893q29 0 29 -29v-123q0 -57 -49 -96l-562 -543h402v129q0 29 28 29h152q29 0 29 -29v-317q0 -29 -29 -29h-893q-27 0 -27 29z" />
<glyph unicode="{" horiz-adv-x="798" d="M63 659v103q0 33 33 33q45 4 93.5 59t48.5 158v168q0 387 467 387q33 0 32 -33v-191q0 -33 -32 -32q-102 0 -147.5 -34t-45.5 -128v-135q0 -160 -113 -234l-14 -8v-121q6 -2 14.5 -7t30 -25.5t38.5 -45t30.5 -68.5t13.5 -95v-142q0 -92 45 -125.5t148 -33.5q33 0 32 -33 v-191q0 -33 -32 -32q-102 0 -182.5 18t-147 59t-102 120t-35.5 190v172q0 100 -48.5 156.5t-93.5 58.5q-33 -1 -33 32z" />
<glyph unicode="|" horiz-adv-x="397" d="M63 -240v1768q0 29 27 28h217q29 0 29 -28v-1768q0 -29 -29 -28h-217q-27 -1 -27 28z" />
<glyph unicode="}" horiz-adv-x="798" d="M63 76q0 33 33 33q104 0 148.5 33.5t44.5 125.5v142q0 82 31.5 142t62.5 79l31 20v121q-4 2 -13.5 7t-31 25.5t-38 45t-29.5 69t-13 95.5v135q0 94 -45 128t-148 34q-33 0 -33 32v191q0 33 33 33q467 0 467 -387v-168q0 -102 47 -157.5t95 -59.5q33 0 32 -33v-103 q0 -33 -32 -32q-47 -2 -94.5 -58.5t-47.5 -156.5v-172q0 -111 -35.5 -190t-102.5 -120t-146.5 -59t-182.5 -18q-33 0 -33 32v191z" />
<glyph unicode="&#xa1;" horiz-adv-x="440" d="M63 1048.5q0 65.5 45.5 111.5t111 46t111.5 -46t46 -111.5t-46 -111.5t-111.5 -46t-111 46t-45.5 111.5zM82 -520v1196q0 29 29 29h215q29 0 28 -29v-1196q0 -29 -28 -29h-215q-29 0 -29 29z" />
<glyph unicode="&#xa2;" horiz-adv-x="1122" d="M63 623q0 211 119 345t293 162l2 144q-4 29 29 29h143q29 0 29 -29v-156q74 -20 120 -55t62 -62h4l-4 95q-4 29 29 28h139q29 0 29 -28v-379q0 -29 -29 -29h-172q-29 0 -29 29v28q-2 63 -65.5 112.5t-159.5 49.5q-100 0 -182 -75.5t-82 -208.5q0 -135 82 -214t196 -79 q70 0 137.5 31.5t99.5 60.5t42 45q18 27 43 4l104 -113q18 -23 5 -43q-14 -27 -51.5 -63.5t-125.5 -84.5t-192 -61v-106q0 -29 -29 -29h-145q-29 0 -29 29v113q-184 33 -298 167t-114 343z" />
<glyph unicode="&#xa3;" horiz-adv-x="1304" d="M63 608v129q0 27 27 27h148q-90 135 -91 250q0 201 149.5 335t416.5 134q244 0 384 -133t140 -353v-30q0 -29 -29 -29h-229q-29 0 -29 29v30q0 100 -64.5 163t-172.5 63q-113 0 -184.5 -60.5t-71.5 -175.5q0 -25 6 -48.5t10 -36.5t21.5 -38.5t20.5 -31t28.5 -36 t27.5 -32.5h420q29 0 29 -27v-129q0 -27 -29 -26h-329q8 -29 8 -62q0 -143 -146 -276h690q29 0 29 -29v-186q0 -29 -29 -29h-1085q-29 0 -29 29v174q0 39 25 49q4 2 37 16.5t62.5 32.5t63.5 48t54 74t20 97q0 27 -10 62h-262q-27 -1 -27 26z" />
<glyph unicode="&#xa5;" horiz-adv-x="1591" d="M72 1255v187q0 29 28 28h555q29 0 29 -28v-187q0 -29 -29 -28h-114l243 -412h19l246 412h-115q-29 0 -29 28v187q0 29 29 28h557q29 0 29 -28v-187q0 -29 -29 -28h-139l-191 -312h105q29 0 28 -28v-139q0 -29 -28 -29h-236l-47 -72v-22h182q29 0 29 -29v-139 q0 -29 -29 -29h-227v-184h141q29 0 29 -29v-186q0 -29 -29 -29h-569q-29 0 -29 29v186q0 29 29 29h141v184h-241q-29 0 -29 29v139q0 29 29 29h192v22l-45 72h-246q-29 0 -28 29v139q0 29 28 28h115l-186 312h-140q-28 -1 -28 28z" />
<glyph unicode="&#xa6;" horiz-adv-x="397" d="M63 -240v660q0 29 27 29h217q29 0 29 -29v-660q0 -29 -29 -28h-217q-27 -1 -27 28zM63 868v660q0 29 27 28h217q29 0 29 -28v-660q0 -29 -29 -28h-217q-27 -1 -27 28z" />
<glyph unicode="&#xa7;" horiz-adv-x="1339" d="M63 70q0 29 27 28h234q29 0 28 -28v-41q0 -10 10.5 -34t36 -59.5t61.5 -67.5t98.5 -54.5t135.5 -22.5q104 0 166 45t62 123q0 74 -85 120t-206 76.5t-242 71.5t-206 134.5t-85 234.5q0 137 72 238q-72 92 -72 221q0 188 133.5 308t358.5 120q250 0 375 -140l-7 101 q-4 29 29 29h203q27 0 27 -29v-490q0 -29 -27 -28h-234q-29 0 -28 28v37q0 78 -75 148.5t-224 70.5q-96 0 -153.5 -43t-57.5 -112q0 -61 47 -105.5t123 -71t168 -50t184 -54.5t168 -73t123 -116.5t47 -174.5q0 -141 -78 -246q78 -88 78 -215q0 -178 -127 -301t-381 -123 q-96 0 -182 23.5t-140.5 56.5t-85 60.5t-40.5 43.5h-5l5 -141q4 -29 -29 -29h-203q-27 0 -27 29v502zM418 596q0 -61 49 -106.5t106.5 -64.5t160 -49t155.5 -52q33 35 33 94q0 57 -49.5 97t-111 58.5t-160.5 46t-157 52.5q-26 -33 -26 -76z" />
<glyph unicode="&#xa8;" horiz-adv-x="710" d="M59 1260q0 47 34 81.5t81 34.5q49 0 83 -34.5t34 -81.5q0 -49 -34 -82t-83 -33q-47 0 -81 33t-34 82zM420 1260q0 47 33.5 81.5t81.5 34.5q49 0 82.5 -34.5t33.5 -81.5q0 -49 -33.5 -82t-82.5 -33q-47 0 -81 33t-34 82z" />
<glyph unicode="&#xa9;" horiz-adv-x="1341" d="M63 713q0 248 180.5 428t428.5 180t428 -180t180 -428t-180 -428.5t-428 -180.5t-428.5 180.5t-180.5 428.5zM211 712.5q0 -190.5 135 -324.5t326 -134q188 0 323 134t135 324.5t-135 324.5t-323 134q-190 0 -325.5 -134t-135.5 -324.5zM324 719q0 164 100 262t244 98 q82 0 148.5 -34.5t92 -64.5t41.5 -60q5 -7 5 -12q0 -8 -11 -13l-92 -68q-16 -10 -25 2q-49 86 -159 86q-70 0 -121 -52t-51 -142q0 -94 51 -146.5t129 -52.5q115 0 151 76q10 16 25 6l90 -61q11 -5 11 -13q0 -5 -5 -12q-16 -31 -40.5 -60.5t-91 -64.5t-148.5 -35 q-143 0 -243.5 98.5t-100.5 262.5z" />
<glyph unicode="&#xaa;" horiz-adv-x="657" d="M63 1114q0 158 242 158h86v2q0 80 -94 80q-39 0 -70.5 -9.5t-46 -18.5t-16.5 -9q-10 -4 -17 6l-53 72q-6 10 0 16q8 8 23.5 20.5t70 32t117.5 19.5q225 0 225 -215v-178h52q14 0 14 -15v-90q0 -14 -14 -14h-125q-47 0 -47 49v29h-2q-70 -86 -172 -86q-78 0 -125.5 40.5 t-47.5 110.5zM213 1139q0 -53 76 -54q63 0 102 48v65h-76q-102 0 -102 -59z" />
<glyph unicode="&#xab;" horiz-adv-x="1150" d="M63 494v51q0 29 33 51l479 330q7 6 16 6q3 0 6 -1q11 -3 11 -18v-151q0 -29 -33 -53l-280 -191l280 -190q33 -25 33 -52v-151q0 -14 -10 -19q-3 -1 -7 -1q-7 0 -16 6l-479 329q-33 21 -33 54zM543 494v51q0 29 32 51l480 330q13 8 20 8q12 0 12 -21v-151q0 -31 -32 -53 l-279 -191l279 -190q33 -23 32 -52v-151q0 -14 -10 -19q-3 -1 -7 -1q-7 0 -15 6l-480 329q-32 23 -32 54z" />
<glyph unicode="&#xac;" horiz-adv-x="1189" d="M63 657v152q0 33 33 33h1000q33 0 32 -33v-492q0 -29 -28 -28h-166q-29 0 -29 28v308h-809q-33 -1 -33 32z" />
<glyph unicode="&#xad;" horiz-adv-x="862" d="M63 446v189q0 33 33 33h670q33 0 33 -33v-189q0 -33 -33 -32h-670q-33 -1 -33 32z" />
<glyph unicode="&#xae;" horiz-adv-x="1341" d="M63 713q0 248 180.5 428t428.5 180t428 -180t180 -428t-180 -428.5t-428 -180.5t-428.5 180.5t-180.5 428.5zM195 712.5q0 -196.5 139 -335.5t338 -139q197 0 335 139t138 335.5t-138.5 336t-334.5 139.5q-199 0 -338 -139.5t-139 -336zM395 379v113q0 10 11 10h45v440 h-45q-10 0 -11 12v113q0 10 11 10h296q106 0 170 -58t64 -165q0 -152 -137 -197q6 -6 26 -39l62 -114h71q10 0 11 -10v-115q0 -12 -11 -12h-118q-31 0 -54 45l-104 196q-16 35 -41 37h-49v-143h57q12 0 13 -10v-113q0 -12 -13 -12h-243q-11 0 -11 12zM592 766h104 q92 0 92 88q0 39 -23.5 63.5t-68.5 24.5h-104v-176z" />
<glyph unicode="&#xaf;" horiz-adv-x="829" d="M59 1161v152q0 33 33 33h645q33 0 33 -33v-152q0 -35 -33 -35h-645q-33 0 -33 35z" />
<glyph unicode="&#xb0;" horiz-adv-x="430" d="M63 1016q0 68 44.5 114t108 46t108.5 -46.5t45 -113.5q0 -78 -45 -121t-108.5 -43t-108 43t-44.5 121zM158 1016q0 -33 17.5 -49.5t39.5 -16.5q57 0 57 66q0 27 -16 44t-41 17t-41 -17t-16 -44z" />
<glyph unicode="&#xb1;" horiz-adv-x="800" d="M63 123v190q0 33 33 33h609q33 0 32 -33v-190q0 -33 -32 -33h-609q-33 0 -33 33zM63 653v189q0 33 33 32h174v183q0 29 29 28h215q29 0 29 -28v-183h162q33 0 32 -32v-189q0 -33 -32 -32h-162v-160q0 -29 -29 -29h-215q-29 0 -29 29v160h-174q-33 -1 -33 32z" />
<glyph unicode="&#xb2;" horiz-adv-x="1277" d="M63 29v106q0 150 60.5 261.5t151 172t195.5 112.5t195.5 88t151 93.5t60.5 132.5q0 98 -71 163t-183 65q-123 0 -194 -69t-71 -173q0 -29 -28 -29h-234q-29 0 -28 29q0 217 144 359.5t411 142.5q270 0 415.5 -135.5t145.5 -323.5q0 -143 -76 -246.5t-186.5 -162 t-223 -107.5t-200.5 -114.5t-105 -149.5h533v137q0 29 28 29h232q29 0 28 -29v-352q0 -29 -28 -29h-1096q-27 0 -27 29z" />
<glyph unicode="&#xb3;" horiz-adv-x="1247" d="M74 238q-9 11 -9 20q0 11 11 21l162 149q23 20 38 -2q55 -55 81 -78.5t100.5 -59.5t154.5 -36q117 0 191 55t74 146q0 174 -258 174h-107q-29 0 -29 26v170q0 27 29 27h74q102 0 179 42t77 144q0 80 -57.5 133.5t-165.5 53.5q-100 0 -159 -55.5t-59 -137.5q0 -29 -28 -29 h-221q-29 0 -29 29q0 215 127 334t371 119q137 0 242.5 -39t164.5 -101.5t89 -130t30 -135t-20.5 -126t-50 -93.5t-62.5 -60.5t-55.5 -35.5t-30.5 -10v-4q12 0 37.5 -8.5t63.5 -32t72 -59.5t58.5 -100.5t24.5 -144.5q0 -186 -157 -301.5t-413 -115.5q-72 0 -136 9 t-115.5 30.5t-88 38t-74.5 49t-53.5 46t-44.5 46.5z" />
<glyph unicode="&#xb4;" horiz-adv-x="671" d="M70 1253q-11 11 -12 23q0 13 16 24l368 332q12 10 23 10q13 0 24 -16l115 -135q8 -12 8 -22q0 -13 -12 -23l-393 -305q-12 -9 -23 -9q-14 0 -24 15z" />
<glyph unicode="&#xb6;" horiz-adv-x="1513" d="M63 968.5q0 243.5 133.5 372.5t348.5 129h878q29 0 29 -28v-187q0 -29 -29 -28h-67v-1358q0 -29 -29 -29h-227q-29 0 -29 29v1358h-139v-1358q0 -29 -29 -29h-229q-27 0 -27 29v614h-82q-231 0 -366.5 121t-135.5 364.5z" />
<glyph unicode="&#xb8;" horiz-adv-x="503" d="M68 -227l24 32q20 25 45 7q39 -29 96 -29q70 0 70 51q0 47 -78 47q-35 0 -46 7.5t-3 29.5l45 119h111l-27 -80q12 0 29.5 -3t45.5 -13.5t46 -38t18 -68.5q0 -76 -51 -120t-137 -44q-92 0 -182 60q-14 9 -14 22q0 10 8 21z" />
<glyph unicode="&#xb9;" horiz-adv-x="1118" d="M70 1149q-6 9 -6 18q0 12 12 23l389 270q12 10 29 10h221q29 0 28 -28v-1198h285q29 0 29 -29v-186q0 -29 -29 -29h-889q-29 0 -28 29v186q0 29 28 29h318v913l-240 -168q-23 -16 -41 6z" />
<glyph unicode="&#xba;" horiz-adv-x="618" d="M63 1227q0 119 73 187.5t175.5 68.5t174 -70t71.5 -186.5t-71.5 -189t-174 -72.5t-175.5 72.5t-73 189.5zM186 1224.5q0 -63.5 37 -99t88 -35.5t85 35.5t34 99t-36 99.5t-83 36q-51 0 -88 -36t-37 -99.5z" />
<glyph unicode="&#xbb;" horiz-adv-x="1150" d="M63 125v151q0 29 33 52l279 190l-279 191q-33 23 -33 53v151q0 14 11 18q3 1 5 1q8 0 17 -6l479 -330q33 -23 33 -51v-51q0 -31 -33 -54l-479 -329q-8 -5 -15 -6q-4 0 -7 1q-11 5 -11 19zM543 125v151q0 27 32 52l281 190l-281 191q-33 25 -32 53v151q0 14 10 18q3 1 6 1 q8 0 16 -6l480 -330q33 -23 32 -51v-51q0 -31 -32 -54l-480 -329q-7 -5 -14 -6q-4 0 -7 1q-11 5 -11 19z" />
<glyph unicode="&#xbc;" horiz-adv-x="3255" d="M2065 471v139q0 41 33 82l615 754q20 25 47 24h213q29 0 28 -28v-770h156q29 0 29 -29v-172q0 -29 -29 -29h-156v-198h162q29 0 29 -29v-186q0 -29 -29 -29h-723q-29 0 -28 29v186q0 29 28 29h277v198h-623q-29 0 -29 29zM2358 672h359v434zM1184 -123l481 1651 q10 29 37 28h215q23 0 23 -16q0 -5 -3 -12l-481 -1651q-10 -29 -37 -29h-215q-23 0 -23 17q0 5 3 12zM70 1149q-6 9 -6 18q0 12 12 23l389 270q12 10 29 10h221q29 0 28 -28v-1198h285q29 0 29 -29v-186q0 -29 -29 -29h-889q-29 0 -28 29v186q0 29 28 29h318v913l-240 -168 q-23 -16 -41 6z" />
<glyph unicode="&#xbd;" horiz-adv-x="1546" d="M68 1307q-3 3 -4 7q0 6 8 13l202 143q6 6 21 7h125q14 0 14 -17v-581h123q18 0 18 -17v-104q0 -16 -18 -17h-438q-16 0 -17 17v104q0 16 17 17h151v424l-120 -89q-12 -8 -21 5zM360 -123l484 1651q6 29 35 28h217q27 0 20 -28l-483 -1651q-10 -29 -37 -29h-215 q-23 0 -23 17q-1 5 2 12zM907 16v66q2 86 43 144.5t98.5 88t115 53t97 54.5t39.5 76q0 98 -112 98q-59 0 -92 -30.5t-33 -84.5q0 -14 -14 -14h-123q-16 0 -17 14q0 109 74 184.5t205 75.5q135 0 207.5 -66.5t72.5 -162.5q0 -72 -34.5 -123t-87 -79.5t-104.5 -52.5t-95 -53.5 t-53 -66.5h239v62q0 14 17 14h118q16 0 17 -14v-183q0 -16 -19 -16h-540q-19 0 -19 16z" />
<glyph unicode="&#xbe;" horiz-adv-x="3384" d="M2194 471v139q0 41 33 82l615 754q20 25 47 24h213q29 0 28 -28v-770h156q29 0 29 -29v-172q0 -29 -29 -29h-156v-198h162q29 0 29 -29v-186q0 -29 -29 -29h-723q-29 0 -28 29v186q0 29 28 29h277v198h-623q-29 0 -29 29zM2487 672h359v434zM1313 -123l481 1651 q10 29 37 28h215q23 0 23 -16q0 -5 -3 -12l-481 -1651q-10 -29 -37 -29h-215q-23 0 -23 17q0 5 3 12zM74 238q-9 11 -9 20q0 11 11 21l162 149q23 20 38 -2q55 -55 81 -78.5t100.5 -59.5t154.5 -36q117 0 191 55t74 146q0 174 -258 174h-107q-29 0 -29 26v170q0 27 29 27h74 q102 0 179 42t77 144q0 80 -57.5 133.5t-165.5 53.5q-100 0 -159 -55.5t-59 -137.5q0 -29 -28 -29h-221q-29 0 -29 29q0 215 127 334t371 119q137 0 242.5 -39t164.5 -101.5t89 -130t30 -135t-20.5 -126t-50 -93.5t-62.5 -60.5t-55.5 -35.5t-30.5 -10v-4q12 0 37.5 -8.5 t63.5 -32t72 -59.5t58.5 -100.5t24.5 -144.5q0 -186 -157 -301.5t-413 -115.5q-72 0 -136 9t-115.5 30.5t-88 38t-74.5 49t-53.5 46t-44.5 46.5z" />
<glyph unicode="&#xbf;" horiz-adv-x="1239" d="M63 -207q0 135 49.5 229.5t119 145.5t139 97t119 112.5t49.5 161.5q0 29 28 28h267q29 0 28 -28q0 -137 -51 -235.5t-124 -153t-144.5 -98.5t-122.5 -101t-51 -131q0 -98 70.5 -158.5t189.5 -60.5q123 0 190.5 67.5t67.5 173.5q0 29 28 29h232q29 0 29 -29 q0 -217 -141.5 -359t-405.5 -142q-272 0 -419 132t-147 320zM543 864.5q0 65.5 46 111.5t111.5 46t111.5 -46t46 -111.5t-46 -111.5t-111.5 -46t-111.5 46t-46 111.5z" />
<glyph unicode="&#xc0;" horiz-adv-x="1685" d="M59 29v186q0 29 29 29h135l377 983h-137q-29 0 -29 28v187q0 29 29 28h395q61 0 92 -25.5t58 -90.5l434 -1110h135q29 0 29 -29v-186q0 -29 -29 -29h-557q-29 0 -29 29v186q0 29 29 29h133l-84 223h-475l-84 -223h135q29 0 29 -29v-186q0 -29 -29 -29h-557q-29 0 -29 29z M473 1956l115 135q13 15 26 15q10 0 21 -9l369 -332q14 -12 14 -25q0 -11 -10 -22l-90 -108q-25 -25 -48 -4l-393 303q-13 11 -13 24q0 11 9 23zM676 686h311l-149 408h-11z" />
<glyph unicode="&#xc1;" horiz-adv-x="1685" d="M59 29v186q0 29 29 29h135l377 983h-137q-29 0 -29 28v187q0 29 29 28h395q61 0 92 -25.5t58 -90.5l434 -1110h135q29 0 29 -29v-186q0 -29 -29 -29h-557q-29 0 -29 29v186q0 29 29 29h133l-84 223h-475l-84 -223h135q29 0 29 -29v-186q0 -29 -29 -29h-557q-29 0 -29 29z M676 686h311l-149 408h-11zM713 1716q-11 11 -12 22q0 13 16 25l368 332q12 10 23 10q13 0 25 -16l114 -135q8 -12 9 -23q0 -13 -13 -22l-393 -305q-12 -9 -23 -9q-14 0 -24 15z" />
<glyph unicode="&#xc2;" horiz-adv-x="1685" d="M59 29v186q0 29 29 29h135l377 983h-137q-29 0 -29 28v187q0 29 29 28h395q61 0 92 -25.5t58 -90.5l434 -1110h135q29 0 29 -29v-186q0 -29 -29 -29h-557q-29 0 -29 29v186q0 29 29 29h133l-84 223h-475l-84 -223h135q29 0 29 -29v-186q0 -29 -29 -29h-557q-29 0 -29 29z M444 1716q-10 11 -10 22q0 13 15 25l346 310q8 8 20 8q14 0 27 -10l342 -308q14 -12 14 -25q0 -11 -10 -22l-88 -104q-20 -25 -47 -4l-238 211l-235 -211q-25 -23 -48 4zM676 686h311l-149 408h-11z" />
<glyph unicode="&#xc3;" horiz-adv-x="1685" d="M59 29v186q0 29 29 29h135l377 983h-137q-29 0 -29 28v187q0 29 29 28h395q61 0 92 -25.5t58 -90.5l434 -1110h135q29 0 29 -29v-186q0 -29 -29 -29h-557q-29 0 -29 29v186q0 29 29 29h133l-84 223h-475l-84 -223h135q29 0 29 -29v-186q0 -29 -29 -29h-557q-29 0 -29 29z M434 1616q0 127 53.5 199.5t161.5 72.5q92 0 176 -71.5t125 -71.5q43 0 62.5 28.5t19.5 104.5q0 29 29 29h88q29 0 29 -29q0 -279 -217 -279q-72 0 -126.5 34t-95.5 68t-80 34q-41 0 -61 -24.5t-20 -94.5q0 -29 -27 -29h-88q-29 0 -29 29zM676 686h311l-149 408h-11z" />
<glyph unicode="&#xc4;" horiz-adv-x="1685" d="M59 29v186q0 29 29 29h135l377 983h-137q-29 0 -29 28v187q0 29 29 28h395q61 0 92 -25.5t58 -90.5l434 -1110h135q29 0 29 -29v-186q0 -29 -29 -29h-557q-29 0 -29 29v186q0 29 29 29h133l-84 223h-475l-84 -223h135q29 0 29 -29v-186q0 -29 -29 -29h-557q-29 0 -29 29z M522 1722q0 47 34 82t81 35q49 0 83 -35t34 -82q0 -49 -34 -81.5t-83 -32.5q-47 0 -81 32.5t-34 81.5zM676 686h311l-149 408h-11zM883 1722q0 47 33.5 82t80.5 35q49 0 83 -35t34 -82q0 -49 -33.5 -81.5t-83.5 -32.5q-47 0 -80.5 32.5t-33.5 81.5z" />
<glyph unicode="&#xc5;" horiz-adv-x="1685" d="M59 29v186q0 29 29 29h135l377 983h-137q-29 0 -29 28v187q0 29 29 28h395q61 0 92 -25.5t58 -90.5l434 -1110h135q29 0 29 -29v-186q0 -29 -29 -29h-557q-29 0 -29 29v186q0 29 29 29h133l-84 223h-475l-84 -223h135q29 0 29 -29v-186q0 -29 -29 -29h-557q-29 0 -29 29z M676 686h311l-149 408h-11zM694 1714q-8 23 -8 45q0 30 14 59q25 50 76 66q22 8 44 8q29 0 57 -14q49 -25 65 -78q8 -23 8 -45q0 -30 -14 -58q-25 -50 -76 -67q-22 -8 -43 -8q-29 0 -57 14q-50 25 -66 78zM774 1770q-1 -6 -1 -10q0 -13 7 -25q10 -16 28 -23q7 -2 13 -2 q11 0 21 6q16 8 20 28q1 6 1 11q0 13 -7 25q-10 16 -28 22q-7 2 -12 3q-11 0 -21 -7q-17 -9 -21 -28z" />
<glyph unicode="&#xc6;" horiz-adv-x="2177" d="M72 29v186q0 29 28 29h133l400 983h-135q-29 0 -29 28v187q0 29 29 28h1579q29 0 28 -28v-414q0 -29 -28 -29h-193q-29 0 -29 29v199h-487v-371h401q29 0 29 -29v-188q0 -29 -29 -29h-401v-366h485v196q0 29 29 29h195q29 0 28 -29v-411q0 -29 -28 -29h-1137 q-29 0 -29 29v186q0 29 29 29h141v366h-411l-150 -366h135q29 0 29 -29v-186q0 -29 -29 -29h-555q-28 0 -28 29zM762 856h319v371h-163z" />
<glyph unicode="&#xc7;" horiz-adv-x="1540" d="M72 743q0 176 58 319.5t156.5 233.5t224.5 138.5t263 48.5q281 0 408 -180l-4 139q-4 29 28 28h203q29 0 29 -28v-488q0 -29 -29 -28h-231q-29 0 -29 28v19q0 78 -101.5 157.5t-254.5 79.5q-176 0 -295 -124.5t-119 -348.5q0 -215 128 -343t300 -128q311 0 453 240 q14 27 40 10l156 -106q14 -10 14 -24q0 -9 -6 -19q-190 -362 -626 -379l-11 -31q12 0 29.5 -3t45.5 -13.5t46.5 -38t18.5 -68.5q0 -76 -51.5 -120t-137.5 -44q-94 0 -182 60q-27 16 -6 43l24 32q20 25 45 7q39 -29 97 -29q70 0 69 51q0 47 -77 47q-35 0 -46.5 7.5t-3.5 29.5 l27 72q-285 23 -469 224t-184 529z" />
<glyph unicode="&#xc8;" horiz-adv-x="1335" d="M72 29v186q0 29 28 29h142v983h-142q-29 0 -28 28v187q0 29 28 28h1137q29 0 29 -28v-414q0 -29 -29 -29h-195q-29 0 -28 29v199h-488v-371h404q29 0 28 -29v-188q0 -29 -28 -29h-404v-366h488v196q0 29 28 29h195q29 0 29 -29v-411q0 -29 -29 -29h-1137q-28 0 -28 29z M342 1956l115 135q13 15 26 15q10 0 21 -9l368 -332q14 -12 15 -25q0 -11 -10 -22l-91 -108q-13 -13 -26 -14q-11 0 -21 10l-393 303q-13 11 -13 24q0 11 9 23z" />
<glyph unicode="&#xc9;" horiz-adv-x="1335" d="M72 29v186q0 29 28 29h142v983h-142q-29 0 -28 28v187q0 29 28 28h1137q29 0 29 -28v-414q0 -29 -29 -29h-195q-29 0 -28 29v199h-488v-371h404q29 0 28 -29v-188q0 -29 -28 -29h-404v-366h488v196q0 29 28 29h195q29 0 29 -29v-411q0 -29 -29 -29h-1137q-28 0 -28 29z M506 1716q-11 11 -11 22q0 13 15 25l369 332q12 10 22 10q13 0 25 -16l114 -135q8 -12 9 -23q0 -13 -13 -22l-393 -305q-12 -9 -23 -9q-14 0 -24 15z" />
<glyph unicode="&#xca;" horiz-adv-x="1335" d="M72 29v186q0 29 28 29h142v983h-142q-29 0 -28 28v187q0 29 28 28h1137q29 0 29 -28v-414q0 -29 -29 -29h-195q-29 0 -28 29v199h-488v-371h404q29 0 28 -29v-188q0 -29 -28 -29h-404v-366h488v196q0 29 28 29h195q29 0 29 -29v-411q0 -29 -29 -29h-1137q-28 0 -28 29z M270 1716q-10 11 -10 22q0 13 14 25l347 310q8 8 20 8q14 0 27 -10l342 -308q14 -12 14 -25q0 -11 -10 -22l-88 -104q-11 -13 -24 -14q-11 0 -23 10l-238 211l-235 -211q-11 -10 -23 -11q-13 0 -25 15z" />
<glyph unicode="&#xcb;" horiz-adv-x="1335" d="M72 29v186q0 29 28 29h142v983h-142q-29 0 -28 28v187q0 29 28 28h1137q29 0 29 -28v-414q0 -29 -29 -29h-195q-29 0 -28 29v199h-488v-371h404q29 0 28 -29v-188q0 -29 -28 -29h-404v-366h488v196q0 29 28 29h195q29 0 29 -29v-411q0 -29 -29 -29h-1137q-28 0 -28 29z M416 1722q0 47 33.5 82t80.5 35q49 0 83 -35t34 -82q0 -49 -33.5 -81.5t-83.5 -32.5q-47 0 -80.5 32.5t-33.5 81.5zM776 1722q0 47 34 82t81 35q49 0 83 -35t34 -82q0 -49 -34 -81.5t-83 -32.5q-47 0 -81 32.5t-34 81.5z" />
<glyph unicode="&#xcc;" horiz-adv-x="837" d="M66 1937l114 136q13 15 26 15q10 0 21 -9l369 -332q27 -23 4 -47l-90 -109q-25 -25 -47 -4l-393 303q-13 11 -14 24q1 11 10 23zM141 29v186q0 29 29 29h141v983h-141q-29 0 -29 28v187q0 29 29 28h569q29 0 29 -28v-187q0 -29 -29 -28h-143v-983h143q29 0 29 -29v-186 q0 -29 -29 -29h-569q-29 0 -29 29z" />
<glyph unicode="&#xcd;" horiz-adv-x="872" d="M72 29v186q0 29 28 29h142v983h-142q-29 0 -28 28v187q0 29 28 28h570q29 0 28 -28v-187q0 -29 -28 -28h-144v-983h144q29 0 28 -29v-186q0 -29 -28 -29h-570q-28 0 -28 29zM260 1696q-11 11 -11 22q0 13 15 25l369 332q12 10 22 10q13 0 25 -17l115 -135q8 -12 8 -22 q0 -13 -12 -23l-394 -305q-12 -9 -23 -9q-14 0 -24 15z" />
<glyph unicode="&#xce;" horiz-adv-x="854" d="M55 1716q-10 11 -10 22q0 13 14 25l347 310q8 8 20 8q14 0 27 -10l342 -308q14 -12 14 -25q0 -11 -10 -22l-88 -104q-20 -25 -47 -4l-238 211l-236 -211q-25 -23 -47 4zM106 29v186q0 29 29 29h141v983h-141q-29 0 -29 28v187q0 29 29 28h570q29 0 28 -28v-187 q0 -29 -28 -28h-144v-983h144q29 0 28 -29v-186q0 -29 -28 -29h-570q-29 0 -29 29z" />
<glyph unicode="&#xcf;" horiz-adv-x="770" d="M72 29v186q0 29 28 29h142v983h-142q-29 0 -28 28v187q0 29 28 28h570q29 0 28 -28v-187q0 -29 -28 -28h-144v-983h144q29 0 28 -29v-186q0 -29 -28 -29h-570q-28 0 -28 29zM98 1722q0 47 34 82t81 35q49 0 83 -35t34 -82q0 -49 -34 -81.5t-83 -32.5q-47 0 -81 32.5 t-34 81.5zM459 1722q0 47 33.5 82t80.5 35q49 0 83 -35t34 -82q0 -49 -33.5 -81.5t-83.5 -32.5q-47 0 -80.5 32.5t-33.5 81.5z" />
<glyph unicode="&#xd0;" horiz-adv-x="1492" d="M72 29v186q0 29 28 29h142v372h-131q-33 0 -33 33v152q0 35 33 35h131v391h-142q-29 0 -28 28v187q0 29 28 28h568q326 0 539.5 -199.5t213.5 -547.5q0 -330 -192.5 -526.5t-478.5 -196.5h-650q-28 0 -28 29zM528 244h117q233 4 353 115.5t120 359.5q0 250 -126 379 t-365 129h-99v-391h238q33 0 33 -35v-152q0 -33 -33 -33h-238v-372z" />
<glyph unicode="&#xd1;" horiz-adv-x="1652" d="M72 29v186q0 29 28 29h142v983h-142q-29 0 -28 28v187q0 29 28 28h359q33 0 58.5 -15t39.5 -32.5t33 -48.5l420 -672q25 -41 52.5 -93t43.5 -83l14 -30h6v731h-141q-29 0 -29 28v187q0 29 29 28h569q29 0 29 -28v-187q0 -29 -29 -28h-143v-1198q0 -29 -29 -29h-192 q-74 0 -129 84l-447 698l-82 148h-6v-686h144q29 0 28 -29v-186q0 -29 -28 -29h-570q-28 0 -28 29zM459 1616q0 127 53 199.5t162 72.5q92 0 176 -71.5t125 -71.5q43 0 62.5 28.5t19.5 104.5q0 29 28 29h89q29 0 28 -29q0 -279 -217 -279q-72 0 -126 34t-95 68t-80 34 q-41 0 -61.5 -24.5t-20.5 -94.5q0 -29 -27 -29h-88q-28 0 -28 29z" />
<glyph unicode="&#xd2;" horiz-adv-x="1605" d="M72 743q0 176 62.5 319.5t167 233.5t233.5 138.5t268 48.5t269 -48.5t233.5 -138.5t166 -233t62.5 -320q0 -344 -207 -550.5t-524 -206.5q-311 0 -521 212.5t-210 544.5zM379 737q0 -215 124 -350t300 -135t300 135t124 350q0 223 -125 355.5t-299 132.5t-299 -132.5 t-125 -355.5zM418 1956l114 135q13 15 27 15q10 0 21 -9l368 -332q14 -12 15 -25q0 -11 -11 -22l-90 -108q-13 -13 -26 -14q-11 0 -21 10l-393 303q-13 11 -14 24q1 11 10 23z" />
<glyph unicode="&#xd3;" horiz-adv-x="1605" d="M72 743q0 176 62.5 319.5t167 233.5t233.5 138.5t268 48.5t269 -48.5t233.5 -138.5t166 -233t62.5 -320q0 -344 -207 -550.5t-524 -206.5q-311 0 -521 212.5t-210 544.5zM379 737q0 -215 124 -350t300 -135t300 135t124 350q0 223 -125 355.5t-299 132.5t-299 -132.5 t-125 -355.5zM530 1716q-11 11 -11 22q0 13 16 25l368 332q12 10 22 10q13 0 25 -16l115 -135q8 -12 8 -23q0 -13 -12 -22l-393 -305q-12 -9 -23 -9q-14 0 -24 15z" />
<glyph unicode="&#xd4;" horiz-adv-x="1605" d="M72 743q0 176 62.5 319.5t167 233.5t233.5 138.5t268 48.5t269 -48.5t233.5 -138.5t166 -233t62.5 -320q0 -344 -207 -550.5t-524 -206.5q-311 0 -521 212.5t-210 544.5zM379 737q0 -215 124 -350t300 -135t300 135t124 350q0 223 -125 355.5t-299 132.5t-299 -132.5 t-125 -355.5zM436 1716q-10 11 -10 22q0 13 14 25l346 310q8 8 21 8q14 0 27 -10l342 -308q14 -12 14 -25q0 -11 -10 -22l-88 -104q-11 -13 -25 -14q-11 0 -23 10l-237 211l-236 -211q-11 -10 -22 -11q-13 0 -25 15z" />
<glyph unicode="&#xd5;" horiz-adv-x="1605" d="M72 743q0 176 62.5 319.5t167 233.5t233.5 138.5t268 48.5t269 -48.5t233.5 -138.5t166 -233t62.5 -320q0 -344 -207 -550.5t-524 -206.5q-311 0 -521 212.5t-210 544.5zM379 737q0 -215 124 -350t300 -135t300 135t124 350q0 223 -125 355.5t-299 132.5t-299 -132.5 t-125 -355.5zM469 1616q0 127 53 199.5t162 72.5q92 0 176 -71.5t125 -71.5q43 0 62.5 28.5t19.5 104.5q0 29 29 29h88q29 0 28 -29q0 -279 -217 -279q-72 0 -126 34t-95 68t-80 34q-41 0 -61.5 -24.5t-20.5 -94.5q0 -29 -26 -29h-88q-29 0 -29 29z" />
<glyph unicode="&#xd6;" horiz-adv-x="1605" d="M72 743q0 176 62.5 319.5t167 233.5t233.5 138.5t268 48.5t269 -48.5t233.5 -138.5t166 -233t62.5 -320q0 -344 -207 -550.5t-524 -206.5q-311 0 -521 212.5t-210 544.5zM379 737q0 -215 124 -350t300 -135t300 135t124 350q0 223 -125 355.5t-299 132.5t-299 -132.5 t-125 -355.5zM514 1722q0 47 34 82t81 35q49 0 82.5 -35t33.5 -82q0 -49 -33.5 -81.5t-82.5 -32.5q-47 0 -81 32.5t-34 81.5zM874 1722q0 47 34 82t81 35q49 0 83 -35t34 -82q0 -49 -34 -81.5t-83 -32.5q-47 0 -81 32.5t-34 81.5z" />
<glyph unicode="&#xd7;" horiz-adv-x="763" d="M74 725q-10 10 -10.5 20t10.5 19l151 151q10 11 20 11.5t19 -11.5l129 -131l119 119q20 20 45 0l133 -135q10 -11 10 -23t-10 -24l-117 -115l113 -112q9 -10 9 -20.5t-9 -20.5l-149 -150q-20 -18 -41 0l-111 111l-125 -125q-12 -11 -24 -11t-23 11l-133 135 q-11 11 -11 23t11 24l123 123z" />
<glyph unicode="&#xd8;" horiz-adv-x="1605" d="M72 743q0 176 62.5 319.5t167 233.5t233.5 138.5t268 48.5q29 0 90 -8l29 98q10 29 36 29h216q31 0 20 -29l-49 -170q176 -86 282.5 -255t106.5 -405q0 -344 -207 -550.5t-524 -206.5q-25 0 -70 8l-20 -72q-10 -29 -37 -28h-215q-31 0 -21 28l39 135q-186 90 -296.5 270 t-110.5 416zM379 737q0 -260 182 -393l256 873q-18 4 -53 4q-160 -14 -272.5 -143.5t-112.5 -340.5zM811 262q18 -6 45 -6q156 20 263.5 151.5t107.5 329.5q0 244 -166 377z" />
<glyph unicode="&#xd9;" horiz-adv-x="1636" d="M72 1255v187q0 29 28 28h570q29 0 28 -28v-187q0 -29 -28 -28h-144v-684q0 -291 295 -291q141 0 214 78t73 202v695h-141q-29 0 -29 28v187q0 29 29 28h569q29 0 29 -28v-187q0 -29 -29 -28h-141v-676q0 -274 -154 -419.5t-420 -145.5q-268 0 -423.5 145t-155.5 420v676 h-142q-28 -1 -28 28zM561 1956l115 135q13 15 26 15q10 0 21 -9l369 -332q14 -12 14 -25q0 -11 -10 -22l-90 -108q-13 -13 -27 -14q-11 0 -21 10l-393 303q-13 11 -13 24q0 11 9 23z" />
<glyph unicode="&#xda;" horiz-adv-x="1636" d="M72 1255v187q0 29 28 28h570q29 0 28 -28v-187q0 -29 -28 -28h-144v-684q0 -291 295 -291q141 0 214 78t73 202v695h-141q-29 0 -29 28v187q0 29 29 28h569q29 0 29 -28v-187q0 -29 -29 -28h-141v-676q0 -274 -154 -419.5t-420 -145.5q-268 0 -423.5 145t-155.5 420v676 h-142q-28 -1 -28 28zM616 1716q-11 11 -11 22q0 13 16 25l368 332q12 10 22 10q13 0 25 -16l115 -135q8 -12 8 -23q0 -13 -12 -22l-393 -305q-12 -9 -23 -9q-14 0 -24 15z" />
<glyph unicode="&#xdb;" horiz-adv-x="1636" d="M72 1255v187q0 29 28 28h570q29 0 28 -28v-187q0 -29 -28 -28h-144v-684q0 -291 295 -291q141 0 214 78t73 202v695h-141q-29 0 -29 28v187q0 29 29 28h569q29 0 29 -28v-187q0 -29 -29 -28h-141v-676q0 -274 -154 -419.5t-420 -145.5q-268 0 -423.5 145t-155.5 420v676 h-142q-28 -1 -28 28zM451 1716q-10 11 -11 22q0 13 15 25l346 310q8 8 20 8q14 0 27 -10l342 -308q14 -12 14 -25q0 -11 -10 -22l-88 -104q-11 -13 -24 -14q-11 0 -23 10l-238 211l-235 -211q-11 -10 -22 -11q-13 0 -25 15z" />
<glyph unicode="&#xdc;" horiz-adv-x="1636" d="M72 1255v187q0 29 28 28h570q29 0 28 -28v-187q0 -29 -28 -28h-144v-684q0 -291 295 -291q141 0 214 78t73 202v695h-141q-29 0 -29 28v187q0 29 29 28h569q29 0 29 -28v-187q0 -29 -29 -28h-141v-676q0 -274 -154 -419.5t-420 -145.5q-268 0 -423.5 145t-155.5 420v676 h-142q-28 -1 -28 28zM518 1722q0 47 34 82t81 35q49 0 83 -35t34 -82q0 -49 -34 -81.5t-83 -32.5q-47 0 -81 32.5t-34 81.5zM879 1722q0 47 33.5 82t80.5 35q49 0 83 -35t34 -82q0 -49 -34 -81.5t-83 -32.5q-47 0 -80.5 32.5t-33.5 81.5z" />
<glyph unicode="&#xdd;" horiz-adv-x="1591" d="M72 1255v187q0 29 28 28h555q29 0 29 -28v-187q0 -29 -29 -28h-114l243 -412h19l246 412h-115q-29 0 -29 28v187q0 29 29 28h557q29 0 29 -28v-187q0 -29 -29 -28h-139q-119 -172 -220.5 -331t-146.5 -235.5t-47 -78.5v-338h141q29 0 29 -29v-186q0 -29 -29 -29h-569 q-29 0 -29 29v186q0 29 29 29h141v334q-2 4 -48 79.5t-146.5 235.5t-216.5 334h-140q-28 -1 -28 28zM524 1716q-11 11 -11 22q0 13 15 25l369 332q12 10 22 10q13 0 25 -16l115 -135q8 -12 8 -23q0 -13 -12 -22l-393 -305q-12 -9 -23 -9q-14 0 -25 15z" />
<glyph unicode="&#xde;" horiz-adv-x="1277" d="M63 29v161q0 29 27 29h115v1032h-105q-29 0 -28 29v162q0 29 28 28h349q29 0 28 -28l-4 -246h238q236 0 371 -116.5t135 -327.5q0 -209 -136.5 -317.5t-396.5 -108.5h-219v-107h166q29 0 28 -29v-161q0 -29 -28 -29h-541q-27 0 -27 29zM469 553h240q219 0 219 199 q0 100 -59.5 150t-159.5 50h-238z" />
<glyph unicode="&#xdf;" horiz-adv-x="1495" d="M63 29v161q0 29 27 29h103v754q0 236 140 373t363 137q209 0 310.5 -90t101.5 -213q0 -61 -22.5 -110.5t-54.5 -79t-64.5 -55.5t-55 -58.5t-22.5 -71.5q0 -49 56 -85t136 -64.5t160 -67.5t136.5 -116t56.5 -187q0 -121 -113 -212t-297 -91q-55 0 -104.5 9t-88 26.5 t-70.5 36t-56.5 46t-43 49t-33 49t-22.5 43t-16 37t-8 23.5q-10 25 16 39l121 53q27 14 39 -10q2 -2 10 -22.5t18.5 -38t30 -42t43 -43t59 -30.5t78.5 -12q61 0 102.5 28.5t41.5 75.5q0 59 -53.5 99t-130 67t-152.5 58.5t-129 98t-53 162.5q0 68 32.5 120t71.5 79t71.5 61.5 t32.5 71.5q0 57 -36.5 93t-106.5 36q-84 0 -153.5 -66.5t-69.5 -205.5v-754h78q27 0 26 -29v-161q0 -29 -26 -29h-453q-27 0 -27 29z" />
<glyph unicode="&#xe0;" horiz-adv-x="1193" d="M63 276q0 162 137.5 246t385.5 84h143v8q0 168 -199 168q-84 0 -148.5 -19.5t-96 -38.5t-33.5 -19q-20 -4 -31 12l-102 129q-14 20 2 35q8 8 18.5 17t50 33.5t84.5 42t119 33t156 15.5q453 0 452 -424v-381h101q29 0 28 -29v-159q0 -29 -28 -29h-240q-96 0 -96 94v80h-2 l-10 -14q-10 -12 -19.5 -24.5t-28 -31t-38 -34t-49 -33t-61.5 -28.5t-73 -19t-86 -8q-152 0 -244 80.5t-92 213.5zM264 1493l115 135q13 15 26 15q10 0 21 -9l369 -331q14 -12 14 -25q0 -11 -10 -23l-90 -108q-25 -25 -47 -4l-394 303q-13 11 -13 24q0 11 9 23zM346 326 q0 -53 44 -84t118 -31q131 0 221 117v118h-123q-260 1 -260 -120z" />
<glyph unicode="&#xe1;" horiz-adv-x="1193" d="M63 276q0 162 137.5 246t385.5 84h143v8q0 168 -199 168q-84 0 -148.5 -19.5t-96 -38.5t-33.5 -19q-20 -4 -31 12l-102 129q-14 20 2 35q8 8 18.5 17t50 33.5t84.5 42t119 33t156 15.5q453 0 452 -424v-381h101q29 0 28 -29v-159q0 -29 -28 -29h-240q-96 0 -96 94v80h-2 l-10 -14q-10 -12 -19.5 -24.5t-28 -31t-38 -34t-49 -33t-61.5 -28.5t-73 -19t-86 -8q-152 0 -244 80.5t-92 213.5zM346 326q0 -53 44 -84t118 -31q131 0 221 117v118h-123q-260 1 -260 -120zM379 1253q-11 11 -11 23q0 13 15 24l369 332q12 10 22 10q13 0 25 -16l114 -135 q8 -12 9 -22q0 -13 -13 -23l-393 -305q-12 -9 -23 -9q-14 0 -24 15z" />
<glyph unicode="&#xe2;" horiz-adv-x="1193" d="M63 276q0 162 137.5 246t385.5 84h143v8q0 168 -199 168q-84 0 -148.5 -19.5t-96 -38.5t-33.5 -19q-20 -4 -31 12l-102 129q-14 20 2 35q8 8 18.5 17t50 33.5t84.5 42t119 33t156 15.5q453 0 452 -424v-381h101q29 0 28 -29v-159q0 -29 -28 -29h-240q-96 0 -96 94v80h-2 l-10 -14q-10 -12 -19.5 -24.5t-28 -31t-38 -34t-49 -33t-61.5 -28.5t-73 -19t-86 -8q-152 0 -244 80.5t-92 213.5zM236 1253q-10 11 -11 22q0 13 15 25l346 310q8 8 20 8q14 0 27 -10l342 -308q14 -12 14 -25q0 -11 -10 -22l-88 -104q-20 -25 -47 -4l-238 211l-235 -211 q-25 -23 -47 4zM346 326q0 -53 44 -84t118 -31q131 0 221 117v118h-123q-260 1 -260 -120z" />
<glyph unicode="&#xe3;" horiz-adv-x="1193" d="M63 276q0 162 137.5 246t385.5 84h143v8q0 168 -199 168q-84 0 -148.5 -19.5t-96 -38.5t-33.5 -19q-20 -4 -31 12l-102 129q-14 20 2 35q8 8 18.5 17t50 33.5t84.5 42t119 33t156 15.5q453 0 452 -424v-381h101q29 0 28 -29v-159q0 -29 -28 -29h-240q-96 0 -96 94v80h-2 l-10 -14q-10 -12 -19.5 -24.5t-28 -31t-38 -34t-49 -33t-61.5 -28.5t-73 -19t-86 -8q-152 0 -244 80.5t-92 213.5zM242 1153q0 127 53 199.5t162 72.5q92 0 176 -71.5t125 -71.5q43 0 62.5 28.5t19.5 104.5q0 29 28 29h88q29 0 29 -29q0 -279 -217 -278q-72 0 -126 33.5 t-95 67.5t-80 34q-41 0 -61.5 -24.5t-20.5 -94.5q0 -29 -27 -29h-88q-28 0 -28 29zM346 326q0 -53 44 -84t118 -31q131 0 221 117v118h-123q-260 1 -260 -120z" />
<glyph unicode="&#xe4;" horiz-adv-x="1193" d="M63 276q0 162 137.5 246t385.5 84h143v8q0 168 -199 168q-84 0 -148.5 -19.5t-96 -38.5t-33.5 -19q-20 -4 -31 12l-102 129q-14 20 2 35q8 8 18.5 17t50 33.5t84.5 42t119 33t156 15.5q453 0 452 -424v-381h101q29 0 28 -29v-159q0 -29 -28 -29h-240q-96 0 -96 94v80h-2 l-10 -14q-10 -12 -19.5 -24.5t-28 -31t-38 -34t-49 -33t-61.5 -28.5t-73 -19t-86 -8q-152 0 -244 80.5t-92 213.5zM313 1260q0 47 34 81.5t81 34.5q49 0 83 -34.5t34 -81.5q0 -49 -34 -82t-83 -33q-47 0 -81 33t-34 82zM346 326q0 -53 44 -84t118 -31q131 0 221 117v118 h-123q-260 1 -260 -120zM674 1260q0 47 33.5 81.5t80.5 34.5q49 0 83 -34.5t34 -81.5q0 -49 -33.5 -82t-83.5 -33q-47 0 -80.5 33t-33.5 82z" />
<glyph unicode="&#xe5;" horiz-adv-x="1193" d="M63 276q0 162 137.5 246t385.5 84h143v8q0 168 -199 168q-84 0 -148.5 -19.5t-96 -38.5t-33.5 -19q-20 -4 -31 12l-102 129q-14 20 2 35q8 8 18.5 17t50 33.5t84.5 42t119 33t156 15.5q453 0 452 -424v-381h101q29 0 28 -29v-159q0 -29 -28 -29h-240q-96 0 -96 94v80h-2 l-10 -14q-10 -12 -19.5 -24.5t-28 -31t-38 -34t-49 -33t-61.5 -28.5t-73 -19t-86 -8q-152 0 -244 80.5t-92 213.5zM346 326q0 -53 44 -84t118 -31q131 0 221 117v118h-123q-260 1 -260 -120zM475 1251q-8 23 -8 45q0 30 14 59q25 50 76 66q22 8 44 8q29 0 56 -14 q49 -25 66 -78q8 -23 8 -45q0 -30 -14 -58q-25 -50 -76 -67q-22 -8 -43 -8q-29 0 -57 15q-50 24 -66 77zM555 1308q-1 -6 -1 -11q0 -13 7 -25q10 -16 28 -23q7 -2 13 -2q11 0 21 6q16 8 20 28q1 6 1 11q0 13 -7 25q-10 16 -28 22q-7 2 -13 3q-11 0 -21 -7q-16 -8 -20 -27z " />
<glyph unicode="&#xe6;" horiz-adv-x="1783" d="M63 276q0 162 137.5 246t385.5 84h143v10q0 166 -199 166q-84 0 -148.5 -19.5t-96 -38.5t-33.5 -19q-20 -4 -31 12l-102 129q-14 20 2 35q8 8 18.5 17t50 33.5t84.5 42t119 33t156 15.5q250 0 354 -141q133 137 332 137q238 0 359 -134q120 -132 120 -376q0 -41 -33 -41 h-671q12 -125 90 -190.5t182 -65.5q72 0 140.5 29.5t101 57.5t43.5 44q20 25 43 4l98 -106q12 -13 12 -27q0 -9 -6 -18q-12 -20 -40.5 -48t-83 -69t-142.5 -68.5t-188 -27.5q-139 0 -255 57t-188 162q-59 -86 -164.5 -151.5t-253.5 -65.5q-152 0 -244 79.5t-92 212.5z M346 326q0 -53 44 -84t118 -31q135 0 227 133q-6 18 -6 102h-123q-260 1 -260 -120zM1016 635h432q-4 78 -54.5 125t-148.5 47q-192 0 -229 -172z" />
<glyph unicode="&#xe7;" horiz-adv-x="1122" d="M63 508q0 236 147.5 375t346.5 139q209 0 303 -137h2l-2 94q-2 29 29 29h139q29 0 29 -29v-377q0 -29 -29 -29h-172q-29 0 -29 29v29q-2 63 -64.5 111.5t-160.5 48.5q-102 0 -183 -75t-81 -208q0 -135 82 -214t196 -79q70 0 137.5 32t99.5 60.5t42 44.5q20 25 43 2 l104 -110q18 -23 5 -45q-20 -31 -56.5 -67t-134.5 -86t-215 -58l-10 -31q12 0 29.5 -3t45 -13.5t46 -38t18.5 -68.5q0 -76 -51 -120t-137 -44q-94 0 -183 60q-27 16 -6 43l25 32q20 25 45 7q39 -29 96 -29q70 0 70 51q0 47 -78 47q-35 0 -46 7.5t-3 29.5l26 72 q-203 18 -334 156.5t-131 361.5z" />
<glyph unicode="&#xe8;" horiz-adv-x="1116" d="M63 508q0 236 154 375t352 139q233 0 358 -136q122 -134 122 -376q0 -41 -35 -41h-672q14 -125 92 -189.5t182 -64.5q70 0 138.5 29.5t102.5 58.5t42 43q23 27 43 4l98 -106q12 -12 12 -26q0 -9 -5 -19q-12 -20 -41 -48t-83.5 -69t-142.5 -68.5t-188 -27.5 q-225 0 -377 141t-152 381zM283 1493l114 135q13 15 26 15q10 0 21 -9l369 -331q14 -12 14 -25q0 -11 -10 -23l-90 -108q-25 -25 -47 -4l-393 303q-13 11 -14 24q1 11 10 23zM348 637h430q-4 78 -54 126t-144 48q-84 0 -149 -41t-83 -133z" />
<glyph unicode="&#xe9;" horiz-adv-x="1116" d="M63 508q0 236 154 375t352 139q233 0 358 -136q122 -134 122 -376q0 -41 -35 -41h-672q14 -125 92 -189.5t182 -64.5q70 0 138.5 29.5t102.5 58.5t42 43q23 27 43 4l98 -106q12 -12 12 -26q0 -9 -5 -19q-12 -20 -41 -48t-83.5 -69t-142.5 -68.5t-188 -27.5 q-225 0 -377 141t-152 381zM348 637h430q-4 78 -54 126t-144 48q-84 0 -149 -41t-83 -133zM403 1253q-11 11 -11 23q0 13 16 24l368 332q12 10 22 10q13 0 25 -16l115 -135q8 -12 8 -22q0 -13 -12 -23l-393 -305q-12 -9 -23 -9q-14 0 -24 15z" />
<glyph unicode="&#xea;" horiz-adv-x="1116" d="M63 508q0 236 154 375t352 139q233 0 358 -136q122 -134 122 -376q0 -41 -35 -41h-672q14 -125 92 -189.5t182 -64.5q70 0 138.5 29.5t102.5 58.5t42 43q23 27 43 4l98 -106q12 -12 12 -26q0 -9 -5 -19q-12 -20 -41 -48t-83.5 -69t-142.5 -68.5t-188 -27.5 q-225 0 -377 141t-152 381zM227 1253q-10 11 -10 22q0 13 14 25l347 310q8 8 20 8q14 0 27 -10l342 -308q14 -12 14 -25q0 -11 -10 -22l-88 -104q-20 -25 -47 -4l-238 211l-236 -211q-25 -23 -47 4zM348 637h430q-4 78 -54 126t-144 48q-84 0 -149 -41t-83 -133z" />
<glyph unicode="&#xeb;" horiz-adv-x="1116" d="M63 508q0 236 154 375t352 139q233 0 358 -136q122 -134 122 -376q0 -41 -35 -41h-672q14 -125 92 -189.5t182 -64.5q70 0 138.5 29.5t102.5 58.5t42 43q23 27 43 4l98 -106q12 -12 12 -26q0 -9 -5 -19q-12 -20 -41 -48t-83.5 -69t-142.5 -68.5t-188 -27.5 q-225 0 -377 141t-152 381zM287 1260q0 47 33.5 81.5t80.5 34.5q49 0 83 -34.5t34 -81.5q0 -49 -33.5 -82t-83.5 -33q-47 0 -80.5 33t-33.5 82zM348 637h430q-4 78 -54 126t-144 48q-84 0 -149 -41t-83 -133zM647 1260q0 47 34 81.5t81 34.5q49 0 83 -34.5t34 -81.5 q0 -49 -34 -82t-83 -33q-47 0 -81 33t-34 82z" />
<glyph unicode="&#xec;" horiz-adv-x="641" d="M-121 1489l115 135q13 15 26 15q10 0 21 -9l369 -332q27 -23 4 -47l-90 -108q-25 -25 -48 -4l-393 303q-13 11 -13 24q0 11 9 23zM63 29v159q0 29 27 29h100v574h-100q-27 0 -27 28v160q0 29 27 29h344q29 0 29 -29v-762h88q29 0 29 -29v-159q0 -29 -29 -29h-461 q-27 0 -27 29z" />
<glyph unicode="&#xed;" horiz-adv-x="641" d="M63 29v159q0 29 27 29h100v574h-100q-27 0 -27 28v160q0 29 27 29h344q29 0 29 -29v-762h88q29 0 29 -29v-159q0 -29 -29 -29h-461q-27 0 -27 29zM199 1253q-11 11 -12 23q0 13 16 24l368 332q12 10 23 10q13 0 24 -16l115 -135q8 -12 8 -22q0 -13 -12 -23l-393 -305 q-12 -9 -23 -9q-14 0 -24 15z" />
<glyph unicode="&#xee;" horiz-adv-x="641" d="M-55 1253q-10 11 -11 22q0 13 15 25l346 310q8 8 20 8q14 0 27 -10l342 -308q14 -12 14 -25q0 -11 -10 -22l-88 -104q-20 -25 -47 -4l-238 211l-235 -211q-25 -23 -47 4zM63 29v159q0 29 27 29h100v574h-100q-27 0 -27 28v160q0 29 27 29h344q29 0 29 -29v-762h88 q29 0 29 -29v-159q0 -29 -29 -29h-461q-27 0 -27 29z" />
<glyph unicode="&#xef;" horiz-adv-x="641" d="M33 1260q0 47 33.5 81.5t80.5 34.5q49 0 83 -34.5t34 -81.5q0 -49 -33.5 -82t-83.5 -33q-47 0 -80.5 33t-33.5 82zM63 29v159q0 29 27 29h100v574h-100q-27 0 -27 28v160q0 29 27 29h344q29 0 29 -29v-762h88q29 0 29 -29v-159q0 -29 -29 -29h-461q-27 0 -27 29z M393 1260q0 47 34 81.5t81 34.5q49 0 83 -34.5t34 -81.5q0 -49 -34 -82t-83 -33q-47 0 -81 33t-34 82z" />
<glyph unicode="&#xf0;" horiz-adv-x="1284" d="M63 483q0 221 129.5 351.5t385.5 130.5q160 0 323 -78q-12 150 -88 225l-61 -61q-25 -25 -47 0l-68 67q-23 23 0 45l47 47q-47 14 -88 15q-100 0 -160.5 -52.5t-60.5 -109.5q0 -29 -29 -29h-221q-29 0 -29 29q0 188 129 304t369 116q166 0 295 -68l88 88q12 11 24 11 t23 -11l68 -67q23 -23 0 -47l-72 -70q203 -190 203 -584q0 -356 -160 -551.5t-434 -197.5q-264 2 -415 142t-151 355zM371 502q0 -113 67.5 -181.5t192.5 -68.5q123 0 198.5 106.5t83.5 313.5q-139 70 -260 69q-143 0 -212.5 -65t-69.5 -174z" />
<glyph unicode="&#xf1;" horiz-adv-x="1273" d="M63 29v159q0 29 27 29h100v574h-100q-27 0 -27 28v160q0 29 27 29h307q29 0 29 -29l-2 -131h8l6 10q4 10 10.5 18.5t16.5 23.5t23.5 27.5t31 27t39 25.5t48 21.5t59 15.5t69.5 5q162 0 252 -99.5t92 -260.5l2 -445h103q29 0 28 -29v-159q0 -29 -28 -29h-279q-94 0 -94 94 v481q0 207 -168 207q-41 0 -73.5 -13t-51 -29.5t-32 -38t-17.5 -32t-6 -16.5v-436h88q29 0 29 -29v-159q0 -29 -29 -29h-461q-27 0 -27 29zM233 1153q0 127 53.5 199.5t162.5 72.5q92 0 176 -71.5t125 -71.5q43 0 62 28.5t19 104.5q0 29 29 29h88q29 0 29 -29 q0 -279 -217 -278q-72 0 -126 33.5t-95 67.5t-80 34q-41 0 -61.5 -24.5t-20.5 -94.5q0 -29 -27 -29h-88q-29 0 -29 29z" />
<glyph unicode="&#xf2;" horiz-adv-x="1185" d="M63 508q0 236 147.5 375t383 139t382 -140.5t146.5 -373.5q0 -238 -144 -380t-386 -142q-240 0 -384.5 141t-144.5 381zM252 1493l115 135q13 15 26 15q10 0 21 -9l368 -331q27 -23 4 -48l-90 -108q-25 -25 -47 -4l-393 303q-13 11 -13 24q0 11 9 23zM338 508 q0 -133 70.5 -213t183.5 -80t184.5 80t71.5 213q0 129 -73 206t-181 77q-111 0 -183.5 -77t-72.5 -206z" />
<glyph unicode="&#xf3;" horiz-adv-x="1185" d="M63 508q0 236 147.5 375t383 139t382 -140.5t146.5 -373.5q0 -238 -144 -380t-386 -142q-240 0 -384.5 141t-144.5 381zM338 508q0 -133 70.5 -213t183.5 -80t184.5 80t71.5 213q0 129 -73 206t-181 77q-111 0 -183.5 -77t-72.5 -206zM422 1253q-11 11 -11 23q0 13 15 24 l369 332q12 10 22 10q13 0 25 -16l114 -135q8 -12 9 -22q0 -13 -13 -23l-393 -305q-12 -9 -23 -9q-14 0 -24 15z" />
<glyph unicode="&#xf4;" horiz-adv-x="1185" d="M63 508q0 236 147.5 375t383 139t382 -140.5t146.5 -373.5q0 -238 -144 -380t-386 -142q-240 0 -384.5 141t-144.5 381zM242 1253q-10 11 -11 22q0 13 15 25l346 310q8 8 20 8q14 0 27 -10l342 -308q14 -12 14 -25q0 -11 -10 -22l-88 -104q-20 -25 -47 -4l-238 211 l-235 -211q-25 -23 -47 4zM338 508q0 -133 70.5 -213t183.5 -80t184.5 80t71.5 213q0 129 -73 206t-181 77q-111 0 -183.5 -77t-72.5 -206z" />
<glyph unicode="&#xf5;" horiz-adv-x="1185" d="M63 508q0 236 147.5 375t383 139t382 -140.5t146.5 -373.5q0 -238 -144 -380t-386 -142q-240 0 -384.5 141t-144.5 381zM252 1153q0 127 53 199.5t162 72.5q92 0 176 -71.5t125 -71.5q43 0 62.5 28.5t19.5 104.5q0 29 29 29h88q29 0 28 -29q0 -279 -217 -278 q-72 0 -126 33.5t-95 67.5t-80 34q-41 0 -61.5 -24.5t-20.5 -94.5q0 -29 -26 -29h-88q-29 0 -29 29zM338 508q0 -133 70.5 -213t183.5 -80t184.5 80t71.5 213q0 129 -73 206t-181 77q-111 0 -183.5 -77t-72.5 -206z" />
<glyph unicode="&#xf6;" horiz-adv-x="1185" d="M63 508q0 236 147.5 375t383 139t382 -140.5t146.5 -373.5q0 -238 -144 -380t-386 -142q-240 0 -384.5 141t-144.5 381zM305 1260q0 47 34 81.5t81 34.5q49 0 83 -34.5t34 -81.5q0 -49 -34 -82t-83 -33q-47 0 -81 33t-34 82zM338 508q0 -133 70.5 -213t183.5 -80 t184.5 80t71.5 213q0 129 -73 206t-181 77q-111 0 -183.5 -77t-72.5 -206zM666 1260q0 47 33.5 81.5t80.5 34.5q49 0 83 -34.5t34 -81.5q0 -49 -34 -82t-83 -33q-47 0 -80.5 33t-33.5 82z" />
<glyph unicode="&#xf7;" horiz-adv-x="862" d="M63 440v189q0 33 33 33h670q33 0 33 -33v-189q0 -33 -33 -32h-670q-33 -1 -33 32zM334 256q0 43 29.5 72.5t72.5 29.5t73 -29.5t30 -72.5q0 -41 -30 -71.5t-73 -30.5t-72.5 30.5t-29.5 71.5zM334 825q0 41 29.5 72t72.5 31t73 -31t30 -72q0 -43 -30 -72.5t-73 -29.5 t-72.5 29.5t-29.5 72.5z" />
<glyph unicode="&#xf8;" horiz-adv-x="1185" d="M63 508q0 236 147.5 375t383.5 139q84 0 164 -25l6 17q8 29 37 28h131q33 0 20 -28l-41 -80q211 -141 211 -426q0 -238 -144 -380t-386 -142q-80 0 -152 18l-18 -37q-18 -29 -37 -28h-131q-31 0 -21 28l52 99q-222 139 -222 442zM338 508q0 -119 70 -199l237 471 q-25 10 -51 11q-111 0 -183.5 -77t-72.5 -206zM551 223q18 -8 47 -8q111 2 180.5 82t69.5 211q0 109 -62 180z" />
<glyph unicode="&#xf9;" d="M51 819v160q0 29 29 29h276q96 0 97 -95v-481q0 -100 37.5 -153.5t130.5 -53.5q63 0 108 32t58.5 58.5t13.5 38.5v437h-88q-29 0 -29 28v160q0 29 29 29h329q29 0 29 -29v-762h100q29 0 29 -29v-159q0 -29 -29 -29h-239q-96 0 -96 94v66h-7q-70 -174 -288 -174 q-164 0 -259.5 99t-97.5 261l-2 445h-102q-29 -1 -29 28zM227 1493l115 135q13 15 26 15q10 0 21 -9l369 -331q14 -12 14 -25q0 -11 -10 -23l-90 -108q-13 -13 -26 -14q-11 0 -21 10l-394 303q-13 11 -13 24q0 11 9 23z" />
<glyph unicode="&#xfa;" d="M51 819v160q0 29 29 29h276q96 0 97 -95v-481q0 -100 37.5 -153.5t130.5 -53.5q63 0 108 32t58.5 58.5t13.5 38.5v437h-88q-29 0 -29 28v160q0 29 29 29h329q29 0 29 -29v-762h100q29 0 29 -29v-159q0 -29 -29 -29h-239q-96 0 -96 94v66h-7q-70 -174 -288 -174 q-164 0 -259.5 99t-97.5 261l-2 445h-102q-29 -1 -29 28zM344 1253q-11 11 -11 23q0 13 15 24l369 332q12 10 22 10q13 0 25 -16l115 -135q8 -12 8 -22q0 -13 -13 -23l-393 -305q-12 -9 -23 -9q-14 0 -24 15z" />
<glyph unicode="&#xfb;" d="M51 819v160q0 29 29 29h276q96 0 97 -95v-481q0 -100 37.5 -153.5t130.5 -53.5q63 0 108 32t58.5 58.5t13.5 38.5v437h-88q-29 0 -29 28v160q0 29 29 29h329q29 0 29 -29v-762h100q29 0 29 -29v-159q0 -29 -29 -29h-239q-96 0 -96 94v66h-7q-70 -174 -288 -174 q-164 0 -259.5 99t-97.5 261l-2 445h-102q-29 -1 -29 28zM215 1253q-10 11 -10 22q0 13 14 25l346 310q8 8 21 8q14 0 26 -10l342 -308q14 -12 15 -25q0 -11 -11 -22l-88 -104q-11 -13 -24 -13q-11 0 -23 9l-237 211l-236 -211q-11 -10 -22 -10q-13 0 -25 14z" />
<glyph unicode="&#xfc;" d="M51 819v160q0 29 29 29h276q96 0 97 -95v-481q0 -100 37.5 -153.5t130.5 -53.5q63 0 108 32t58.5 58.5t13.5 38.5v437h-88q-29 0 -29 28v160q0 29 29 29h329q29 0 29 -29v-762h100q29 0 29 -29v-159q0 -29 -29 -29h-239q-96 0 -96 94v66h-7q-70 -174 -288 -174 q-164 0 -259.5 99t-97.5 261l-2 445h-102q-29 -1 -29 28zM299 1260q0 47 34 81.5t81 34.5q49 0 82.5 -34.5t33.5 -81.5q0 -49 -33.5 -82t-82.5 -33q-47 0 -81 33t-34 82zM659 1260q0 47 34 81.5t81 34.5q49 0 83 -34.5t34 -81.5q0 -49 -34 -82t-83 -33q-47 0 -81 33t-34 82z " />
<glyph unicode="&#xfd;" horiz-adv-x="1284" d="M43 819v160q0 29 29 29h440q27 0 27 -29v-160q0 -29 -27 -28h-59l180 -551h4l186 551h-75q-29 0 -29 28v160q0 29 29 29h462q29 0 29 -29v-160q0 -29 -29 -28h-108l-309 -885q-72 -207 -149 -298t-230 -91q-55 0 -102.5 11t-85.5 34.5t-51 34t-40 34.5q-27 27 -10 43 l98 125q16 18 41 2q53 -47 119 -47q59 0 90 37t59 117l37 100h-53q-33 0 -49 15.5t-31 52.5l-260 715h-104q-29 -1 -29 28zM467 1253q-11 11 -11 23q0 13 15 24l369 332q12 10 22 10q13 0 25 -16l114 -135q8 -12 9 -22q0 -13 -13 -23l-393 -305q-12 -9 -23 -9q-14 0 -24 15z " />
<glyph unicode="&#xfe;" d="M63 -274q0 29 27 28h103v1499h-93q-29 0 -28 27v162q0 29 28 28h336q29 0 29 -28v-541q92 123 274 123q207 0 334 -138t127 -384q0 -231 -123 -373.5t-334 -142.5q-121 0 -195.5 46t-94.5 91h-4q4 -55 4 -80v-289h141q29 0 29 -28v-162q0 -27 -29 -27h-504q-27 0 -27 27 v162zM453 500q0 -137 68.5 -212t168.5 -75q106 0 174 78t68 207q0 133 -66.5 213t-175.5 80q-102 0 -169.5 -76t-67.5 -215z" />
<glyph unicode="&#xff;" horiz-adv-x="1284" d="M43 819v160q0 29 29 29h440q27 0 27 -29v-160q0 -29 -27 -28h-59l180 -551h4l186 551h-75q-29 0 -29 28v160q0 29 29 29h462q29 0 29 -29v-160q0 -29 -29 -28h-108l-309 -885q-72 -207 -149 -298t-230 -91q-55 0 -102.5 11t-85.5 34.5t-51 34t-40 34.5q-27 27 -10 43 l98 125q16 18 41 2q53 -47 119 -47q59 0 90 37t59 117l37 100h-53q-33 0 -49 15.5t-31 52.5l-260 715h-104q-29 -1 -29 28zM346 1260q0 47 34 81.5t81 34.5q49 0 83 -34.5t34 -81.5q0 -49 -34 -82t-83 -33q-47 0 -81 33t-34 82zM707 1260q0 47 33.5 81.5t80.5 34.5 q49 0 83 -34.5t34 -81.5q0 -49 -34 -82t-83 -33q-47 0 -80.5 33t-33.5 82z" />
<glyph unicode="&#x152;" horiz-adv-x="1888" d="M72 743q0 174 61.5 315.5t164.5 229.5t230 135t267 47h995q29 0 29 -28v-414q0 -29 -29 -29h-195q-29 0 -28 29v199h-488v-371h404q29 0 28 -29v-188q0 -29 -28 -29h-404v-366h488v196q0 29 28 29h195q29 0 29 -29v-411q0 -29 -29 -29h-989q-313 0 -521 206.5t-208 536.5 zM379 737q0 -213 121 -345t295 -136v956q-174 -4 -295 -130t-121 -345z" />
<glyph unicode="&#x153;" horiz-adv-x="1902" d="M63 508q0 236 147.5 375t383.5 139q252 0 395 -170q139 170 365 170q236 0 358 -135q121 -133 121 -375q0 -41 -33 -41h-672q12 -125 91 -190.5t184 -65.5q70 0 138.5 29.5t101 57.5t43.5 44q23 27 43 4l98 -106q12 -12 12 -26q0 -9 -6 -19q-12 -20 -41 -48t-83 -69 t-142 -68.5t-189 -27.5q-248 0 -389 172q-137 -172 -397 -172q-240 0 -384.5 141t-144.5 381zM338 508q0 -133 70.5 -213t183.5 -80t184.5 78t71.5 207q0 135 -71.5 213t-182.5 78t-183.5 -77t-72.5 -206zM1143 637h430q-4 78 -54.5 126t-144.5 48q-84 0 -148.5 -41 t-82.5 -133z" />
<glyph unicode="&#x178;" horiz-adv-x="1591" d="M72 1255v187q0 29 28 28h555q29 0 29 -28v-187q0 -29 -29 -28h-114l243 -412h19l246 412h-115q-29 0 -29 28v187q0 29 29 28h557q29 0 29 -28v-187q0 -29 -29 -28h-139q-119 -172 -220.5 -331t-146.5 -235.5t-47 -78.5v-338h141q29 0 29 -29v-186q0 -29 -29 -29h-569 q-29 0 -29 29v186q0 29 29 29h141v334q-2 4 -48 79.5t-146.5 235.5t-216.5 334h-140q-28 -1 -28 28zM479 1722q0 47 34 82t81 35q49 0 83 -35t34 -82q0 -49 -34 -81.5t-83 -32.5q-47 0 -81 32.5t-34 81.5zM840 1722q0 47 33.5 82t80.5 35q49 0 83 -35t34 -82 q0 -49 -33.5 -81.5t-83.5 -32.5q-47 0 -80.5 32.5t-33.5 81.5z" />
<glyph unicode="&#x2c6;" horiz-adv-x="878" d="M68 1253q-10 11 -11 22q0 13 15 25l346 310q8 8 20 8q14 0 27 -10l342 -308q14 -12 14 -25q0 -11 -10 -22l-88 -104q-11 -13 -24 -13q-11 0 -23 9l-238 211l-235 -211q-11 -10 -22 -10q-13 0 -25 14z" />
<glyph unicode="&#x2dc;" horiz-adv-x="862" d="M59 1153q0 127 53.5 199.5t161.5 72.5q92 0 176.5 -71.5t124.5 -71.5q43 0 62.5 28.5t19.5 104.5q0 29 29 29h88q29 0 29 -29q0 -279 -217 -278q-72 0 -126 33.5t-95 67.5t-80 34q-41 0 -61.5 -24.5t-20.5 -94.5q0 -29 -27 -29h-88q-29 0 -29 29z" />
<glyph unicode="&#x2013;" horiz-adv-x="1157" d="M63 446v189q0 33 33 33h965q33 0 33 -33v-189q0 -33 -33 -32h-965q-33 -1 -33 32z" />
<glyph unicode="&#x2014;" horiz-adv-x="1816" d="M63 446v189q0 33 33 33h1626q33 0 33 -33v-189q0 -33 -33 -32h-1626q-33 -1 -33 32z" />
<glyph unicode="&#x2018;" horiz-adv-x="399" d="M63 1405q0 260 193 260q14 0 14 -12v-58q0 -12 -14 -12q-35 0 -59.5 -24.5t-24.5 -67.5l4 -27q10 8 37 9q51 0 87 -37t36 -90.5t-37 -91t-90 -37.5q-68 0 -107 50t-39 138z" />
<glyph unicode="&#x2019;" horiz-adv-x="399" d="M63 1392.5q0 53.5 37 91.5t90 38q68 0 107 -50.5t39 -138.5q0 -260 -193 -260q-16 0 -16 12v58q0 12 16 12q33 0 58.5 24.5t25.5 67.5l-4 27q-12 -8 -37 -8q-51 0 -87 36.5t-36 90z" />
<glyph unicode="&#x201a;" horiz-adv-x="399" d="M63 110.5q0 53.5 37 91.5t90 38q68 0 107 -50.5t39 -138.5q0 -260 -193 -260q-16 0 -16 12v58q0 12 16 12q33 0 58.5 23.5t25.5 66.5l-4 29q-12 -8 -37 -8q-51 0 -87 36.5t-36 90z" />
<glyph unicode="&#x201c;" horiz-adv-x="768" d="M63 1405q0 260 193 260q14 0 14 -12v-58q0 -12 -14 -12q-35 0 -59.5 -24.5t-24.5 -67.5l4 -27q10 8 37 9q51 0 87 -37t36 -90.5t-37 -91t-90 -37.5q-68 0 -107 50t-39 138zM432 1405q0 260 193 260q16 0 16 -12v-58q0 -12 -16 -12q-33 0 -58.5 -24.5t-25.5 -67.5l4 -27 q12 8 37 9q51 0 88 -37t37 -90.5t-38 -91t-91 -37.5q-68 0 -107 50t-39 138z" />
<glyph unicode="&#x201d;" horiz-adv-x="768" d="M63 1392.5q0 53.5 37 91.5t90 38q68 0 107 -50.5t39 -138.5q0 -260 -193 -260q-16 0 -16 12v58q0 12 16 12q33 0 58.5 24.5t25.5 67.5l-4 27q-12 -8 -37 -8q-51 0 -87 36.5t-36 90zM432 1392.5q0 53.5 37 91.5t90 38q68 0 108 -50.5t40 -138.5q0 -260 -195 -260 q-14 0 -14 12v58q0 12 14 12q35 0 59.5 24.5t24.5 67.5l-4 27q-10 -8 -37 -8q-51 0 -87 36.5t-36 90z" />
<glyph unicode="&#x201e;" horiz-adv-x="757" d="M63 110.5q0 53.5 37 91.5t90 38q68 0 107 -50.5t39 -138.5q0 -260 -193 -260q-16 0 -16 12v58q0 12 16 12q33 0 58.5 23.5t25.5 66.5l-4 29q-12 -8 -37 -8q-51 0 -87 36.5t-36 90zM422 110.5q0 53.5 37 91.5t90 38q68 0 107.5 -50.5t39.5 -138.5q0 -260 -194 -260 q-14 0 -15 12v58q0 12 15 12q35 0 59.5 23.5t24.5 66.5l-4 29q-10 -8 -37 -8q-51 0 -87 36.5t-36 90z" />
<glyph unicode="&#x2022;" horiz-adv-x="507" d="M63 686q0 90 50.5 144.5t140.5 54.5q86 0 139 -55.5t53 -143.5q0 -90 -52 -143.5t-140 -53.5q-90 0 -140.5 52.5t-50.5 144.5z" />
<glyph unicode="&#x2026;" horiz-adv-x="980" d="M53 112.5q0 53.5 38 91.5t91.5 38t91 -38t37.5 -91.5t-37.5 -91t-91 -37.5t-91.5 37.5t-38 91zM365 112.5q0 53.5 37.5 91.5t91.5 38q51 0 90 -39t39 -90q0 -53 -38 -91t-91.5 -38t-91 37.5t-37.5 91zM672 112.5q0 53.5 36.5 91.5t90 38t91.5 -38t38 -91.5t-38 -91 t-91.5 -37.5t-90 37.5t-36.5 91z" />
<glyph unicode="&#x2039;" horiz-adv-x="903" d="M63 502v47q0 35 33 51l711 336q11 5 19 4q16 0 16 -20v-150q0 -37 -35 -51l-410 -195l410 -192q35 -14 35 -51v-150q0 -21 -16 -21q-8 0 -19 5l-711 336q-33 16 -33 51z" />
<glyph unicode="&#x203a;" horiz-adv-x="903" d="M63 131v150q0 39 33 51l410 192l-410 195q-33 12 -33 51v150q0 20 17 20q7 0 16 -4l711 -336q35 -18 35 -51v-47q0 -35 -35 -51l-711 -336q-10 -4 -16 -4q-17 0 -17 20z" />
<glyph unicode="&#x2044;" horiz-adv-x="884" d="M66 -123l481 1651q10 29 37 28h215q23 0 23 -16q0 -5 -3 -12l-481 -1651q-10 -29 -37 -29h-215q-23 0 -23 17q0 5 3 12z" />
<glyph unicode="&#x20ac;" horiz-adv-x="1536" d="M63 510v127q0 29 27 29h125q-2 12 -2 69q0 43 2 53h-125q-27 0 -27 27v127q0 29 27 29h150q61 244 242.5 378t416.5 134q57 0 111.5 -8.5t99.5 -22.5t84 -29.5t70.5 -34t52 -32t37 -26.5t18.5 -13q20 -18 6 -39l-121 -150q-18 -23 -40 -4q-106 86 -299 86 q-117 0 -213.5 -62.5t-139.5 -176.5h490q29 0 28 -29v-127q0 -27 -28 -27h-533q-2 -10 -2 -51q0 -49 4 -71h402q29 0 28 -29v-127q0 -29 -28 -29h-334q51 -104 144 -159.5t202 -55.5q207 0 354 111q25 16 39 4l129 -154q9 -16 10 -27q0 -8 -6 -14q-201 -201 -536 -200 q-242 0 -425.5 131t-252.5 364h-160q-27 0 -27 29z" />
<glyph unicode="&#x2122;" horiz-adv-x="2111" d="M63 1184v268q0 18 19 18h784q20 0 21 -18v-268q0 -18 -21 -19h-127q-18 0 -18 19v121h-148v-549h82q20 0 21 -21v-125q0 -18 -21 -18h-358q-18 0 -18 18v125q0 20 18 21h84v549h-152v-121q0 -18 -20 -19h-127q-19 1 -19 19zM975 608v131q0 16 16 17h82v549h-82 q-16 0 -16 16v133q0 16 16 16h256q55 0 76 -55l133 -334l53 -151h7q25 80 53 151l135 334q20 55 76 55h254q16 0 16 -16v-133q0 -16 -16 -16h-84v-549h84q16 0 16 -17v-131q0 -16 -16 -16h-334q-16 0 -17 16v131q0 16 17 17h59v409h-4l-170 -450q-18 -49 -74 -49 q-53 0 -71 49l-170 450h-4v-409h59q16 0 16 -17v-131q0 -16 -16 -16h-334q-16 0 -16 16z" />
<glyph unicode="&#xe000;" horiz-adv-x="1010" d="M0 1010h1010v-1010h-1010v1010z" />
<glyph unicode="&#xfb01;" horiz-adv-x="1466" d="M63 29v159q0 29 29 29h101v574h-103q-27 0 -27 28v160q0 29 27 29h103v90q0 190 98 289.5t282 99.5q72 0 136.5 -25.5t85 -42t57.5 -49.5q23 -20 8 -41l-92 -121q-18 -20 -41 -4q-49 45 -125 45q-137 0 -137 -153v-88h795q29 0 28 -29v-762h88q29 0 29 -29v-159 q0 -29 -29 -29h-461q-27 0 -26 29v159q0 29 26 29h101v574h-551v-574h170q29 0 29 -29v-159q0 -29 -29 -29h-543q-29 0 -29 29zM983 1266q0 66 47 112.5t113 46.5q68 0 115 -47t47 -112q0 -68 -47.5 -114t-114.5 -46q-66 0 -113 46t-47 114z" />
<glyph unicode="&#xfb02;" horiz-adv-x="1429" d="M63 29v159q0 29 29 29h101v574h-103q-27 0 -27 28v160q0 29 27 29h103v90q0 190 98 289.5t282 99.5q72 0 136.5 -25.5t85 -42t57.5 -49.5q27 -23 8 -41l-92 -121q-18 -20 -41 -4q-49 45 -125 45q-137 0 -137 -153v-88h262q29 0 29 -29v-160q0 -29 -29 -28h-262v-574h170 q29 0 29 -29v-159q0 -29 -29 -29h-543q-29 0 -29 29zM852 29v159q0 29 27 29h100v1038h-45q-27 0 -27 27v162q0 29 27 29h276q41 0 41 -39v-1217h88q29 0 29 -29v-159q0 -29 -29 -29h-460q-27 0 -27 29z" />
<glyph unicode="&#xfb03;" horiz-adv-x="2417" d="M1839 29v159q0 29 27 29h100v574h-100q-27 0 -27 28v160q0 29 27 29h344q29 0 29 -29v-762h88q29 0 29 -29v-159q0 -29 -29 -29h-461q-27 0 -27 29zM1934 1266q0 66 47 112.5t112 46.5q68 0 115 -47t47 -112q0 -68 -47 -114t-115 -46q-66 0 -112.5 46t-46.5 114zM951 29 v159q0 29 29 29h101v574h-103q-27 0 -27 28v160q0 29 27 29h103v90q0 190 98 289.5t282 99.5q72 0 136.5 -25.5t85 -42t57.5 -49.5q16 -13 16 -25q0 -8 -8 -16l-92 -121q-18 -20 -41 -4q-49 45 -125 45q-137 0 -137 -153v-88h262q29 0 29 -29v-160q0 -29 -29 -28h-262v-574 h170q29 0 29 -29v-159q0 -29 -29 -29h-543q-29 0 -29 29zM63 29v159q0 29 29 29h101v574h-103q-27 0 -27 28v160q0 29 27 29h103v90q0 190 98 289.5t282 99.5q72 0 136.5 -25.5t85 -42t57.5 -49.5q16 -13 16 -25q0 -8 -8 -16l-92 -121q-18 -20 -41 -4q-49 45 -125 45 q-137 0 -137 -153v-88h262q29 0 29 -29v-160q0 -29 -29 -28h-262v-574h170q29 0 29 -29v-159q0 -29 -29 -29h-543q-29 0 -29 29z" />
<glyph unicode="&#xfb04;" horiz-adv-x="2417" d="M1839 29v159q0 29 27 29h100v1038h-100q-27 0 -27 27v162q0 29 27 29h332q41 0 41 -39v-1217h88q29 0 29 -29v-159q0 -29 -29 -29h-461q-27 0 -27 29zM951 29v159q0 29 29 29h101v574h-103q-27 0 -27 28v160q0 29 27 29h103v90q0 190 98 289.5t282 99.5q72 0 136.5 -25.5 t85 -42t57.5 -49.5q16 -13 16 -25q0 -8 -8 -16l-92 -121q-18 -20 -41 -4q-49 45 -125 45q-137 0 -137 -153v-88h262q29 0 29 -29v-160q0 -29 -29 -28h-262v-574h170q29 0 29 -29v-159q0 -29 -29 -29h-543q-29 0 -29 29zM63 29v159q0 29 29 29h101v574h-103q-27 0 -27 28v160 q0 29 27 29h103v90q0 190 98 289.5t282 99.5q72 0 136.5 -25.5t85 -42t57.5 -49.5q16 -13 16 -25q0 -8 -8 -16l-92 -121q-18 -20 -41 -4q-49 45 -125 45q-137 0 -137 -153v-88h262q29 0 29 -29v-160q0 -29 -29 -28h-262v-574h170q29 0 29 -29v-159q0 -29 -29 -29h-543 q-29 0 -29 29z" />
</font>
</defs>
</svg>
